MulatAbay-Regular.ufo
<glyph name="slash" format="2">
  <advance width="844"/>
  <unicode hex="002F"/>
  <note>
uni002F
</note>
  <outline>
    <contour>
      <point x="18" y="-125" type="line"/>
      <point x="177" y="-125" type="line"/>
      <point x="784" y="1456" type="line"/>
      <point x="626" y="1456" type="line"/>
    </contour>
  </outline>
</glyph>
<glyph name="two" format="2">
  <advance width="1150"/>
  <unicode hex="0032"/>
  <note>
uni0032
</note>
  <outline>
    <contour>
      <point x="121" y="0" type="line"/>
      <point x="1075" y="0" type="line"/>
      <point x="1075" y="151" type="line"/>
      <point x="344" y="151" type="line"/>
      <point x="734" y="574" type="line" smooth="yes"/>
      <point x="916.667" y="772"/>
      <point x="1008" y="942.667"/>
      <point x="1008" y="1086" type="curve" smooth="yes"/>
      <point x="1008" y="1322"/>
      <point x="839.667" y="1476"/>
      <point x="569" y="1476" type="curve" smooth="yes"/>
      <point x="279.667" y="1476"/>
      <point x="93" y="1295"/>
      <point x="93" y="1027" type="curve"/>
      <point x="278" y="1027" type="line"/>
      <point x="278" y="1213.667"/>
      <point x="385" y="1324"/>
      <point x="569" y="1324" type="curve" smooth="yes"/>
      <point x="722.333" y="1324"/>
      <point x="822" y="1216"/>
      <point x="822" y="1064" type="curve" smooth="yes"/>
      <point x="822" y="950.667"/>
      <point x="774.333" y="862.333"/>
      <point x="625" y="693" type="curve" smooth="yes"/>
      <point x="121" y="133" type="line"/>
    </contour>
  </outline>
</glyph>
<glyph name="three" format="2">
  <advance width="1150"/>
  <unicode hex="0033"/>
  <note>
uni0033
</note>
  <outline>
    <contour>
      <point x="556" y="-20" type="curve" smooth="yes"/>
      <point x="829.333" y="-20"/>
      <point x="1017" y="144.667"/>
      <point x="1017" y="406" type="curve" smooth="yes"/>
      <point x="1017" y="575.333"/>
      <point x="926" y="696.333"/>
      <point x="766" y="747" type="curve"/>
      <point x="907.333" y="805.667"/>
      <point x="995" y="937.333"/>
      <point x="995" y="1064" type="curve" smooth="yes"/>
      <point x="995" y="1322.667"/>
      <point x="829.667" y="1476"/>
      <point x="555" y="1476" type="curve" smooth="yes"/>
      <point x="295" y="1476"/>
      <point x="107" y="1304.667"/>
      <point x="107" y="1074" type="curve"/>
      <point x="292" y="1074" type="line"/>
      <point x="292" y="1224.667"/>
      <point x="395" y="1324"/>
      <point x="555" y="1324" type="curve" smooth="yes"/>
      <point x="725" y="1324"/>
      <point x="810" y="1238.667"/>
      <point x="810" y="1068" type="curve" smooth="yes"/>
      <point x="810" y="916"/>
      <point x="703.667" y="820.667"/>
      <point x="529" y="818" type="curve" smooth="yes"/>
      <point x="390" y="818" type="line"/>
      <point x="390" y="667" type="line"/>
      <point x="529" y="667" type="line" smooth="yes"/>
      <point x="725" y="664.333"/>
      <point x="832" y="571.333"/>
      <point x="832" y="402" type="curve" smooth="yes"/>
      <point x="832" y="227.333"/>
      <point x="734.667" y="131"/>
      <point x="556" y="131" type="curve" smooth="yes"/>
      <point x="388" y="131"/>
      <point x="280" y="230.667"/>
      <point x="280" y="384" type="curve"/>
      <point x="94" y="384" type="line"/>
      <point x="94" y="141.333"/>
      <point x="282.667" y="-20"/>
    </contour>
  </outline>
</glyph>
<glyph name="five" format="2">
  <advance width="1150"/>
  <unicode hex="0035"/>
  <note>
uni0035
</note>
  <outline>
    <contour>
      <point x="608" y="-20" type="curve" smooth="yes"/>
      <point x="898.667" y="-20"/>
      <point x="1069" y="164"/>
      <point x="1069" y="464" type="curve" smooth="yes"/>
      <point x="1069" y="762.667"/>
      <point x="901.333" y="951"/>
      <point x="636" y="951" type="curve" smooth="yes"/>
      <point x="545.333" y="951"/>
      <point x="464.333" y="930"/>
      <point x="393" y="888" type="curve"/>
      <point x="437" y="1285" type="line"/>
      <point x="1026" y="1285" type="line"/>
      <point x="1026" y="1456" type="line"/>
      <point x="280" y="1456" type="line"/>
      <point x="206" y="730" type="line"/>
      <point x="354" y="692" type="line"/>
      <point x="449" y="767.333"/>
      <point x="512.333" y="785"/>
      <point x="593" y="785" type="curve" smooth="yes"/>
      <point x="769" y="785"/>
      <point x="884" y="656.667"/>
      <point x="884" y="462" type="curve" smooth="yes"/>
      <point x="884" y="255.333"/>
      <point x="780" y="131"/>
      <point x="608" y="131" type="curve" smooth="yes"/>
      <point x="450.667" y="131"/>
      <point x="351.667" y="216.333"/>
      <point x="329" y="383" type="curve"/>
      <point x="154" y="383" type="line"/>
      <point x="176.667" y="131"/>
      <point x="350.667" y="-20"/>
    </contour>
  </outline>
</glyph>
<glyph name="F" format="2">
  <advance width="1132"/>
  <unicode hex="0046"/>
  <note>
uni0046
</note>
  <outline>
    <contour>
      <point x="169" y="0" type="line"/>
      <point x="361" y="0" type="line"/>
      <point x="361" y="643" type="line"/>
      <point x="972" y="643" type="line"/>
      <point x="972" y="800" type="line"/>
      <point x="361" y="800" type="line"/>
      <point x="361" y="1298" type="line"/>
      <point x="1071" y="1298" type="line"/>
      <point x="1071" y="1456" type="line"/>
      <point x="169" y="1456" type="line"/>
    </contour>
  </outline>
</glyph>
<glyph name="X" format="2">
  <advance width="1284"/>
  <unicode hex="0058"/>
  <note>
uni0058
</note>
  <outline>
    <contour>
      <point x="57" y="0" type="line"/>
      <point x="284" y="0" type="line"/>
      <point x="644" y="568" type="line"/>
      <point x="1002" y="0" type="line"/>
      <point x="1230" y="0" type="line"/>
      <point x="759" y="734" type="line"/>
      <point x="1219" y="1456" type="line"/>
      <point x="993" y="1456" type="line"/>
      <point x="644" y="898" type="line"/>
      <point x="293" y="1456" type="line"/>
      <point x="68" y="1456" type="line"/>
      <point x="529" y="734" type="line"/>
    </contour>
  </outline>
</glyph>
<glyph name="a" format="2">
  <advance width="1114"/>
  <unicode hex="0061"/>
  <note>
uni0061
</note>
  <outline>
    <contour>
      <point x="474" y="-20" type="curve" smooth="yes"/>
      <point x="593.333" y="-20"/>
      <point x="696" y="24.667"/>
      <point x="782" y="114" type="curve"/>
      <point x="788.667" y="59.333"/>
      <point x="797.333" y="21.333"/>
      <point x="808" y="0" type="curve"/>
      <point x="1002" y="0" type="line"/>
      <point x="1002" y="16" type="line"/>
      <point x="976.667" y="74.667"/>
      <point x="964" y="153.667"/>
      <point x="964" y="253" type="curve" smooth="yes"/>
      <point x="964" y="751" type="line"/>
      <point x="958.667" y="969.667"/>
      <point x="810.333" y="1102"/>
      <point x="561" y="1102" type="curve" smooth="yes"/>
      <point x="403.667" y="1102"/>
      <point x="265.167" y="1039.167"/>
      <point x="188.5" y="938.5" type="curve" smooth="yes"/>
      <point x="150.167" y="888.167"/>
      <point x="131" y="836"/>
      <point x="131" y="782" type="curve"/>
      <point x="317" y="782" type="line"/>
      <point x="317" y="876.667"/>
      <point x="418" y="953"/>
      <point x="550" y="953" type="curve" smooth="yes"/>
      <point x="700.667" y="953"/>
      <point x="779" y="870.333"/>
      <point x="779" y="741" type="curve" smooth="yes"/>
      <point x="779" y="656" type="line"/>
      <point x="599" y="656" type="line" smooth="yes"/>
      <point x="288.333" y="656"/>
      <point x="109" y="525.333"/>
      <point x="109" y="300" type="curve" smooth="yes"/>
      <point x="109" y="114.667"/>
      <point x="260.667" y="-20"/>
    </contour>
    <contour>
      <point x="501" y="141" type="curve" smooth="yes"/>
      <point x="379.667" y="141"/>
      <point x="294" y="210"/>
      <point x="294" y="326" type="curve" smooth="yes"/>
      <point x="294" y="458.667"/>
      <point x="407.333" y="525"/>
      <point x="634" y="525" type="curve" smooth="yes"/>
      <point x="779" y="525" type="line"/>
      <point x="779" y="303" type="line"/>
      <point x="732.333" y="207"/>
      <point x="617" y="141"/>
    </contour>
  </outline>
</glyph>
<glyph name="b" format="2">
  <advance width="1149"/>
  <unicode hex="0062"/>
  <note>
uni0062
</note>
  <outline>
    <contour>
      <point x="636" y="-20" type="curve" smooth="yes"/>
      <point x="892" y="-20"/>
      <point x="1056" y="198.333"/>
      <point x="1056" y="529" type="curve" smooth="yes"/>
      <point x="1056" y="545" type="line" smooth="yes"/>
      <point x="1056" y="890.333"/>
      <point x="896.667" y="1102"/>
      <point x="634" y="1102" type="curve" smooth="yes"/>
      <point x="502.667" y="1102"/>
      <point x="399.667" y="1055.667"/>
      <point x="325" y="963" type="curve"/>
      <point x="325" y="1536" type="line"/>
      <point x="140" y="1536" type="line"/>
      <point x="140" y="0" type="line"/>
      <point x="310" y="0" type="line"/>
      <point x="319" y="125" type="line"/>
      <point x="393.667" y="28.333"/>
      <point x="499.333" y="-20"/>
    </contour>
    <contour>
      <point x="590" y="137" type="curve" smooth="yes"/>
      <point x="470" y="137"/>
      <point x="381.667" y="193.667"/>
      <point x="325" y="307" type="curve"/>
      <point x="325" y="775" type="line"/>
      <point x="378.333" y="888.333"/>
      <point x="466" y="945"/>
      <point x="588" y="945" type="curve" smooth="yes"/>
      <point x="770.667" y="945"/>
      <point x="871" y="802"/>
      <point x="871" y="550" type="curve" smooth="yes"/>
      <point x="871" y="274"/>
      <point x="767.333" y="137"/>
    </contour>
  </outline>
</glyph>
<glyph name="c" format="2">
  <advance width="1072"/>
  <unicode hex="0063"/>
  <note>
uni0063
</note>
  <outline>
    <contour>
      <point x="574" y="-20" type="curve" smooth="yes"/>
      <point x="791" y="-20"/>
      <point x="993" y="141"/>
      <point x="1004" y="341" type="curve"/>
      <point x="829" y="341" type="line"/>
      <point x="818.333" y="221"/>
      <point x="706" y="131"/>
      <point x="574" y="131" type="curve" smooth="yes"/>
      <point x="383.333" y="131"/>
      <point x="277" y="270.667"/>
      <point x="277" y="520" type="curve" smooth="yes"/>
      <point x="277" y="555" type="line" smooth="yes"/>
      <point x="277" y="811"/>
      <point x="385" y="950"/>
      <point x="573" y="950" type="curve" smooth="yes"/>
      <point x="713" y="950"/>
      <point x="818.333" y="850"/>
      <point x="829" y="710" type="curve"/>
      <point x="1004" y="710" type="line"/>
      <point x="993.333" y="942"/>
      <point x="815.667" y="1102"/>
      <point x="573" y="1102" type="curve" smooth="yes"/>
      <point x="283.303" y="1102"/>
      <point x="93.188" y="894.391"/>
      <point x="92" y="562" type="curve" smooth="yes"/>
      <point x="92" y="531" type="line" smooth="yes"/>
      <point x="92" y="189.667"/>
      <point x="279.333" y="-20"/>
    </contour>
  </outline>
</glyph>
<glyph name="e" format="2">
  <advance width="1085"/>
  <unicode hex="0065"/>
  <note>
uni0065
</note>
  <outline>
    <contour>
      <point x="589" y="-20" type="curve" smooth="yes"/>
      <point x="770.333" y="-20"/>
      <point x="906.333" y="49.667"/>
      <point x="997" y="189" type="curve"/>
      <point x="884" y="277" type="line"/>
      <point x="816" y="189"/>
      <point x="729.667" y="131"/>
      <point x="599" y="131" type="curve" smooth="yes"/>
      <point x="415" y="131"/>
      <point x="283.333" y="274.667"/>
      <point x="278" y="488" type="curve"/>
      <point x="1011" y="488" type="line"/>
      <point x="1011" y="565" type="line" smooth="yes"/>
      <point x="1011" y="910.333"/>
      <point x="847.333" y="1102"/>
      <point x="566" y="1102" type="curve" smooth="yes"/>
      <point x="394" y="1102"/>
      <point x="236.5" y="1001.167"/>
      <point x="154.5" y="832.5" type="curve" smooth="yes"/>
      <point x="113.5" y="748.167"/>
      <point x="93" y="652.333"/>
      <point x="93" y="545" type="curve" smooth="yes"/>
      <point x="93" y="511" type="line" smooth="yes"/>
      <point x="93" y="188.333"/>
      <point x="295.667" y="-20"/>
    </contour>
    <contour>
      <point x="284" y="640" type="line"/>
      <point x="308" y="836"/>
      <point x="416.667" y="950"/>
      <point x="566" y="950" type="curve" smooth="yes"/>
      <point x="720.667" y="950"/>
      <point x="815.333" y="842"/>
      <point x="826" y="640" type="curve"/>
    </contour>
  </outline>
</glyph>
<glyph name="m" format="2">
  <advance width="1795"/>
  <unicode hex="006D"/>
  <note>
uni006D
</note>
  <outline>
    <contour>
      <point x="139" y="0" type="line"/>
      <point x="324" y="0" type="line"/>
      <point x="324" y="790" type="line"/>
      <point x="368.667" y="893.333"/>
      <point x="451.667" y="945"/>
      <point x="573" y="945" type="curve" smooth="yes"/>
      <point x="727" y="945"/>
      <point x="804" y="866.333"/>
      <point x="804" y="709" type="curve" smooth="yes"/>
      <point x="804" y="0" type="line"/>
      <point x="990" y="0" type="line"/>
      <point x="990" y="718" type="line"/>
      <point x="1004.667" y="856.667"/>
      <point x="1102.667" y="945"/>
      <point x="1240" y="945" type="curve" smooth="yes"/>
      <point x="1406.667" y="945"/>
      <point x="1471" y="868.667"/>
      <point x="1471" y="714" type="curve" smooth="yes"/>
      <point x="1471" y="0" type="line"/>
      <point x="1656" y="0" type="line"/>
      <point x="1656" y="725" type="line" smooth="yes"/>
      <point x="1652" y="976.333"/>
      <point x="1531.333" y="1102"/>
      <point x="1294" y="1102" type="curve" smooth="yes"/>
      <point x="1136.667" y="1102"/>
      <point x="1021" y="1032"/>
      <point x="949" y="928" type="curve"/>
      <point x="894.333" y="1044"/>
      <point x="791.333" y="1102"/>
      <point x="640" y="1102" type="curve" smooth="yes"/>
      <point x="505.333" y="1102"/>
      <point x="398.333" y="1055.333"/>
      <point x="319" y="962" type="curve"/>
      <point x="314" y="1082" type="line"/>
      <point x="139" y="1082" type="line"/>
    </contour>
  </outline>
</glyph>
<glyph name="braceright" format="2">
  <advance width="693"/>
  <unicode hex="007D"/>
  <note>
uni007D
</note>
  <outline>
    <contour>
      <point x="58" y="-366" type="line"/>
      <point x="291.333" y="-299.333"/>
      <point x="414" y="-152.667"/>
      <point x="414" y="98" type="curve" smooth="yes"/>
      <point x="414" y="300" type="line" smooth="yes"/>
      <point x="414" y="462"/>
      <point x="484.667" y="543"/>
      <point x="626" y="543" type="curve"/>
      <point x="626" y="688" type="line"/>
      <point x="484.667" y="688"/>
      <point x="414" y="767.667"/>
      <point x="414" y="927" type="curve" smooth="yes"/>
      <point x="414" y="1137" type="line" smooth="yes"/>
      <point x="412.667" y="1383.667"/>
      <point x="294" y="1530.333"/>
      <point x="58" y="1597" type="curve"/>
      <point x="20" y="1482" type="line"/>
      <point x="159.333" y="1437.333"/>
      <point x="229" y="1321"/>
      <point x="229" y="1133" type="curve" smooth="yes"/>
      <point x="229" y="930" type="line" smooth="yes"/>
      <point x="229" y="774.667"/>
      <point x="289.333" y="669.667"/>
      <point x="410" y="615" type="curve"/>
      <point x="289.333" y="559"/>
      <point x="229" y="454"/>
      <point x="229" y="300" type="curve" smooth="yes"/>
      <point x="229" y="80" type="line" smooth="yes"/>
      <point x="224.333" y="-97.333"/>
      <point x="154.333" y="-207.667"/>
      <point x="19" y="-251" type="curve"/>
    </contour>
  </outline>
</glyph>
<glyph name="periodcentered" format="2">
  <advance width="534"/>
  <unicode hex="00B7"/>
  <note>
uni00B7
</note>
  <outline>
    <contour>
      <point x="261" y="619" type="curve" smooth="yes"/>
      <point x="337" y="619"/>
      <point x="377" y="666.333"/>
      <point x="377" y="729" type="curve" smooth="yes"/>
      <point x="377" y="793"/>
      <point x="337" y="841"/>
      <point x="261" y="841" type="curve" smooth="yes"/>
      <point x="185" y="841"/>
      <point x="147" y="793"/>
      <point x="147" y="729" type="curve" smooth="yes"/>
      <point x="147" y="666.333"/>
      <point x="185" y="619"/>
    </contour>
  </outline>
</glyph>
<glyph name="cedilla" format="2">
  <advance width="507"/>
  <unicode hex="00B8"/>
  <note>
uni00B8
</note>
  <outline>
    <contour>
      <point x="123" y="-435" type="line"/>
      <point x="313.667" y="-435"/>
      <point x="426" y="-354.333"/>
      <point x="426" y="-225" type="curve" smooth="yes"/>
      <point x="426" y="-127.667"/>
      <point x="375" y="-70"/>
      <point x="273" y="-52" type="curve"/>
      <point x="285" y="0" type="line"/>
      <point x="152" y="0" type="line"/>
      <point x="120" y="-134" type="line"/>
      <point x="195" y="-141"/>
      <point x="282" y="-148"/>
      <point x="282" y="-229" type="curve" smooth="yes"/>
      <point x="282" y="-291.667"/>
      <point x="221.333" y="-328"/>
      <point x="116" y="-328" type="curve"/>
    </contour>
  </outline>
</glyph>
<glyph name="ordmasculine" format="2">
  <advance width="931"/>
  <unicode hex="00BA"/>
  <note>
uni00BA
</note>
  <outline>
    <contour>
      <point x="466" y="690" type="curve" smooth="yes"/>
      <point x="671.333" y="690"/>
      <point x="807" y="831"/>
      <point x="807" y="1043" type="curve" smooth="yes"/>
      <point x="807" y="1117" type="line" smooth="yes"/>
      <point x="807" y="1338.333"/>
      <point x="670.667" y="1476"/>
      <point x="464" y="1476" type="curve" smooth="yes"/>
      <point x="258.667" y="1476"/>
      <point x="122" y="1333.667"/>
      <point x="122" y="1123" type="curve" smooth="yes"/>
      <point x="122" y="1049" type="line" smooth="yes"/>
      <point x="122" y="829"/>
      <point x="260.667" y="690"/>
    </contour>
    <contour>
      <point x="466" y="829" type="curve" smooth="yes"/>
      <point x="354" y="829"/>
      <point x="285" y="909.667"/>
      <point x="285" y="1043" type="curve" smooth="yes"/>
      <point x="285" y="1129" type="line" smooth="yes"/>
      <point x="287.667" y="1258.333"/>
      <point x="356" y="1336"/>
      <point x="464" y="1336" type="curve" smooth="yes"/>
      <point x="574.667" y="1336"/>
      <point x="644" y="1255"/>
      <point x="644" y="1123" type="curve" smooth="yes"/>
      <point x="644" y="1045" type="line" smooth="yes"/>
      <point x="644" y="910.333"/>
      <point x="576.667" y="829"/>
    </contour>
  </outline>
</glyph>
<glyph name="AE" format="2">
  <advance width="1914"/>
  <unicode hex="00C6"/>
  <note>
uni00C6
</note>
  <outline>
    <contour>
      <point x="-14" y="0" type="line"/>
      <point x="212" y="0" type="line"/>
      <point x="417" y="353" type="line"/>
      <point x="981" y="353" type="line"/>
      <point x="996" y="0" type="line"/>
      <point x="1879" y="0" type="line"/>
      <point x="1879" y="151" type="line"/>
      <point x="1174" y="151" type="line"/>
      <point x="1152" y="682" type="line"/>
      <point x="1736" y="682" type="line"/>
      <point x="1736" y="833" type="line"/>
      <point x="1146" y="833" type="line"/>
      <point x="1126" y="1304" type="line"/>
      <point x="1817" y="1304" type="line"/>
      <point x="1817" y="1456" type="line"/>
      <point x="866" y="1456" type="line"/>
    </contour>
    <contour>
      <point x="518" y="527" type="line"/>
      <point x="943" y="1260" type="line"/>
      <point x="974" y="527" type="line"/>
    </contour>
  </outline>
</glyph>
<glyph name="Oslash" format="2">
  <advance width="1408"/>
  <unicode hex="00D8"/>
  <note>
uni00D8
</note>
  <outline>
    <contour>
      <point x="164" y="-93" type="line"/>
      <point x="306" y="-93" type="line"/>
      <point x="403" y="62" type="line"/>
      <point x="490.333" y="7.333"/>
      <point x="591" y="-20"/>
      <point x="705" y="-20" type="curve" smooth="yes"/>
      <point x="939.667" y="-20"/>
      <point x="1121" y="94.833"/>
      <point x="1217" y="307.5" type="curve" smooth="yes"/>
      <point x="1265" y="413.833"/>
      <point x="1289" y="538.333"/>
      <point x="1289" y="681" type="curve" smooth="yes"/>
      <point x="1289" y="780" type="line" smooth="yes"/>
      <point x="1287.667" y="976"/>
      <point x="1241.333" y="1136.333"/>
      <point x="1150" y="1261" type="curve"/>
      <point x="1309" y="1516" type="line"/>
      <point x="1168" y="1516" type="line"/>
      <point x="1065" y="1351" type="line"/>
      <point x="966.333" y="1434.333"/>
      <point x="845.667" y="1476"/>
      <point x="703" y="1476" type="curve" smooth="yes"/>
      <point x="473.667" y="1476"/>
      <point x="288.333" y="1358.667"/>
      <point x="191" y="1144" type="curve" smooth="yes"/>
      <point x="142.333" y="1036.667"/>
      <point x="118" y="913"/>
      <point x="118" y="773" type="curve" smooth="yes"/>
      <point x="118" y="690" type="line" smooth="yes"/>
      <point x="118" y="450"/>
      <point x="181.333" y="266"/>
      <point x="308" y="138" type="curve"/>
    </contour>
    <contour>
      <point x="705" y="143" type="curve" smooth="yes"/>
      <point x="624.333" y="143"/>
      <point x="553.667" y="164.333"/>
      <point x="493" y="207" type="curve"/>
      <point x="1042" y="1088" type="line"/>
      <point x="1079.333" y="1000.667"/>
      <point x="1098" y="896.333"/>
      <point x="1098" y="775" type="curve" smooth="yes"/>
      <point x="1098" y="667" type="line" smooth="yes"/>
      <point x="1094" y="329.667"/>
      <point x="953" y="143"/>
    </contour>
    <contour>
      <point x="407" y="296" type="line"/>
      <point x="341.667" y="390"/>
      <point x="309" y="518.333"/>
      <point x="309" y="681" type="curve" smooth="yes"/>
      <point x="309" y="788" type="line" smooth="yes"/>
      <point x="313" y="1116"/>
      <point x="460.333" y="1311"/>
      <point x="703" y="1311" type="curve" smooth="yes"/>
      <point x="813.667" y="1311"/>
      <point x="903" y="1274"/>
      <point x="971" y="1200" type="curve"/>
    </contour>
  </outline>
</glyph>
<glyph name="OE" format="2">
  <advance width="1953"/>
  <unicode hex="0152"/>
  <note>
uni0152
</note>
  <outline>
    <contour>
      <point x="661" y="-21" type="curve" smooth="yes"/>
      <point x="737" y="-21"/>
      <point x="834.333" y="-14"/>
      <point x="953" y="0" type="curve"/>
      <point x="1801" y="0" type="line"/>
      <point x="1801" y="157" type="line"/>
      <point x="1068" y="157" type="line"/>
      <point x="1068" y="673" type="line"/>
      <point x="1699" y="673" type="line"/>
      <point x="1699" y="830" type="line"/>
      <point x="1068" y="830" type="line"/>
      <point x="1068" y="1298" type="line"/>
      <point x="1791" y="1298" type="line"/>
      <point x="1791" y="1456" type="line"/>
      <point x="953" y="1456" type="line"/>
      <point x="839.667" y="1469.333"/>
      <point x="741.667" y="1476"/>
      <point x="659" y="1476" type="curve" smooth="yes"/>
      <point x="257.504" y="1473.922"/>
      <point x="104" y="1047"/>
      <point x="104" y="880" type="curve" smooth="yes"/>
      <point x="104" y="571" type="line" smooth="yes"/>
      <point x="108.197" y="150.817"/>
      <point x="486" y="-21"/>
    </contour>
    <contour>
      <point x="661" y="130" type="curve" smooth="yes"/>
      <point x="426.333" y="130"/>
      <point x="290" y="294.667"/>
      <point x="290" y="576" type="curve" smooth="yes"/>
      <point x="290" y="889" type="line" smooth="yes"/>
      <point x="292.667" y="1165"/>
      <point x="428.333" y="1325"/>
      <point x="659" y="1325" type="curve" smooth="yes"/>
      <point x="731" y="1325"/>
      <point x="803.333" y="1320"/>
      <point x="876" y="1310" type="curve"/>
      <point x="876" y="144" type="line"/>
      <point x="808" y="134.667"/>
      <point x="736.333" y="130"/>
    </contour>
  </outline>
</glyph>
<glyph name="ring" format="2">
  <advance width="685"/>
  <unicode hex="02DA"/>
  <note>
uni02DA
</note>
  <outline>
    <contour>
      <point x="336" y="1204" type="curve" smooth="yes"/>
      <point x="457.333" y="1204"/>
      <point x="551" y="1292"/>
      <point x="551" y="1408" type="curve" smooth="yes"/>
      <point x="551" y="1522.667"/>
      <point x="458.667" y="1616"/>
      <point x="336" y="1616" type="curve" smooth="yes"/>
      <point x="213.333" y="1616"/>
      <point x="121" y="1522.667"/>
      <point x="121" y="1408" type="curve" smooth="yes"/>
      <point x="121" y="1293.333"/>
      <point x="213.333" y="1204"/>
    </contour>
    <contour>
      <point x="336" y="1293" type="curve" smooth="yes"/>
      <point x="270.667" y="1293"/>
      <point x="220" y="1345.333"/>
      <point x="220" y="1408" type="curve" smooth="yes"/>
      <point x="220" y="1472"/>
      <point x="269.333" y="1526"/>
      <point x="336" y="1526" type="curve" smooth="yes"/>
      <point x="413" y="1526"/>
      <point x="451" y="1468"/>
      <point x="451" y="1410" type="curve" smooth="yes"/>
      <point x="451" y="1352"/>
      <point x="413" y="1293"/>
    </contour>
  </outline>
</glyph>
<glyph name="dotbelowcomb" format="2">
  <unicode hex="0323"/>
  <note>
uni0323
</note>
  <outline>
    <contour>
      <point x="-603" y="-350" type="curve" smooth="yes"/>
      <point x="-531" y="-350"/>
      <point x="-493" y="-305"/>
      <point x="-493" y="-245" type="curve" smooth="yes"/>
      <point x="-493" y="-185"/>
      <point x="-531" y="-138"/>
      <point x="-603" y="-138" type="curve" smooth="yes"/>
      <point x="-675" y="-138"/>
      <point x="-712" y="-185"/>
      <point x="-712" y="-245" type="curve" smooth="yes"/>
      <point x="-712" y="-305"/>
      <point x="-675" y="-350"/>
    </contour>
  </outline>
</glyph>
<glyph name="ha-ethiopic" format="2">
  <advance width="1247"/>
  <unicode hex="1200"/>
  <outline>
    <contour>
      <point x="639" y="-20" type="curve" smooth="yes"/>
      <point x="868" y="-20"/>
      <point x="1047" y="109"/>
      <point x="1047" y="367" type="curve" smooth="yes"/>
      <point x="1047" y="1082" type="line"/>
      <point x="862" y="1082" type="line"/>
      <point x="862" y="366" type="line" smooth="yes"/>
      <point x="862" y="210"/>
      <point x="793" y="137"/>
      <point x="645" y="137" type="curve" smooth="yes"/>
      <point x="483" y="137"/>
      <point x="381" y="220"/>
      <point x="381" y="366" type="curve" smooth="yes"/>
      <point x="381" y="1082" type="line"/>
      <point x="196" y="1082" type="line"/>
      <point x="196" y="334" type="line" smooth="yes"/>
      <point x="196" y="125"/>
      <point x="375" y="-20"/>
    </contour>
  </outline>
</glyph>
<glyph name="hi-ethiopic" format="2">
  <advance width="1247"/>
  <unicode hex="1202"/>
  <outline>
    <contour>
      <point x="639" y="-20" type="curve" smooth="yes"/>
      <point x="868" y="-20"/>
      <point x="1047" y="109"/>
      <point x="1047" y="367" type="curve" smooth="yes"/>
      <point x="1047" y="1082" type="line"/>
      <point x="862" y="1082" type="line"/>
      <point x="862" y="366" type="line" smooth="yes"/>
      <point x="862" y="210"/>
      <point x="793" y="137"/>
      <point x="645" y="137" type="curve" smooth="yes"/>
      <point x="483" y="137"/>
      <point x="381" y="220"/>
      <point x="381" y="366" type="curve" smooth="yes"/>
      <point x="381" y="1082" type="line"/>
      <point x="196" y="1082" type="line"/>
      <point x="196" y="334" type="line" smooth="yes"/>
      <point x="196" y="125"/>
      <point x="375" y="-20"/>
    </contour>
    <contour>
      <point x="1192" y="-363" type="curve" smooth="yes"/>
      <point x="1259" y="-363"/>
      <point x="1316" y="-308"/>
      <point x="1316" y="-240" type="curve" smooth="yes"/>
      <point x="1316" y="-173"/>
      <point x="1259" y="-116"/>
      <point x="1192" y="-116" type="curve" smooth="yes"/>
      <point x="1124" y="-116"/>
      <point x="1069" y="-173"/>
      <point x="1069" y="-240" type="curve" smooth="yes"/>
      <point x="1069" y="-308"/>
      <point x="1124" y="-363"/>
    </contour>
    <contour>
      <point x="874" y="-345" type="line" name="❌"/>
      <point x="1059" y="-345" type="line" name="❌"/>
      <point x="1059" y="10" type="line"/>
      <point x="874" y="10" type="line"/>
    </contour>
  </outline>
</glyph>
<glyph name="hee-ethiopic" format="2">
  <advance width="1247"/>
  <unicode hex="1204"/>
  <outline>
    <contour>
      <point x="639" y="-20" type="curve" smooth="yes"/>
      <point x="868" y="-20"/>
      <point x="1047" y="109"/>
      <point x="1047" y="367" type="curve" smooth="yes"/>
      <point x="1047" y="1082" type="line"/>
      <point x="862" y="1082" type="line"/>
      <point x="862" y="366" type="line" smooth="yes"/>
      <point x="862" y="210"/>
      <point x="793" y="137"/>
      <point x="645" y="137" type="curve" smooth="yes"/>
      <point x="483" y="137"/>
      <point x="381" y="220"/>
      <point x="381" y="366" type="curve" smooth="yes"/>
      <point x="381" y="1082" type="line"/>
      <point x="196" y="1082" type="line"/>
      <point x="196" y="334" type="line" smooth="yes"/>
      <point x="196" y="125"/>
      <point x="375" y="-20"/>
    </contour>
    <contour>
      <point x="839" y="-495" type="curve" smooth="yes"/>
      <point x="1004" y="-495"/>
      <point x="1125" y="-376"/>
      <point x="1125" y="-219" type="curve" smooth="yes"/>
      <point x="1125" y="-59"/>
      <point x="1001" y="63"/>
      <point x="839" y="63" type="curve" smooth="yes"/>
      <point x="672" y="63"/>
      <point x="546" y="-62"/>
      <point x="546" y="-219" type="curve" smooth="yes"/>
      <point x="546" y="-374"/>
      <point x="668" y="-495"/>
    </contour>
    <contour>
      <point x="884" y="-465" type="curve" smooth="yes"/>
      <point x="786" y="-465"/>
      <point x="685" y="-401"/>
      <point x="685" y="-274" type="curve" smooth="yes"/>
      <point x="685" y="-168"/>
      <point x="773" y="-73"/>
      <point x="889" y="-73" type="curve" smooth="yes"/>
      <point x="999" y="-73"/>
      <point x="1083" y="-162"/>
      <point x="1083" y="-274" type="curve" smooth="yes"/>
      <point x="1083" y="-400"/>
      <point x="985" y="-464"/>
    </contour>
  </outline>
</glyph>
<glyph name="he-ethiopic" format="2">
  <advance width="1247"/>
  <unicode hex="1205"/>
  <outline>
    <contour>
      <point x="639" y="-20" type="curve" smooth="yes"/>
      <point x="868" y="-20"/>
      <point x="1047" y="109"/>
      <point x="1047" y="367" type="curve" smooth="yes"/>
      <point x="1047" y="1082" type="line"/>
      <point x="862" y="1082" type="line"/>
      <point x="862" y="366" type="line" smooth="yes"/>
      <point x="862" y="210"/>
      <point x="793" y="137"/>
      <point x="645" y="137" type="curve" smooth="yes"/>
      <point x="483" y="137"/>
      <point x="381" y="220"/>
      <point x="381" y="366" type="curve" smooth="yes"/>
      <point x="381" y="1082" type="line"/>
      <point x="196" y="1082" type="line"/>
      <point x="196" y="334" type="line" smooth="yes"/>
      <point x="196" y="125"/>
      <point x="375" y="-20"/>
    </contour>
    <contour>
      <point x="499" y="678" type="curve" smooth="yes"/>
      <point x="571" y="678"/>
      <point x="609" y="723"/>
      <point x="609" y="783" type="curve" smooth="yes"/>
      <point x="609" y="843"/>
      <point x="571" y="890"/>
      <point x="499" y="890" type="curve" smooth="yes"/>
      <point x="427" y="890"/>
      <point x="390" y="843"/>
      <point x="390" y="783" type="curve" smooth="yes"/>
      <point x="390" y="723"/>
      <point x="427" y="678"/>
    </contour>
  </outline>
</glyph>
<glyph name="ho-ethiopic" format="2">
  <advance width="1247"/>
  <unicode hex="1206"/>
  <outline>
    <contour>
      <point x="639" y="-20" type="curve" smooth="yes"/>
      <point x="868" y="-20"/>
      <point x="1047" y="109"/>
      <point x="1047" y="367" type="curve" smooth="yes"/>
      <point x="1047" y="1082" type="line"/>
      <point x="862" y="1082" type="line"/>
      <point x="862" y="366" type="line" smooth="yes"/>
      <point x="862" y="210"/>
      <point x="793" y="137"/>
      <point x="645" y="137" type="curve" smooth="yes"/>
      <point x="483" y="137"/>
      <point x="381" y="220"/>
      <point x="381" y="366" type="curve" smooth="yes"/>
      <point x="381" y="1082" type="line"/>
      <point x="196" y="1082" type="line"/>
      <point x="196" y="334" type="line" smooth="yes"/>
      <point x="196" y="125"/>
      <point x="375" y="-20"/>
    </contour>
    <contour>
      <point x="790" y="911" type="curve" smooth="yes"/>
      <point x="961" y="911"/>
      <point x="1083" y="1032"/>
      <point x="1083" y="1187" type="curve" smooth="yes"/>
      <point x="1083" y="1344"/>
      <point x="957" y="1469"/>
      <point x="790" y="1469" type="curve" smooth="yes"/>
      <point x="628" y="1469"/>
      <point x="504" y="1347"/>
      <point x="504" y="1187" type="curve" smooth="yes"/>
      <point x="504" y="1030"/>
      <point x="625" y="911"/>
    </contour>
    <contour>
      <point x="745" y="1047" type="curve" smooth="yes"/>
      <point x="644" y="1048"/>
      <point x="546" y="1112"/>
      <point x="546" y="1238" type="curve" smooth="yes"/>
      <point x="546" y="1350"/>
      <point x="630" y="1439"/>
      <point x="740" y="1439" type="curve" smooth="yes"/>
      <point x="856" y="1439"/>
      <point x="944" y="1344"/>
      <point x="944" y="1238" type="curve" smooth="yes"/>
      <point x="944" y="1111"/>
      <point x="843" y="1047"/>
    </contour>
  </outline>
</glyph>
<glyph name="hoa-ethiopic" format="2">
  <advance width="1247"/>
  <unicode hex="1207"/>
  <outline>
    <contour>
      <point x="639" y="-20" type="curve" smooth="yes"/>
      <point x="868" y="-20"/>
      <point x="1047" y="109"/>
      <point x="1047" y="367" type="curve" smooth="yes"/>
      <point x="1047" y="1082" type="line"/>
      <point x="862" y="1082" type="line"/>
      <point x="862" y="366" type="line" smooth="yes"/>
      <point x="862" y="210"/>
      <point x="793" y="137"/>
      <point x="645" y="137" type="curve" smooth="yes"/>
      <point x="483" y="137"/>
      <point x="381" y="220"/>
      <point x="381" y="366" type="curve" smooth="yes"/>
      <point x="381" y="1082" type="line"/>
      <point x="196" y="1082" type="line"/>
      <point x="196" y="334" type="line" smooth="yes"/>
      <point x="196" y="125"/>
      <point x="375" y="-20"/>
    </contour>
    <contour>
      <point x="790" y="911" type="curve" smooth="yes"/>
      <point x="961" y="911"/>
      <point x="1083" y="1032"/>
      <point x="1083" y="1187" type="curve" smooth="yes"/>
      <point x="1083" y="1344"/>
      <point x="957" y="1469"/>
      <point x="790" y="1469" type="curve" smooth="yes"/>
      <point x="628" y="1469"/>
      <point x="504" y="1347"/>
      <point x="504" y="1187" type="curve" smooth="yes"/>
      <point x="504" y="1030"/>
      <point x="625" y="911"/>
    </contour>
    <contour>
      <point x="745" y="1047" type="curve" smooth="yes"/>
      <point x="644" y="1048"/>
      <point x="546" y="1112"/>
      <point x="546" y="1238" type="curve" smooth="yes"/>
      <point x="546" y="1350"/>
      <point x="630" y="1439"/>
      <point x="740" y="1439" type="curve" smooth="yes"/>
      <point x="856" y="1439"/>
      <point x="944" y="1344"/>
      <point x="944" y="1238" type="curve" smooth="yes"/>
      <point x="944" y="1111"/>
      <point x="843" y="1047"/>
    </contour>
    <contour>
      <point x="82" y="677" type="curve" smooth="yes"/>
      <point x="154" y="677"/>
      <point x="192" y="722"/>
      <point x="192" y="782" type="curve" smooth="yes"/>
      <point x="192" y="842"/>
      <point x="154" y="889"/>
      <point x="82" y="889" type="curve" smooth="yes"/>
      <point x="10" y="889"/>
      <point x="-27" y="842"/>
      <point x="-27" y="782" type="curve" smooth="yes"/>
      <point x="-27" y="722"/>
      <point x="10" y="677"/>
    </contour>
  </outline>
</glyph>
<glyph name="lee-ethiopic" format="2">
  <advance width="1251"/>
  <unicode hex="120C"/>
  <outline>
    <contour>
      <point x="200" y="0" type="line"/>
      <point x="385" y="0" type="line"/>
      <point x="385" y="771" type="line"/>
      <point x="436" y="875"/>
      <point x="529" y="945"/>
      <point x="649" y="945" type="curve" smooth="yes"/>
      <point x="797" y="945"/>
      <point x="866" y="872"/>
      <point x="866" y="716" type="curve" smooth="yes"/>
      <point x="866" y="0" type="line"/>
      <point x="1051" y="0" type="line"/>
      <point x="1051" y="715" type="line" smooth="yes"/>
      <point x="1051" y="973"/>
      <point x="934" y="1102"/>
      <point x="705" y="1102" type="curve" smooth="yes"/>
      <point x="574" y="1102"/>
      <point x="467" y="1052"/>
      <point x="385" y="951" type="curve"/>
      <point x="385" y="1536" type="line"/>
      <point x="200" y="1536" type="line"/>
    </contour>
    <contour>
      <point x="808" y="-428" type="curve" smooth="yes"/>
      <point x="973" y="-428"/>
      <point x="1094" y="-309"/>
      <point x="1094" y="-152" type="curve" smooth="yes"/>
      <point x="1094" y="8"/>
      <point x="970" y="130"/>
      <point x="808" y="130" type="curve" smooth="yes"/>
      <point x="641" y="130"/>
      <point x="515" y="5"/>
      <point x="515" y="-152" type="curve" smooth="yes"/>
      <point x="515" y="-307"/>
      <point x="637" y="-428"/>
    </contour>
    <contour>
      <point x="853" y="-398" type="curve" smooth="yes"/>
      <point x="755" y="-398"/>
      <point x="654" y="-334"/>
      <point x="654" y="-207" type="curve" smooth="yes"/>
      <point x="654" y="-101"/>
      <point x="742" y="-6"/>
      <point x="858" y="-6" type="curve" smooth="yes"/>
      <point x="968" y="-6"/>
      <point x="1052" y="-95"/>
      <point x="1052" y="-207" type="curve" smooth="yes"/>
      <point x="1052" y="-333"/>
      <point x="954" y="-397"/>
    </contour>
  </outline>
</glyph>
<glyph name="le-ethiopic" format="2">
  <advance width="1251"/>
  <unicode hex="120D"/>
  <outline>
    <contour>
      <point x="200" y="0" type="line"/>
      <point x="385" y="0" type="line"/>
      <point x="385" y="771" type="line"/>
      <point x="436" y="875"/>
      <point x="529" y="945"/>
      <point x="649" y="945" type="curve" smooth="yes"/>
      <point x="797" y="945"/>
      <point x="866" y="872"/>
      <point x="866" y="716" type="curve" smooth="yes"/>
      <point x="866" y="0" type="line"/>
      <point x="1051" y="0" type="line"/>
      <point x="1051" y="715" type="line" smooth="yes"/>
      <point x="1051" y="973"/>
      <point x="934" y="1102"/>
      <point x="705" y="1102" type="curve" smooth="yes"/>
      <point x="574" y="1102"/>
      <point x="467" y="1052"/>
      <point x="385" y="951" type="curve"/>
      <point x="385" y="1536" type="line"/>
      <point x="200" y="1536" type="line"/>
    </contour>
    <contour>
      <point x="539" y="-262" type="curve" smooth="yes"/>
      <point x="701" y="-233"/>
      <point x="800" y="-95"/>
      <point x="772" y="60" type="curve" smooth="yes"/>
      <point x="745" y="217"/>
      <point x="601" y="316"/>
      <point x="442" y="288" type="curve" smooth="yes"/>
      <point x="277" y="259"/>
      <point x="175" y="114"/>
      <point x="202" y="-41" type="curve" smooth="yes"/>
      <point x="229" y="-194"/>
      <point x="370" y="-292"/>
    </contour>
    <contour>
      <point x="597" y="-193" type="curve" smooth="yes"/>
      <point x="517" y="-215"/>
      <point x="420" y="-184"/>
      <point x="391" y="-80" type="curve" smooth="yes"/>
      <point x="368" y="7"/>
      <point x="419" y="105"/>
      <point x="515" y="131" type="curve" smooth="yes"/>
      <point x="605" y="154"/>
      <point x="693" y="99"/>
      <point x="719" y="8" type="curve" smooth="yes"/>
      <point x="747" y="-96"/>
      <point x="680" y="-169"/>
    </contour>
  </outline>
</glyph>
<glyph name="lo-ethiopic" format="2">
  <advance width="1251"/>
  <unicode hex="120E"/>
  <outline>
    <contour>
      <point x="200" y="0" type="line"/>
      <point x="385" y="0" type="line"/>
      <point x="385" y="771" type="line"/>
      <point x="436" y="875"/>
      <point x="529" y="945"/>
      <point x="649" y="945" type="curve" smooth="yes"/>
      <point x="797" y="945"/>
      <point x="866" y="872"/>
      <point x="866" y="716" type="curve" smooth="yes"/>
      <point x="866" y="0" type="line"/>
      <point x="1051" y="0" type="line"/>
      <point x="1051" y="715" type="line" smooth="yes"/>
      <point x="1051" y="973"/>
      <point x="934" y="1102"/>
      <point x="705" y="1102" type="curve" smooth="yes"/>
      <point x="574" y="1102"/>
      <point x="467" y="1052"/>
      <point x="385" y="951" type="curve"/>
      <point x="385" y="1536" type="line"/>
      <point x="200" y="1536" type="line"/>
    </contour>
    <contour>
      <point x="971" y="351" type="curve" smooth="yes"/>
      <point x="1142" y="351"/>
      <point x="1264" y="472"/>
      <point x="1264" y="627" type="curve" smooth="yes"/>
      <point x="1264" y="784"/>
      <point x="1138" y="909"/>
      <point x="971" y="909" type="curve" smooth="yes"/>
      <point x="809" y="909"/>
      <point x="685" y="787"/>
      <point x="685" y="627" type="curve" smooth="yes"/>
      <point x="685" y="470"/>
      <point x="806" y="351"/>
    </contour>
    <contour>
      <point x="926" y="487" type="curve" smooth="yes"/>
      <point x="825" y="488"/>
      <point x="727" y="552"/>
      <point x="727" y="678" type="curve" smooth="yes"/>
      <point x="727" y="790"/>
      <point x="811" y="879"/>
      <point x="921" y="879" type="curve" smooth="yes"/>
      <point x="1037" y="879"/>
      <point x="1125" y="784"/>
      <point x="1125" y="678" type="curve" smooth="yes"/>
      <point x="1125" y="551"/>
      <point x="1024" y="487"/>
    </contour>
  </outline>
</glyph>
<glyph name="lwa-ethiopic" format="2">
  <advance width="1251"/>
  <unicode hex="120F"/>
  <outline>
    <contour>
      <point x="200" y="0" type="line"/>
      <point x="385" y="0" type="line"/>
      <point x="385" y="771" type="line"/>
      <point x="436" y="875"/>
      <point x="529" y="945"/>
      <point x="649" y="945" type="curve" smooth="yes"/>
      <point x="797" y="945"/>
      <point x="866" y="872"/>
      <point x="866" y="716" type="curve" smooth="yes"/>
      <point x="866" y="0" type="line"/>
      <point x="1051" y="0" type="line"/>
      <point x="1051" y="715" type="line" smooth="yes"/>
      <point x="1051" y="973"/>
      <point x="934" y="1102"/>
      <point x="705" y="1102" type="curve" smooth="yes"/>
      <point x="574" y="1102"/>
      <point x="467" y="1052"/>
      <point x="385" y="951" type="curve"/>
      <point x="385" y="1536" type="line"/>
      <point x="200" y="1536" type="line"/>
    </contour>
    <contour>
      <point x="570" y="-358" type="line"/>
      <point x="1080" y="-358" type="line"/>
      <point x="1080" y="-475" type="line"/>
      <point x="1210" y="-475" type="line"/>
      <point x="1210" y="-227" type="line"/>
      <point x="1051" y="-227" type="line"/>
      <point x="1051" y="-34" type="line"/>
      <point x="866" y="-34" type="line"/>
      <point x="866" y="-227" type="line"/>
      <point x="570" y="-227" type="line"/>
    </contour>
  </outline>
</glyph>
<glyph name="hhwa-ethiopic" format="2">
  <advance width="1897"/>
  <unicode hex="1217"/>
  <outline>
    <contour>
      <point x="200" y="0" type="line"/>
      <point x="385" y="0" type="line"/>
      <point x="385" y="709" type="line" smooth="yes"/>
      <point x="385" y="893"/>
      <point x="497" y="945"/>
      <point x="614" y="945" type="curve" smooth="yes"/>
      <point x="768" y="945"/>
      <point x="845" y="866"/>
      <point x="845" y="709" type="curve" smooth="yes"/>
      <point x="845" y="0" type="line"/>
      <point x="1031" y="0" type="line"/>
      <point x="1031" y="718" type="line" smooth="yes"/>
      <point x="1031" y="858"/>
      <point x="1144" y="945"/>
      <point x="1281" y="945" type="curve" smooth="yes"/>
      <point x="1448" y="945"/>
      <point x="1512" y="869"/>
      <point x="1512" y="714" type="curve" smooth="yes"/>
      <point x="1512" y="0" type="line"/>
      <point x="1697" y="0" type="line"/>
      <point x="1697" y="725" type="line" smooth="yes"/>
      <point x="1697" y="976"/>
      <point x="1572" y="1102"/>
      <point x="1335" y="1102" type="curve" smooth="yes"/>
      <point x="1178" y="1102"/>
      <point x="1029" y="1010"/>
      <point x="946" y="927" type="curve"/>
      <point x="868" y="1010"/>
      <point x="808" y="1101"/>
      <point x="591" y="1102" type="curve" smooth="yes"/>
      <point x="414" y="1103"/>
      <point x="200" y="968"/>
      <point x="200" y="709" type="curve" smooth="yes"/>
    </contour>
    <contour>
      <point x="853" y="1106" type="line"/>
      <point x="1022" y="1106" type="line"/>
      <point x="1022" y="1470" type="line"/>
      <point x="853" y="1470" type="line"/>
    </contour>
    <contour>
      <point x="1216" y="-358" type="line"/>
      <point x="1726" y="-358" type="line"/>
      <point x="1726" y="-475" type="line"/>
      <point x="1856" y="-475" type="line"/>
      <point x="1856" y="-227" type="line"/>
      <point x="1697" y="-227" type="line"/>
      <point x="1697" y="-34" type="line"/>
      <point x="1512" y="-34" type="line"/>
      <point x="1512" y="-227" type="line"/>
      <point x="1216" y="-227" type="line"/>
    </contour>
  </outline>
</glyph>
<glyph name="mu-ethiopic" format="2">
  <advance width="1918"/>
  <unicode hex="1219"/>
  <outline>
    <contour>
      <point x="354" y="0" type="curve" smooth="yes"/>
      <point x="622" y="0" type="line" smooth="yes"/>
      <point x="825" y="0"/>
      <point x="838" y="133"/>
      <point x="838" y="240" type="curve" smooth="yes"/>
      <point x="838" y="784" type="line" smooth="yes"/>
      <point x="838" y="872"/>
      <point x="1047" y="888"/>
      <point x="1047" y="789" type="curve" smooth="yes"/>
      <point x="1047" y="234" type="line" smooth="yes"/>
      <point x="1047" y="128"/>
      <point x="1078" y="0"/>
      <point x="1290" y="0" type="curve" smooth="yes"/>
      <point x="1549" y="0" type="line" smooth="yes"/>
      <point x="1637" y="0"/>
      <point x="1718" y="68"/>
      <point x="1718" y="169" type="curve" smooth="yes"/>
      <point x="1718" y="725" type="line" smooth="yes"/>
      <point x="1718" y="976"/>
      <point x="1638" y="1102"/>
      <point x="1396" y="1102" type="curve" smooth="yes"/>
      <point x="1199" y="1102"/>
      <point x="1109" y="1075"/>
      <point x="1039" y="979" type="curve"/>
      <point x="837" y="976" type="line"/>
      <point x="771" y="1067"/>
      <point x="707" y="1100"/>
      <point x="573" y="1102" type="curve" smooth="yes"/>
      <point x="235" y="1107"/>
      <point x="200" y="967"/>
      <point x="200" y="800" type="curve" smooth="yes"/>
      <point x="200" y="166" type="line" smooth="yes"/>
      <point x="200" y="33"/>
      <point x="281" y="0"/>
    </contour>
    <contour>
      <point x="386" y="141" type="line"/>
      <point x="386" y="718" type="line" smooth="yes"/>
      <point x="386" y="902"/>
      <point x="387" y="946"/>
      <point x="565" y="946" type="curve" smooth="yes"/>
      <point x="675" y="946"/>
      <point x="702" y="875"/>
      <point x="702" y="718" type="curve" smooth="yes"/>
      <point x="702" y="329" type="line" smooth="yes"/>
      <point x="702" y="177"/>
      <point x="692" y="141"/>
      <point x="497" y="141" type="curve" smooth="yes"/>
    </contour>
    <contour>
      <point x="1536" y="141" type="line"/>
      <point x="1418" y="141" type="line" smooth="yes"/>
      <point x="1224" y="141"/>
      <point x="1206" y="192"/>
      <point x="1206" y="361" type="curve" smooth="yes"/>
      <point x="1206" y="718" type="line" smooth="yes"/>
      <point x="1206" y="904"/>
      <point x="1226" y="946"/>
      <point x="1352" y="946" type="curve" smooth="yes"/>
      <point x="1519" y="946"/>
      <point x="1536" y="879"/>
      <point x="1536" y="718" type="curve" smooth="yes"/>
    </contour>
    <contour>
      <point x="1825" y="507" type="curve" smooth="yes"/>
      <point x="1892" y="507"/>
      <point x="1949" y="562"/>
      <point x="1949" y="630" type="curve" smooth="yes"/>
      <point x="1949" y="697"/>
      <point x="1892" y="754"/>
      <point x="1825" y="754" type="curve" smooth="yes"/>
      <point x="1757" y="754"/>
      <point x="1702" y="697"/>
      <point x="1702" y="630" type="curve" smooth="yes"/>
      <point x="1702" y="562"/>
      <point x="1757" y="507"/>
    </contour>
  </outline>
</glyph>
<glyph name="mi-ethiopic" format="2">
  <advance width="1918"/>
  <unicode hex="121A"/>
  <outline>
    <contour>
      <point x="354" y="0" type="curve" smooth="yes"/>
      <point x="622" y="0" type="line" smooth="yes"/>
      <point x="825" y="0"/>
      <point x="838" y="133"/>
      <point x="838" y="240" type="curve" smooth="yes"/>
      <point x="838" y="784" type="line" smooth="yes"/>
      <point x="838" y="872"/>
      <point x="1047" y="888"/>
      <point x="1047" y="789" type="curve" smooth="yes"/>
      <point x="1047" y="234" type="line" smooth="yes"/>
      <point x="1047" y="128"/>
      <point x="1078" y="0"/>
      <point x="1290" y="0" type="curve" smooth="yes"/>
      <point x="1549" y="0" type="line" smooth="yes"/>
      <point x="1637" y="0"/>
      <point x="1718" y="68"/>
      <point x="1718" y="169" type="curve" smooth="yes"/>
      <point x="1718" y="725" type="line" smooth="yes"/>
      <point x="1718" y="976"/>
      <point x="1638" y="1102"/>
      <point x="1396" y="1102" type="curve" smooth="yes"/>
      <point x="1199" y="1102"/>
      <point x="1109" y="1075"/>
      <point x="1039" y="979" type="curve"/>
      <point x="837" y="976" type="line"/>
      <point x="771" y="1067"/>
      <point x="707" y="1100"/>
      <point x="573" y="1102" type="curve" smooth="yes"/>
      <point x="235" y="1107"/>
      <point x="200" y="967"/>
      <point x="200" y="800" type="curve" smooth="yes"/>
      <point x="200" y="166" type="line" smooth="yes"/>
      <point x="200" y="33"/>
      <point x="281" y="0"/>
    </contour>
    <contour>
      <point x="386" y="141" type="line"/>
      <point x="386" y="718" type="line" smooth="yes"/>
      <point x="386" y="902"/>
      <point x="387" y="946"/>
      <point x="565" y="946" type="curve" smooth="yes"/>
      <point x="675" y="946"/>
      <point x="702" y="875"/>
      <point x="702" y="718" type="curve" smooth="yes"/>
      <point x="702" y="329" type="line" smooth="yes"/>
      <point x="702" y="177"/>
      <point x="692" y="141"/>
      <point x="497" y="141" type="curve" smooth="yes"/>
    </contour>
    <contour>
      <point x="1536" y="141" type="line"/>
      <point x="1418" y="141" type="line" smooth="yes"/>
      <point x="1224" y="141"/>
      <point x="1206" y="192"/>
      <point x="1206" y="361" type="curve" smooth="yes"/>
      <point x="1206" y="718" type="line" smooth="yes"/>
      <point x="1206" y="904"/>
      <point x="1226" y="946"/>
      <point x="1352" y="946" type="curve" smooth="yes"/>
      <point x="1519" y="946"/>
      <point x="1536" y="879"/>
      <point x="1536" y="718" type="curve" smooth="yes"/>
    </contour>
    <contour>
      <point x="1716" y="-397" type="curve" smooth="yes"/>
      <point x="1783" y="-397"/>
      <point x="1840" y="-342"/>
      <point x="1840" y="-274" type="curve" smooth="yes"/>
      <point x="1840" y="-207"/>
      <point x="1783" y="-150"/>
      <point x="1716" y="-150" type="curve" smooth="yes"/>
      <point x="1648" y="-150"/>
      <point x="1593" y="-207"/>
      <point x="1593" y="-274" type="curve" smooth="yes"/>
      <point x="1593" y="-342"/>
      <point x="1648" y="-397"/>
    </contour>
    <contour>
      <point x="1403" y="-355" type="line" name="❌"/>
      <point x="1588" y="-355" type="line" name="❌"/>
      <point x="1588" y="0" type="line"/>
      <point x="1403" y="0" type="line"/>
    </contour>
  </outline>
</glyph>
<glyph name="mee-ethiopic" format="2">
  <advance width="1918"/>
  <unicode hex="121C"/>
  <outline>
    <contour>
      <point x="354" y="0" type="curve" smooth="yes"/>
      <point x="622" y="0" type="line" smooth="yes"/>
      <point x="825" y="0"/>
      <point x="838" y="133"/>
      <point x="838" y="240" type="curve" smooth="yes"/>
      <point x="838" y="784" type="line" smooth="yes"/>
      <point x="838" y="872"/>
      <point x="1047" y="888"/>
      <point x="1047" y="789" type="curve" smooth="yes"/>
      <point x="1047" y="234" type="line" smooth="yes"/>
      <point x="1047" y="128"/>
      <point x="1078" y="0"/>
      <point x="1290" y="0" type="curve" smooth="yes"/>
      <point x="1549" y="0" type="line" smooth="yes"/>
      <point x="1637" y="0"/>
      <point x="1718" y="68"/>
      <point x="1718" y="169" type="curve" smooth="yes"/>
      <point x="1718" y="725" type="line" smooth="yes"/>
      <point x="1718" y="976"/>
      <point x="1638" y="1102"/>
      <point x="1396" y="1102" type="curve" smooth="yes"/>
      <point x="1199" y="1102"/>
      <point x="1109" y="1075"/>
      <point x="1039" y="979" type="curve"/>
      <point x="837" y="976" type="line"/>
      <point x="771" y="1067"/>
      <point x="707" y="1100"/>
      <point x="573" y="1102" type="curve" smooth="yes"/>
      <point x="235" y="1107"/>
      <point x="200" y="967"/>
      <point x="200" y="800" type="curve" smooth="yes"/>
      <point x="200" y="166" type="line" smooth="yes"/>
      <point x="200" y="33"/>
      <point x="281" y="0"/>
    </contour>
    <contour>
      <point x="386" y="141" type="line"/>
      <point x="386" y="718" type="line" smooth="yes"/>
      <point x="386" y="902"/>
      <point x="387" y="946"/>
      <point x="565" y="946" type="curve" smooth="yes"/>
      <point x="675" y="946"/>
      <point x="702" y="875"/>
      <point x="702" y="718" type="curve" smooth="yes"/>
      <point x="702" y="329" type="line" smooth="yes"/>
      <point x="702" y="177"/>
      <point x="692" y="141"/>
      <point x="497" y="141" type="curve" smooth="yes"/>
    </contour>
    <contour>
      <point x="1536" y="141" type="line"/>
      <point x="1418" y="141" type="line" smooth="yes"/>
      <point x="1224" y="141"/>
      <point x="1206" y="192"/>
      <point x="1206" y="361" type="curve" smooth="yes"/>
      <point x="1206" y="718" type="line" smooth="yes"/>
      <point x="1206" y="904"/>
      <point x="1226" y="946"/>
      <point x="1352" y="946" type="curve" smooth="yes"/>
      <point x="1519" y="946"/>
      <point x="1536" y="879"/>
      <point x="1536" y="718" type="curve" smooth="yes"/>
    </contour>
    <contour>
      <point x="1429" y="-495" type="curve" smooth="yes"/>
      <point x="1594" y="-495"/>
      <point x="1715" y="-376"/>
      <point x="1715" y="-219" type="curve" smooth="yes"/>
      <point x="1715" y="-59"/>
      <point x="1591" y="63"/>
      <point x="1429" y="63" type="curve" smooth="yes"/>
      <point x="1262" y="63"/>
      <point x="1136" y="-62"/>
      <point x="1136" y="-219" type="curve" smooth="yes"/>
      <point x="1136" y="-374"/>
      <point x="1258" y="-495"/>
    </contour>
    <contour>
      <point x="1474" y="-465" type="curve" smooth="yes"/>
      <point x="1376" y="-465"/>
      <point x="1275" y="-401"/>
      <point x="1275" y="-274" type="curve" smooth="yes"/>
      <point x="1275" y="-168"/>
      <point x="1363" y="-73"/>
      <point x="1479" y="-73" type="curve" smooth="yes"/>
      <point x="1589" y="-73"/>
      <point x="1673" y="-162"/>
      <point x="1673" y="-274" type="curve" smooth="yes"/>
      <point x="1673" y="-400"/>
      <point x="1575" y="-464"/>
    </contour>
  </outline>
</glyph>
<glyph name="szu-ethiopic" format="2">
  <advance width="1893"/>
  <unicode hex="1221"/>
  <outline>
    <contour>
      <point x="558" y="-20" type="curve" smooth="yes"/>
      <point x="715" y="-20"/>
      <point x="831" y="50"/>
      <point x="903" y="154" type="curve"/>
      <point x="998" y="38"/>
      <point x="1066" y="-25"/>
      <point x="1302" y="-20" type="curve" smooth="yes"/>
      <point x="1479" y="-16"/>
      <point x="1697" y="114"/>
      <point x="1693" y="373" type="curve" smooth="yes"/>
      <point x="1683" y="1082" type="line"/>
      <point x="1498" y="1082" type="line"/>
      <point x="1508" y="373" type="line" smooth="yes"/>
      <point x="1511" y="189"/>
      <point x="1396" y="137"/>
      <point x="1279" y="137" type="curve" smooth="yes"/>
      <point x="1125" y="137"/>
      <point x="1048" y="216"/>
      <point x="1048" y="373" type="curve" smooth="yes"/>
      <point x="1048" y="1082" type="line"/>
      <point x="862" y="1082" type="line"/>
      <point x="862" y="364" type="line" smooth="yes"/>
      <point x="862" y="224"/>
      <point x="749" y="137"/>
      <point x="612" y="137" type="curve" smooth="yes"/>
      <point x="445" y="137"/>
      <point x="381" y="213"/>
      <point x="381" y="368" type="curve" smooth="yes"/>
      <point x="381" y="1082" type="line"/>
      <point x="196" y="1082" type="line"/>
      <point x="196" y="357" type="line" smooth="yes"/>
      <point x="196" y="106"/>
      <point x="321" y="-20"/>
    </contour>
    <contour>
      <point x="1814" y="547" type="curve" smooth="yes"/>
      <point x="1881" y="547"/>
      <point x="1938" y="602"/>
      <point x="1938" y="670" type="curve" smooth="yes"/>
      <point x="1938" y="737"/>
      <point x="1881" y="794"/>
      <point x="1814" y="794" type="curve" smooth="yes"/>
      <point x="1746" y="794"/>
      <point x="1691" y="737"/>
      <point x="1691" y="670" type="curve" smooth="yes"/>
      <point x="1691" y="602"/>
      <point x="1746" y="547"/>
    </contour>
  </outline>
</glyph>
<glyph name="szi-ethiopic" format="2">
  <advance width="1893"/>
  <unicode hex="1222"/>
  <outline>
    <contour>
      <point x="558" y="-20" type="curve" smooth="yes"/>
      <point x="715" y="-20"/>
      <point x="831" y="50"/>
      <point x="903" y="154" type="curve"/>
      <point x="998" y="38"/>
      <point x="1066" y="-25"/>
      <point x="1302" y="-20" type="curve" smooth="yes"/>
      <point x="1479" y="-16"/>
      <point x="1697" y="114"/>
      <point x="1693" y="373" type="curve" smooth="yes"/>
      <point x="1683" y="1082" type="line"/>
      <point x="1498" y="1082" type="line"/>
      <point x="1508" y="373" type="line" smooth="yes"/>
      <point x="1511" y="189"/>
      <point x="1396" y="137"/>
      <point x="1279" y="137" type="curve" smooth="yes"/>
      <point x="1125" y="137"/>
      <point x="1048" y="216"/>
      <point x="1048" y="373" type="curve" smooth="yes"/>
      <point x="1048" y="1082" type="line"/>
      <point x="862" y="1082" type="line"/>
      <point x="862" y="364" type="line" smooth="yes"/>
      <point x="862" y="224"/>
      <point x="749" y="137"/>
      <point x="612" y="137" type="curve" smooth="yes"/>
      <point x="445" y="137"/>
      <point x="381" y="213"/>
      <point x="381" y="368" type="curve" smooth="yes"/>
      <point x="381" y="1082" type="line"/>
      <point x="196" y="1082" type="line"/>
      <point x="196" y="357" type="line" smooth="yes"/>
      <point x="196" y="106"/>
      <point x="321" y="-20"/>
    </contour>
    <contour>
      <point x="1568" y="-414" type="curve" smooth="yes"/>
      <point x="1635" y="-414"/>
      <point x="1692" y="-359"/>
      <point x="1692" y="-291" type="curve" smooth="yes"/>
      <point x="1692" y="-224"/>
      <point x="1635" y="-167"/>
      <point x="1568" y="-167" type="curve" smooth="yes"/>
      <point x="1500" y="-167"/>
      <point x="1445" y="-224"/>
      <point x="1445" y="-291" type="curve" smooth="yes"/>
      <point x="1445" y="-359"/>
      <point x="1500" y="-414"/>
    </contour>
    <contour>
      <point x="1275" y="-395" type="line" name="❌"/>
      <point x="1460" y="-395" type="line" name="❌"/>
      <point x="1460" y="-40" type="line"/>
      <point x="1275" y="-40" type="line"/>
    </contour>
  </outline>
</glyph>
<glyph name="szee-ethiopic" format="2">
  <advance width="1893"/>
  <unicode hex="1224"/>
  <outline>
    <contour>
      <point x="558" y="-20" type="curve" smooth="yes"/>
      <point x="715" y="-20"/>
      <point x="831" y="50"/>
      <point x="903" y="154" type="curve"/>
      <point x="998" y="38"/>
      <point x="1066" y="-25"/>
      <point x="1302" y="-20" type="curve" smooth="yes"/>
      <point x="1479" y="-16"/>
      <point x="1697" y="114"/>
      <point x="1693" y="373" type="curve" smooth="yes"/>
      <point x="1683" y="1082" type="line"/>
      <point x="1498" y="1082" type="line"/>
      <point x="1508" y="373" type="line" smooth="yes"/>
      <point x="1511" y="189"/>
      <point x="1396" y="137"/>
      <point x="1279" y="137" type="curve" smooth="yes"/>
      <point x="1125" y="137"/>
      <point x="1048" y="216"/>
      <point x="1048" y="373" type="curve" smooth="yes"/>
      <point x="1048" y="1082" type="line"/>
      <point x="862" y="1082" type="line"/>
      <point x="862" y="364" type="line" smooth="yes"/>
      <point x="862" y="224"/>
      <point x="749" y="137"/>
      <point x="612" y="137" type="curve" smooth="yes"/>
      <point x="445" y="137"/>
      <point x="381" y="213"/>
      <point x="381" y="368" type="curve" smooth="yes"/>
      <point x="381" y="1082" type="line"/>
      <point x="196" y="1082" type="line"/>
      <point x="196" y="357" type="line" smooth="yes"/>
      <point x="196" y="106"/>
      <point x="321" y="-20"/>
    </contour>
    <contour>
      <point x="1466" y="-495" type="curve" smooth="yes"/>
      <point x="1631" y="-495"/>
      <point x="1752" y="-376"/>
      <point x="1752" y="-219" type="curve" smooth="yes"/>
      <point x="1752" y="-59"/>
      <point x="1628" y="63"/>
      <point x="1466" y="63" type="curve" smooth="yes"/>
      <point x="1299" y="63"/>
      <point x="1173" y="-62"/>
      <point x="1173" y="-219" type="curve" smooth="yes"/>
      <point x="1173" y="-374"/>
      <point x="1295" y="-495"/>
    </contour>
    <contour>
      <point x="1511" y="-465" type="curve" smooth="yes"/>
      <point x="1413" y="-465"/>
      <point x="1312" y="-401"/>
      <point x="1312" y="-274" type="curve" smooth="yes"/>
      <point x="1312" y="-168"/>
      <point x="1400" y="-73"/>
      <point x="1516" y="-73" type="curve" smooth="yes"/>
      <point x="1626" y="-73"/>
      <point x="1710" y="-162"/>
      <point x="1710" y="-274" type="curve" smooth="yes"/>
      <point x="1710" y="-400"/>
      <point x="1612" y="-464"/>
    </contour>
  </outline>
</glyph>
<glyph name="szo-ethiopic" format="2">
  <advance width="1893"/>
  <unicode hex="1226"/>
  <outline>
    <contour>
      <point x="558" y="-20" type="curve" smooth="yes"/>
      <point x="715" y="-20"/>
      <point x="831" y="50"/>
      <point x="903" y="154" type="curve"/>
      <point x="998" y="38"/>
      <point x="1066" y="-25"/>
      <point x="1302" y="-20" type="curve" smooth="yes"/>
      <point x="1479" y="-16"/>
      <point x="1697" y="114"/>
      <point x="1693" y="373" type="curve" smooth="yes"/>
      <point x="1683" y="1082" type="line"/>
      <point x="1498" y="1082" type="line"/>
      <point x="1508" y="373" type="line" smooth="yes"/>
      <point x="1511" y="189"/>
      <point x="1396" y="137"/>
      <point x="1279" y="137" type="curve" smooth="yes"/>
      <point x="1125" y="137"/>
      <point x="1048" y="216"/>
      <point x="1048" y="373" type="curve" smooth="yes"/>
      <point x="1048" y="1082" type="line"/>
      <point x="862" y="1082" type="line"/>
      <point x="862" y="364" type="line" smooth="yes"/>
      <point x="862" y="224"/>
      <point x="749" y="137"/>
      <point x="612" y="137" type="curve" smooth="yes"/>
      <point x="445" y="137"/>
      <point x="381" y="213"/>
      <point x="381" y="368" type="curve" smooth="yes"/>
      <point x="381" y="1082" type="line"/>
      <point x="196" y="1082" type="line"/>
      <point x="196" y="357" type="line" smooth="yes"/>
      <point x="196" y="106"/>
      <point x="321" y="-20"/>
    </contour>
    <contour>
      <point x="579" y="-388" type="line"/>
      <point x="728" y="-388" type="line"/>
      <point x="996" y="-94" type="line" name="❌"/>
      <point x="772" y="-94" type="line" name="❌"/>
    </contour>
  </outline>
</glyph>
<glyph name="ra-ethiopic" format="2">
  <advance width="1152"/>
  <unicode hex="1228"/>
  <outline>
    <contour>
      <point x="582" y="-20" type="curve" smooth="yes"/>
      <point x="784" y="-20"/>
      <point x="985" y="127"/>
      <point x="1062" y="295" type="curve"/>
      <point x="954" y="295" type="line"/>
      <point x="904" y="205"/>
      <point x="714" y="131"/>
      <point x="582" y="131" type="curve" smooth="yes"/>
      <point x="431" y="131"/>
      <point x="385" y="255"/>
      <point x="385" y="517" type="curve" smooth="yes"/>
      <point x="385" y="1082" type="line"/>
      <point x="200" y="1082" type="line"/>
      <point x="200" y="524" type="line" smooth="yes"/>
      <point x="200" y="187"/>
      <point x="289" y="-20"/>
    </contour>
  </outline>
</glyph>
<glyph name="ru-ethiopic" format="2">
  <advance width="1086"/>
  <unicode hex="1229"/>
  <outline>
    <contour>
      <point x="582" y="-20" type="curve" smooth="yes"/>
      <point x="784" y="-20"/>
      <point x="985" y="127"/>
      <point x="1062" y="295" type="curve"/>
      <point x="954" y="295" type="line"/>
      <point x="904" y="205"/>
      <point x="714" y="131"/>
      <point x="582" y="131" type="curve" smooth="yes"/>
      <point x="431" y="131"/>
      <point x="385" y="255"/>
      <point x="385" y="517" type="curve" smooth="yes"/>
      <point x="385" y="1082" type="line"/>
      <point x="200" y="1082" type="line"/>
      <point x="200" y="524" type="line" smooth="yes"/>
      <point x="200" y="187"/>
      <point x="289" y="-20"/>
    </contour>
    <contour>
      <point x="805" y="-247" type="curve" smooth="yes"/>
      <point x="872" y="-247"/>
      <point x="929" y="-192"/>
      <point x="929" y="-124" type="curve" smooth="yes"/>
      <point x="929" y="-57"/>
      <point x="872" y="0"/>
      <point x="805" y="0" type="curve" smooth="yes"/>
      <point x="737" y="0"/>
      <point x="682" y="-57"/>
      <point x="682" y="-124" type="curve" smooth="yes"/>
      <point x="682" y="-192"/>
      <point x="737" y="-247"/>
    </contour>
  </outline>
</glyph>
<glyph name="ree-ethiopic" format="2">
  <advance width="1152"/>
  <unicode hex="122C"/>
  <outline>
    <contour>
      <point x="582" y="-20" type="curve" smooth="yes"/>
      <point x="784" y="-20"/>
      <point x="985" y="127"/>
      <point x="1062" y="295" type="curve"/>
      <point x="954" y="295" type="line"/>
      <point x="904" y="205"/>
      <point x="714" y="131"/>
      <point x="582" y="131" type="curve" smooth="yes"/>
      <point x="431" y="131"/>
      <point x="385" y="255"/>
      <point x="385" y="517" type="curve" smooth="yes"/>
      <point x="385" y="1082" type="line"/>
      <point x="200" y="1082" type="line"/>
      <point x="200" y="524" type="line" smooth="yes"/>
      <point x="200" y="187"/>
      <point x="289" y="-20"/>
    </contour>
    <contour>
      <point x="1064" y="274" type="curve" smooth="yes"/>
      <point x="1229" y="274"/>
      <point x="1350" y="393"/>
      <point x="1350" y="550" type="curve" smooth="yes"/>
      <point x="1350" y="710"/>
      <point x="1226" y="832"/>
      <point x="1064" y="832" type="curve" smooth="yes"/>
      <point x="897" y="832"/>
      <point x="771" y="707"/>
      <point x="771" y="550" type="curve" smooth="yes"/>
      <point x="771" y="395"/>
      <point x="893" y="274"/>
    </contour>
    <contour>
      <point x="1109" y="304" type="curve" smooth="yes"/>
      <point x="1011" y="304"/>
      <point x="910" y="368"/>
      <point x="910" y="495" type="curve" smooth="yes"/>
      <point x="910" y="601"/>
      <point x="998" y="696"/>
      <point x="1114" y="696" type="curve" smooth="yes"/>
      <point x="1224" y="696"/>
      <point x="1308" y="607"/>
      <point x="1308" y="495" type="curve" smooth="yes"/>
      <point x="1308" y="369"/>
      <point x="1210" y="305"/>
    </contour>
  </outline>
</glyph>
<glyph name="re-ethiopic" format="2">
  <advance width="1062"/>
  <unicode hex="122D"/>
  <outline>
    <contour>
      <point x="582" y="-32" type="curve" smooth="yes"/>
      <point x="784" y="-32"/>
      <point x="856" y="-32"/>
      <point x="951" y="-32" type="curve"/>
      <point x="951" y="131" type="line"/>
      <point x="864" y="131"/>
      <point x="664" y="131"/>
      <point x="582" y="131" type="curve" smooth="yes"/>
      <point x="431" y="131"/>
      <point x="385" y="255"/>
      <point x="385" y="517" type="curve" smooth="yes"/>
      <point x="385" y="1082" type="line"/>
      <point x="200" y="1082" type="line"/>
      <point x="200" y="524" type="line" smooth="yes"/>
      <point x="200" y="187"/>
      <point x="290" y="-3"/>
    </contour>
    <contour>
      <point x="200" y="1013" type="line"/>
      <point x="825" y="1013" type="line"/>
      <point x="825" y="1095" type="line"/>
      <point x="200" y="1095" type="line"/>
    </contour>
  </outline>
</glyph>
<glyph name="rwa-ethiopic" format="2">
  <advance width="1152"/>
  <unicode hex="122F"/>
  <outline>
    <contour>
      <point x="582" y="-20" type="curve" smooth="yes"/>
      <point x="784" y="-20"/>
      <point x="985" y="127"/>
      <point x="1062" y="295" type="curve"/>
      <point x="954" y="295" type="line"/>
      <point x="904" y="205"/>
      <point x="714" y="131"/>
      <point x="582" y="131" type="curve" smooth="yes"/>
      <point x="431" y="131"/>
      <point x="385" y="255"/>
      <point x="385" y="517" type="curve" smooth="yes"/>
      <point x="385" y="1082" type="line"/>
      <point x="200" y="1082" type="line"/>
      <point x="200" y="524" type="line" smooth="yes"/>
      <point x="200" y="187"/>
      <point x="289" y="-20"/>
    </contour>
    <contour>
      <point x="638" y="281" type="line"/>
      <point x="787" y="281" type="line"/>
      <point x="1055" y="575" type="line"/>
      <point x="831" y="575" type="line"/>
    </contour>
    <contour>
      <point x="40" y="1080" type="line"/>
      <point x="665" y="1080" type="line"/>
      <point x="665" y="1162" type="line"/>
      <point x="40" y="1162" type="line"/>
    </contour>
  </outline>
</glyph>
<glyph name="qwa-ethiopic" format="2">
  <advance width="1655"/>
  <unicode hex="1248"/>
  <outline>
    <contour>
      <point x="580" y="-20" type="curve" smooth="yes"/>
      <point x="634" y="-20"/>
      <point x="682" y="-16"/>
      <point x="726" y="0" type="curve"/>
      <point x="941" y="0" type="line"/>
      <point x="981" y="-13"/>
      <point x="1025" y="-20"/>
      <point x="1075" y="-20" type="curve" smooth="yes"/>
      <point x="1326" y="-20"/>
      <point x="1500" y="205"/>
      <point x="1500" y="550" type="curve" smooth="yes"/>
      <point x="1500" y="882"/>
      <point x="1328" y="1102"/>
      <point x="1073" y="1102" type="curve" smooth="yes"/>
      <point x="1023" y="1102"/>
      <point x="978" y="1095"/>
      <point x="937" y="1082" type="curve"/>
      <point x="726" y="1082" type="line"/>
      <point x="683" y="1097"/>
      <point x="635" y="1102"/>
      <point x="582" y="1102" type="curve" smooth="yes"/>
      <point x="327" y="1102"/>
      <point x="155" y="882"/>
      <point x="155" y="536" type="curve" smooth="yes"/>
      <point x="155" y="205"/>
      <point x="329" y="-20"/>
    </contour>
    <contour>
      <point x="626" y="137" type="curve" smooth="yes"/>
      <point x="447" y="137"/>
      <point x="340" y="284"/>
      <point x="340" y="529" type="curve" smooth="yes"/>
      <point x="340" y="804"/>
      <point x="447" y="945"/>
      <point x="628" y="945" type="curve" smooth="yes"/>
      <point x="663" y="945"/>
      <point x="716" y="940"/>
      <point x="746" y="931" type="curve"/>
      <point x="746" y="163" type="line"/>
      <point x="713" y="147"/>
      <point x="659" y="137"/>
    </contour>
    <contour>
      <point x="988" y="137" type="curve" smooth="yes"/>
      <point x="971" y="135"/>
      <point x="935" y="151"/>
      <point x="919" y="156" type="curve"/>
      <point x="919" y="942" type="line"/>
      <point x="957" y="944"/>
      <point x="993" y="942"/>
      <point x="1026" y="936" type="curve" smooth="yes"/>
      <point x="1209" y="904"/>
      <point x="1315" y="762"/>
      <point x="1315" y="529" type="curve" smooth="yes"/>
      <point x="1315" y="284"/>
      <point x="1166" y="158"/>
    </contour>
    <contour>
      <point x="751" y="1092" type="line"/>
      <point x="920" y="1092" type="line"/>
      <point x="920" y="1456" type="line"/>
      <point x="751" y="1456" type="line"/>
    </contour>
    <contour>
      <point x="420" y="-328" type="line"/>
      <point x="930" y="-328" type="line"/>
      <point x="930" y="-445" type="line"/>
      <point x="1060" y="-445" type="line"/>
      <point x="1060" y="-197" type="line"/>
      <point x="901" y="-197" type="line"/>
      <point x="901" y="-4" type="line"/>
      <point x="716" y="-4" type="line"/>
      <point x="716" y="-197" type="line"/>
      <point x="420" y="-197" type="line"/>
    </contour>
  </outline>
</glyph>
<glyph name="qho-ethiopic" format="2">
  <advance width="1655"/>
  <unicode hex="1256"/>
  <outline>
    <contour>
      <point x="580" y="-20" type="curve" smooth="yes"/>
      <point x="634" y="-20"/>
      <point x="682" y="-16"/>
      <point x="726" y="0" type="curve"/>
      <point x="941" y="0" type="line"/>
      <point x="981" y="-13"/>
      <point x="1025" y="-20"/>
      <point x="1075" y="-20" type="curve" smooth="yes"/>
      <point x="1326" y="-20"/>
      <point x="1500" y="205"/>
      <point x="1500" y="550" type="curve" smooth="yes"/>
      <point x="1500" y="882"/>
      <point x="1328" y="1102"/>
      <point x="1073" y="1102" type="curve" smooth="yes"/>
      <point x="1023" y="1102"/>
      <point x="978" y="1095"/>
      <point x="937" y="1082" type="curve"/>
      <point x="726" y="1082" type="line"/>
      <point x="683" y="1097"/>
      <point x="635" y="1102"/>
      <point x="582" y="1102" type="curve" smooth="yes"/>
      <point x="327" y="1102"/>
      <point x="155" y="882"/>
      <point x="155" y="536" type="curve" smooth="yes"/>
      <point x="155" y="205"/>
      <point x="329" y="-20"/>
    </contour>
    <contour>
      <point x="626" y="137" type="curve" smooth="yes"/>
      <point x="447" y="137"/>
      <point x="340" y="284"/>
      <point x="340" y="529" type="curve" smooth="yes"/>
      <point x="340" y="804"/>
      <point x="447" y="945"/>
      <point x="628" y="945" type="curve" smooth="yes"/>
      <point x="663" y="945"/>
      <point x="716" y="940"/>
      <point x="746" y="931" type="curve"/>
      <point x="746" y="163" type="line"/>
      <point x="713" y="147"/>
      <point x="659" y="137"/>
    </contour>
    <contour>
      <point x="988" y="137" type="curve" smooth="yes"/>
      <point x="971" y="135"/>
      <point x="935" y="151"/>
      <point x="919" y="156" type="curve"/>
      <point x="919" y="942" type="line"/>
      <point x="957" y="944"/>
      <point x="993" y="942"/>
      <point x="1026" y="936" type="curve" smooth="yes"/>
      <point x="1209" y="904"/>
      <point x="1315" y="762"/>
      <point x="1315" y="529" type="curve" smooth="yes"/>
      <point x="1315" y="284"/>
      <point x="1166" y="158"/>
    </contour>
    <contour>
      <point x="785" y="1113" type="curve" smooth="yes"/>
      <point x="956" y="1113"/>
      <point x="1078" y="1234"/>
      <point x="1078" y="1389" type="curve" smooth="yes"/>
      <point x="1078" y="1546"/>
      <point x="952" y="1671"/>
      <point x="785" y="1671" type="curve" smooth="yes"/>
      <point x="623" y="1671"/>
      <point x="499" y="1549"/>
      <point x="499" y="1389" type="curve" smooth="yes"/>
      <point x="499" y="1232"/>
      <point x="620" y="1113"/>
    </contour>
    <contour>
      <point x="740" y="1249" type="curve" smooth="yes"/>
      <point x="639" y="1250"/>
      <point x="541" y="1314"/>
      <point x="541" y="1440" type="curve" smooth="yes"/>
      <point x="541" y="1552"/>
      <point x="625" y="1641"/>
      <point x="735" y="1641" type="curve" smooth="yes"/>
      <point x="851" y="1641"/>
      <point x="939" y="1546"/>
      <point x="939" y="1440" type="curve" smooth="yes"/>
      <point x="939" y="1313"/>
      <point x="838" y="1249"/>
    </contour>
    <contour>
      <point x="739" y="-375" type="line" name="❌"/>
      <point x="924" y="-375" type="line" name="❌"/>
      <point x="924" y="-20" type="line"/>
      <point x="739" y="-20" type="line"/>
    </contour>
    <component base="_smart.hat" xOffset="883" yOffset="1351"/>
  </outline>
</glyph>
<glyph name="bi-ethiopic" format="2">
  <advance width="1251"/>
  <unicode hex="1262"/>
  <outline>
    <contour>
      <point x="200" y="0" type="line"/>
      <point x="385" y="0" type="line"/>
      <point x="385" y="716" type="line" smooth="yes"/>
      <point x="385" y="862"/>
      <point x="487" y="945"/>
      <point x="649" y="945" type="curve" smooth="yes"/>
      <point x="797" y="945"/>
      <point x="866" y="872"/>
      <point x="866" y="716" type="curve" smooth="yes"/>
      <point x="866" y="0" type="line"/>
      <point x="1051" y="0" type="line"/>
      <point x="1051" y="715" type="line" smooth="yes"/>
      <point x="1051" y="973"/>
      <point x="872" y="1102"/>
      <point x="643" y="1102" type="curve" smooth="yes"/>
      <point x="379" y="1102"/>
      <point x="200" y="957"/>
      <point x="200" y="748" type="curve" smooth="yes"/>
    </contour>
    <contour>
      <point x="1174" y="-13" type="curve" smooth="yes"/>
      <point x="1241" y="-13"/>
      <point x="1298" y="42"/>
      <point x="1298" y="110" type="curve" smooth="yes"/>
      <point x="1298" y="177"/>
      <point x="1241" y="234"/>
      <point x="1174" y="234" type="curve" smooth="yes"/>
      <point x="1106" y="234"/>
      <point x="1051" y="177"/>
      <point x="1051" y="110" type="curve" smooth="yes"/>
      <point x="1051" y="42"/>
      <point x="1106" y="-13"/>
    </contour>
  </outline>
</glyph>
<glyph name="vo-ethiopic" format="2">
  <advance width="1251"/>
  <unicode hex="126E"/>
  <outline>
    <contour>
      <point x="200" y="0" type="line"/>
      <point x="385" y="0" type="line"/>
      <point x="385" y="716" type="line" smooth="yes"/>
      <point x="385" y="862"/>
      <point x="487" y="945"/>
      <point x="649" y="945" type="curve" smooth="yes"/>
      <point x="797" y="945"/>
      <point x="866" y="872"/>
      <point x="866" y="716" type="curve" smooth="yes"/>
      <point x="866" y="0" type="line"/>
      <point x="1051" y="0" type="line"/>
      <point x="1051" y="715" type="line" smooth="yes"/>
      <point x="1051" y="973"/>
      <point x="872" y="1102"/>
      <point x="643" y="1102" type="curve" smooth="yes"/>
      <point x="379" y="1102"/>
      <point x="200" y="957"/>
      <point x="200" y="748" type="curve" smooth="yes"/>
    </contour>
    <contour>
      <point x="200" y="-368" type="line"/>
      <point x="385" y="-368" type="line"/>
      <point x="385" y="-14" type="line"/>
      <point x="200" y="-14" type="line"/>
    </contour>
    <contour>
      <point x="314" y="1422" type="line"/>
      <point x="939" y="1422" type="line"/>
      <point x="939" y="1504" type="line"/>
      <point x="314" y="1504" type="line"/>
    </contour>
  </outline>
</glyph>
<glyph name="ta-ethiopic" format="2">
  <advance width="784"/>
  <unicode hex="1270"/>
  <outline>
    <contour>
      <point x="267" y="0" type="line"/>
      <point x="452" y="0" type="line"/>
      <point x="452" y="939" type="line"/>
      <point x="654" y="939" type="line"/>
      <point x="654" y="1082" type="line"/>
      <point x="70" y="1082" type="line"/>
      <point x="70" y="939" type="line"/>
      <point x="267" y="939" type="line"/>
    </contour>
    <contour>
      <point x="272" y="1082" type="line"/>
      <point x="441" y="1082" type="line"/>
      <point x="441" y="1446" type="line"/>
      <point x="272" y="1446" type="line"/>
    </contour>
  </outline>
</glyph>
<glyph name="ti-ethiopic" format="2">
  <advance width="784"/>
  <unicode hex="1272"/>
  <outline>
    <contour>
      <point x="267" y="0" type="line"/>
      <point x="452" y="0" type="line"/>
      <point x="452" y="939" type="line"/>
      <point x="654" y="939" type="line"/>
      <point x="654" y="1082" type="line"/>
      <point x="70" y="1082" type="line"/>
      <point x="70" y="939" type="line"/>
      <point x="267" y="939" type="line"/>
    </contour>
    <contour>
      <point x="588" y="-13" type="curve" smooth="yes"/>
      <point x="655" y="-13"/>
      <point x="712" y="42"/>
      <point x="712" y="110" type="curve" smooth="yes"/>
      <point x="712" y="177"/>
      <point x="655" y="234"/>
      <point x="588" y="234" type="curve" smooth="yes"/>
      <point x="520" y="234"/>
      <point x="465" y="177"/>
      <point x="465" y="110" type="curve" smooth="yes"/>
      <point x="465" y="42"/>
      <point x="520" y="-13"/>
    </contour>
    <contour>
      <point x="272" y="1082" type="line"/>
      <point x="441" y="1082" type="line"/>
      <point x="441" y="1446" type="line"/>
      <point x="272" y="1446" type="line"/>
    </contour>
  </outline>
</glyph>
<glyph name="taa-ethiopic" format="2">
  <advance width="784"/>
  <unicode hex="1273"/>
  <outline>
    <contour>
      <point x="267" y="0" type="line"/>
      <point x="452" y="0" type="line"/>
      <point x="452" y="939" type="line"/>
      <point x="654" y="939" type="line"/>
      <point x="654" y="1082" type="line"/>
      <point x="70" y="1082" type="line"/>
      <point x="70" y="939" type="line"/>
      <point x="267" y="939" type="line"/>
    </contour>
    <contour>
      <point x="272" y="1082" type="line"/>
      <point x="441" y="1082" type="line"/>
      <point x="441" y="1446" type="line"/>
      <point x="272" y="1446" type="line"/>
    </contour>
    <contour>
      <point x="35" y="-304" type="line"/>
      <point x="184" y="-304" type="line"/>
      <point x="452" y="-10" type="line" name="❌"/>
      <point x="228" y="-10" type="line" name="❌"/>
    </contour>
  </outline>
</glyph>
<glyph name="tee-ethiopic" format="2">
  <advance width="784"/>
  <unicode hex="1274"/>
  <outline>
    <contour>
      <point x="267" y="0" type="line"/>
      <point x="452" y="0" type="line"/>
      <point x="452" y="939" type="line"/>
      <point x="654" y="939" type="line"/>
      <point x="654" y="1082" type="line"/>
      <point x="70" y="1082" type="line"/>
      <point x="70" y="939" type="line"/>
      <point x="267" y="939" type="line"/>
    </contour>
    <contour>
      <point x="294" y="-455" type="curve" smooth="yes"/>
      <point x="459" y="-455"/>
      <point x="580" y="-336"/>
      <point x="580" y="-179" type="curve" smooth="yes"/>
      <point x="580" y="-19"/>
      <point x="456" y="103"/>
      <point x="294" y="103" type="curve" smooth="yes"/>
      <point x="127" y="103"/>
      <point x="1" y="-22"/>
      <point x="1" y="-179" type="curve" smooth="yes"/>
      <point x="1" y="-334"/>
      <point x="123" y="-455"/>
    </contour>
    <contour>
      <point x="339" y="-425" type="curve" smooth="yes"/>
      <point x="241" y="-425"/>
      <point x="140" y="-361"/>
      <point x="140" y="-234" type="curve" smooth="yes"/>
      <point x="140" y="-128"/>
      <point x="228" y="-33"/>
      <point x="344" y="-33" type="curve" smooth="yes"/>
      <point x="454" y="-33"/>
      <point x="538" y="-122"/>
      <point x="538" y="-234" type="curve" smooth="yes"/>
      <point x="538" y="-360"/>
      <point x="440" y="-424"/>
    </contour>
    <contour>
      <point x="272" y="1082" type="line"/>
      <point x="441" y="1082" type="line"/>
      <point x="441" y="1446" type="line"/>
      <point x="272" y="1446" type="line"/>
    </contour>
  </outline>
</glyph>
<glyph name="te-ethiopic" format="2">
  <advance width="784"/>
  <unicode hex="1275"/>
  <outline>
    <contour>
      <point x="267" y="0" type="line"/>
      <point x="452" y="0" type="line"/>
      <point x="452" y="939" type="line"/>
      <point x="654" y="939" type="line"/>
      <point x="654" y="1082" type="line"/>
      <point x="70" y="1082" type="line"/>
      <point x="70" y="939" type="line"/>
      <point x="267" y="939" type="line"/>
    </contour>
    <contour>
      <point x="436" y="1163" type="line"/>
      <point x="243" y="1457" type="line"/>
      <point x="19" y="1457" type="line"/>
      <point x="287" y="1163" type="line"/>
    </contour>
  </outline>
</glyph>
<glyph name="to-ethiopic" format="2">
  <advance width="784"/>
  <unicode hex="1276"/>
  <outline>
    <contour>
      <point x="267" y="0" type="line"/>
      <point x="452" y="0" type="line"/>
      <point x="452" y="939" type="line"/>
      <point x="654" y="939" type="line"/>
      <point x="654" y="1082" type="line"/>
      <point x="70" y="1082" type="line"/>
      <point x="70" y="939" type="line"/>
      <point x="267" y="939" type="line"/>
    </contour>
    <contour>
      <point x="329" y="1057" type="curve" smooth="yes"/>
      <point x="500" y="1057"/>
      <point x="622" y="1178"/>
      <point x="622" y="1333" type="curve" smooth="yes"/>
      <point x="622" y="1490"/>
      <point x="496" y="1615"/>
      <point x="329" y="1615" type="curve" smooth="yes"/>
      <point x="167" y="1615"/>
      <point x="43" y="1493"/>
      <point x="43" y="1333" type="curve" smooth="yes"/>
      <point x="43" y="1176"/>
      <point x="164" y="1057"/>
    </contour>
    <contour>
      <point x="284" y="1193" type="curve" smooth="yes"/>
      <point x="183" y="1194"/>
      <point x="85" y="1258"/>
      <point x="85" y="1384" type="curve" smooth="yes"/>
      <point x="85" y="1496"/>
      <point x="169" y="1585"/>
      <point x="279" y="1585" type="curve" smooth="yes"/>
      <point x="395" y="1585"/>
      <point x="483" y="1490"/>
      <point x="483" y="1384" type="curve" smooth="yes"/>
      <point x="483" y="1257"/>
      <point x="382" y="1193"/>
    </contour>
  </outline>
</glyph>
<glyph name="cu-ethiopic" format="2">
  <advance width="784"/>
  <unicode hex="1279"/>
  <outline>
    <contour>
      <point x="267" y="0" type="line"/>
      <point x="452" y="0" type="line"/>
      <point x="452" y="939" type="line"/>
      <point x="654" y="939" type="line"/>
      <point x="654" y="1082" type="line"/>
      <point x="70" y="1082" type="line"/>
      <point x="70" y="939" type="line"/>
      <point x="267" y="939" type="line"/>
    </contour>
    <contour>
      <point x="577" y="515" type="curve" smooth="yes"/>
      <point x="644" y="515"/>
      <point x="701" y="570"/>
      <point x="701" y="638" type="curve" smooth="yes"/>
      <point x="701" y="705"/>
      <point x="644" y="762"/>
      <point x="577" y="762" type="curve" smooth="yes"/>
      <point x="509" y="762"/>
      <point x="454" y="705"/>
      <point x="454" y="638" type="curve" smooth="yes"/>
      <point x="454" y="570"/>
      <point x="509" y="515"/>
    </contour>
    <contour>
      <point x="272" y="1082" type="line"/>
      <point x="441" y="1082" type="line"/>
      <point x="441" y="1446" type="line"/>
      <point x="272" y="1446" type="line"/>
    </contour>
    <component base="_smart.hat" xOffset="338" yOffset="1327"/>
  </outline>
</glyph>
<glyph name="caa-ethiopic" format="2">
  <advance width="784"/>
  <unicode hex="127B"/>
  <outline>
    <contour>
      <point x="267" y="0" type="line"/>
      <point x="452" y="0" type="line"/>
      <point x="452" y="939" type="line"/>
      <point x="654" y="939" type="line"/>
      <point x="654" y="1082" type="line"/>
      <point x="70" y="1082" type="line"/>
      <point x="70" y="939" type="line"/>
      <point x="267" y="939" type="line"/>
    </contour>
    <contour>
      <point x="35" y="-304" type="line"/>
      <point x="184" y="-304" type="line"/>
      <point x="452" y="-10" type="line" name="❌"/>
      <point x="228" y="-10" type="line" name="❌"/>
    </contour>
    <contour>
      <point x="272" y="1082" type="line"/>
      <point x="441" y="1082" type="line"/>
      <point x="441" y="1446" type="line"/>
      <point x="272" y="1446" type="line"/>
    </contour>
    <component base="_smart.hat" xOffset="338" yOffset="1327"/>
  </outline>
</glyph>
<glyph name="ce-ethiopic" format="2">
  <advance width="784"/>
  <unicode hex="127D"/>
  <outline>
    <contour>
      <point x="267" y="0" type="line"/>
      <point x="452" y="0" type="line"/>
      <point x="452" y="939" type="line"/>
      <point x="654" y="939" type="line"/>
      <point x="654" y="1082" type="line"/>
      <point x="70" y="1082" type="line"/>
      <point x="70" y="939" type="line"/>
      <point x="267" y="939" type="line"/>
    </contour>
    <contour>
      <point x="436" y="1163" type="line"/>
      <point x="243" y="1457" type="line"/>
      <point x="19" y="1457" type="line"/>
      <point x="287" y="1163" type="line"/>
    </contour>
    <contour>
      <point x="23" y="1379" type="line"/>
      <point x="648" y="1379" type="line"/>
      <point x="648" y="1461" type="line"/>
      <point x="23" y="1461" type="line"/>
    </contour>
  </outline>
</glyph>
<glyph name="cwa-ethiopic" format="2">
  <advance width="784"/>
  <unicode hex="127F"/>
  <outline>
    <contour>
      <point x="267" y="0" type="line"/>
      <point x="452" y="0" type="line"/>
      <point x="452" y="939" type="line"/>
      <point x="654" y="939" type="line"/>
      <point x="654" y="1082" type="line"/>
      <point x="70" y="1082" type="line"/>
      <point x="70" y="939" type="line"/>
      <point x="267" y="939" type="line"/>
    </contour>
    <contour>
      <point x="-29" y="-338" type="line"/>
      <point x="481" y="-338" type="line"/>
      <point x="481" y="-455" type="line"/>
      <point x="611" y="-455" type="line"/>
      <point x="611" y="-207" type="line"/>
      <point x="452" y="-207" type="line"/>
      <point x="452" y="-14" type="line"/>
      <point x="267" y="-14" type="line"/>
      <point x="267" y="-207" type="line"/>
      <point x="-29" y="-207" type="line"/>
    </contour>
    <contour>
      <point x="272" y="1082" type="line"/>
      <point x="441" y="1082" type="line"/>
      <point x="441" y="1446" type="line"/>
      <point x="272" y="1446" type="line"/>
    </contour>
    <component base="_smart.hat" xOffset="338" yOffset="1327"/>
  </outline>
</glyph>
<glyph name="xi-ethiopic" format="2">
  <advance width="907"/>
  <unicode hex="1282"/>
  <outline>
    <contour>
      <point x="582" y="0" type="line"/>
      <point x="768" y="0" type="line"/>
      <point x="768" y="558" type="line" smooth="yes"/>
      <point x="768" y="895"/>
      <point x="636" y="1083"/>
      <point x="386" y="1102" type="curve" smooth="yes"/>
      <point x="280" y="1110"/>
      <point x="154" y="1050"/>
      <point x="90" y="1008" type="curve"/>
      <point x="258" y="944" type="line"/>
      <point x="279" y="955"/>
      <point x="313" y="966"/>
      <point x="386" y="961" type="curve" smooth="yes"/>
      <point x="558" y="949"/>
      <point x="582" y="812"/>
      <point x="582" y="565" type="curve" smooth="yes"/>
    </contour>
    <contour>
      <point x="893" y="-13" type="curve" smooth="yes"/>
      <point x="960" y="-13"/>
      <point x="1017" y="42"/>
      <point x="1017" y="110" type="curve" smooth="yes"/>
      <point x="1017" y="177"/>
      <point x="960" y="234"/>
      <point x="893" y="234" type="curve" smooth="yes"/>
      <point x="825" y="234"/>
      <point x="770" y="177"/>
      <point x="770" y="110" type="curve" smooth="yes"/>
      <point x="770" y="42"/>
      <point x="825" y="-13"/>
    </contour>
    <contour>
      <point x="90" y="1008" type="line"/>
      <point x="259" y="1008" type="line"/>
      <point x="259" y="1372" type="line"/>
      <point x="90" y="1372" type="line"/>
    </contour>
    <component base="_smart.nose" xOffset="-187" yOffset="1214"/>
  </outline>
</glyph>
<glyph name="xe-ethiopic" format="2">
  <advance width="996"/>
  <unicode hex="1285"/>
  <outline>
    <contour>
      <point x="-73" y="1009" type="line"/>
      <point x="-73" y="748" type="line"/>
      <point x="38" y="748" type="line"/>
      <point x="38" y="1009" type="line"/>
    </contour>
    <contour>
      <point x="681" y="0" type="line"/>
      <point x="867" y="0" type="line"/>
      <point x="867" y="558" type="line" smooth="yes"/>
      <point x="867" y="895"/>
      <point x="735" y="1083"/>
      <point x="485" y="1102" type="curve" smooth="yes"/>
      <point x="379" y="1110"/>
      <point x="253" y="1050"/>
      <point x="189" y="1008" type="curve"/>
      <point x="357" y="944" type="line"/>
      <point x="378" y="955"/>
      <point x="412" y="966"/>
      <point x="485" y="961" type="curve" smooth="yes"/>
      <point x="657" y="949"/>
      <point x="681" y="812"/>
      <point x="681" y="565" type="curve" smooth="yes"/>
    </contour>
    <contour>
      <point x="140" y="1008" type="line"/>
      <point x="309" y="1008" type="line"/>
      <point x="309" y="1372" type="line"/>
      <point x="140" y="1372" type="line"/>
    </contour>
    <contour>
      <point x="10" y="1026" type="curve" smooth="yes"/>
      <point x="77" y="1026"/>
      <point x="134" y="1081"/>
      <point x="134" y="1149" type="curve" smooth="yes"/>
      <point x="134" y="1216"/>
      <point x="77" y="1273"/>
      <point x="10" y="1273" type="curve" smooth="yes"/>
      <point x="-58" y="1273"/>
      <point x="-113" y="1216"/>
      <point x="-113" y="1149" type="curve" smooth="yes"/>
      <point x="-113" y="1081"/>
      <point x="-58" y="1026"/>
    </contour>
  </outline>
</glyph>
<glyph name="xwaa-ethiopic" format="2">
  <advance width="907"/>
  <unicode hex="128B"/>
  <outline>
    <contour>
      <point x="582" y="0" type="line"/>
      <point x="768" y="0" type="line"/>
      <point x="768" y="558" type="line" smooth="yes"/>
      <point x="768" y="895"/>
      <point x="636" y="1083"/>
      <point x="386" y="1102" type="curve" smooth="yes"/>
      <point x="280" y="1110"/>
      <point x="154" y="1050"/>
      <point x="90" y="1008" type="curve"/>
      <point x="258" y="944" type="line"/>
      <point x="279" y="955"/>
      <point x="313" y="966"/>
      <point x="386" y="961" type="curve" smooth="yes"/>
      <point x="558" y="949"/>
      <point x="582" y="812"/>
      <point x="582" y="565" type="curve" smooth="yes"/>
    </contour>
    <contour>
      <point x="287" y="-92" type="line"/>
      <point x="749" y="-92" type="line"/>
      <point x="749" y="-376" type="line"/>
      <point x="918" y="-376" type="line"/>
      <point x="918" y="-10" type="line"/>
      <point x="287" y="-10" type="line"/>
    </contour>
    <contour>
      <point x="90" y="1008" type="line"/>
      <point x="259" y="1008" type="line"/>
      <point x="259" y="1372" type="line"/>
      <point x="90" y="1372" type="line"/>
    </contour>
    <component base="_smart.nose" xOffset="-187" yOffset="1214"/>
  </outline>
</glyph>
<glyph name="nee-ethiopic" format="2">
  <advance width="907"/>
  <unicode hex="1294"/>
  <outline>
    <contour>
      <point x="582" y="0" type="line"/>
      <point x="768" y="0" type="line"/>
      <point x="768" y="558" type="line" smooth="yes"/>
      <point x="768" y="895"/>
      <point x="636" y="1083"/>
      <point x="386" y="1102" type="curve" smooth="yes"/>
      <point x="280" y="1110"/>
      <point x="154" y="1050"/>
      <point x="90" y="1008" type="curve"/>
      <point x="258" y="944" type="line"/>
      <point x="279" y="955"/>
      <point x="313" y="966"/>
      <point x="386" y="961" type="curve" smooth="yes"/>
      <point x="558" y="949"/>
      <point x="582" y="812"/>
      <point x="582" y="565" type="curve" smooth="yes"/>
    </contour>
    <contour>
      <point x="90" y="1008" type="line"/>
      <point x="259" y="1008" type="line"/>
      <point x="259" y="1372" type="line"/>
      <point x="90" y="1372" type="line"/>
    </contour>
    <contour>
      <point x="604" y="-455" type="curve" smooth="yes"/>
      <point x="769" y="-455"/>
      <point x="890" y="-336"/>
      <point x="890" y="-179" type="curve" smooth="yes"/>
      <point x="890" y="-19"/>
      <point x="766" y="103"/>
      <point x="604" y="103" type="curve" smooth="yes"/>
      <point x="437" y="103"/>
      <point x="311" y="-22"/>
      <point x="311" y="-179" type="curve" smooth="yes"/>
      <point x="311" y="-334"/>
      <point x="433" y="-455"/>
    </contour>
    <contour>
      <point x="649" y="-425" type="curve" smooth="yes"/>
      <point x="551" y="-425"/>
      <point x="450" y="-361"/>
      <point x="450" y="-234" type="curve" smooth="yes"/>
      <point x="450" y="-128"/>
      <point x="538" y="-33"/>
      <point x="654" y="-33" type="curve" smooth="yes"/>
      <point x="764" y="-33"/>
      <point x="848" y="-122"/>
      <point x="848" y="-234" type="curve" smooth="yes"/>
      <point x="848" y="-360"/>
      <point x="750" y="-424"/>
    </contour>
  </outline>
</glyph>
<glyph name="ne-ethiopic" format="2">
  <advance width="907"/>
  <unicode hex="1295"/>
  <outline>
    <contour>
      <point x="582" y="0" type="line"/>
      <point x="768" y="0" type="line"/>
      <point x="768" y="558" type="line" smooth="yes"/>
      <point x="768" y="895"/>
      <point x="636" y="1083"/>
      <point x="386" y="1102" type="curve" smooth="yes"/>
      <point x="280" y="1110"/>
      <point x="154" y="1050"/>
      <point x="90" y="1008" type="curve"/>
      <point x="258" y="944" type="line"/>
      <point x="279" y="955"/>
      <point x="313" y="966"/>
      <point x="386" y="961" type="curve" smooth="yes"/>
      <point x="558" y="949"/>
      <point x="582" y="812"/>
      <point x="582" y="565" type="curve" smooth="yes"/>
    </contour>
    <contour>
      <point x="496" y="487" type="curve" smooth="yes"/>
      <point x="568" y="487"/>
      <point x="606" y="532"/>
      <point x="606" y="592" type="curve" smooth="yes"/>
      <point x="606" y="652"/>
      <point x="568" y="699"/>
      <point x="496" y="699" type="curve" smooth="yes"/>
      <point x="424" y="699"/>
      <point x="387" y="652"/>
      <point x="387" y="592" type="curve" smooth="yes"/>
      <point x="387" y="532"/>
      <point x="424" y="487"/>
    </contour>
  </outline>
</glyph>
<glyph name="no-ethiopic" format="2">
  <advance width="1062"/>
  <unicode hex="1296"/>
  <outline>
    <contour>
      <point x="582" y="-32" type="curve" smooth="yes"/>
      <point x="784" y="-32"/>
      <point x="856" y="-32"/>
      <point x="951" y="-32" type="curve"/>
      <point x="951" y="131" type="line"/>
      <point x="864" y="131"/>
      <point x="664" y="131"/>
      <point x="582" y="131" type="curve" smooth="yes"/>
      <point x="431" y="131"/>
      <point x="385" y="255"/>
      <point x="385" y="517" type="curve" smooth="yes"/>
      <point x="385" y="1082" type="line"/>
      <point x="200" y="1082" type="line"/>
      <point x="200" y="524" type="line" smooth="yes"/>
      <point x="200" y="187"/>
      <point x="290" y="-3"/>
    </contour>
    <contour>
      <point x="728" y="722" type="curve" smooth="yes"/>
      <point x="899" y="722"/>
      <point x="1021" y="843"/>
      <point x="1021" y="998" type="curve" smooth="yes"/>
      <point x="1021" y="1155"/>
      <point x="895" y="1280"/>
      <point x="728" y="1280" type="curve" smooth="yes"/>
      <point x="566" y="1280"/>
      <point x="442" y="1158"/>
      <point x="442" y="998" type="curve" smooth="yes"/>
      <point x="442" y="841"/>
      <point x="563" y="722"/>
    </contour>
    <contour>
      <point x="683" y="858" type="curve" smooth="yes"/>
      <point x="582" y="859"/>
      <point x="484" y="923"/>
      <point x="484" y="1049" type="curve" smooth="yes"/>
      <point x="484" y="1161"/>
      <point x="568" y="1250"/>
      <point x="678" y="1250" type="curve" smooth="yes"/>
      <point x="794" y="1250"/>
      <point x="882" y="1155"/>
      <point x="882" y="1049" type="curve" smooth="yes"/>
      <point x="882" y="922"/>
      <point x="781" y="858"/>
    </contour>
    <contour>
      <point x="772" y="-401" type="line" name="❌"/>
      <point x="957" y="-401" type="line" name="❌"/>
      <point x="957" y="-46" type="line"/>
      <point x="772" y="-46" type="line"/>
    </contour>
  </outline>
</glyph>
<glyph name="nwa-ethiopic" format="2">
  <advance width="1062"/>
  <unicode hex="1297"/>
  <outline>
    <contour>
      <point x="582" y="-32" type="curve" smooth="yes"/>
      <point x="784" y="-32"/>
      <point x="856" y="-32"/>
      <point x="951" y="-32" type="curve"/>
      <point x="951" y="131" type="line"/>
      <point x="864" y="131"/>
      <point x="664" y="131"/>
      <point x="582" y="131" type="curve" smooth="yes"/>
      <point x="431" y="131"/>
      <point x="385" y="255"/>
      <point x="385" y="517" type="curve" smooth="yes"/>
      <point x="385" y="1082" type="line"/>
      <point x="200" y="1082" type="line"/>
      <point x="200" y="524" type="line" smooth="yes"/>
      <point x="200" y="187"/>
      <point x="290" y="-3"/>
    </contour>
    <contour>
      <point x="728" y="722" type="curve" smooth="yes"/>
      <point x="899" y="722"/>
      <point x="1021" y="843"/>
      <point x="1021" y="998" type="curve" smooth="yes"/>
      <point x="1021" y="1155"/>
      <point x="895" y="1280"/>
      <point x="728" y="1280" type="curve" smooth="yes"/>
      <point x="566" y="1280"/>
      <point x="442" y="1158"/>
      <point x="442" y="998" type="curve" smooth="yes"/>
      <point x="442" y="841"/>
      <point x="563" y="722"/>
    </contour>
    <contour>
      <point x="683" y="858" type="curve" smooth="yes"/>
      <point x="582" y="859"/>
      <point x="484" y="923"/>
      <point x="484" y="1049" type="curve" smooth="yes"/>
      <point x="484" y="1161"/>
      <point x="568" y="1250"/>
      <point x="678" y="1250" type="curve" smooth="yes"/>
      <point x="794" y="1250"/>
      <point x="882" y="1155"/>
      <point x="882" y="1049" type="curve" smooth="yes"/>
      <point x="882" y="922"/>
      <point x="781" y="858"/>
    </contour>
    <contour>
      <point x="470" y="-364" type="line"/>
      <point x="980" y="-364" type="line"/>
      <point x="980" y="-481" type="line"/>
      <point x="1110" y="-481" type="line"/>
      <point x="1110" y="-233" type="line"/>
      <point x="951" y="-233" type="line"/>
      <point x="951" y="-40" type="line"/>
      <point x="766" y="-40" type="line"/>
      <point x="766" y="-233" type="line"/>
      <point x="470" y="-233" type="line"/>
    </contour>
  </outline>
</glyph>
<glyph name="nyu-ethiopic" format="2">
  <advance width="907"/>
  <unicode hex="1299"/>
  <outline>
    <contour>
      <point x="582" y="0" type="line"/>
      <point x="768" y="0" type="line"/>
      <point x="768" y="558" type="line" smooth="yes"/>
      <point x="768" y="895"/>
      <point x="636" y="1083"/>
      <point x="386" y="1102" type="curve" smooth="yes"/>
      <point x="280" y="1110"/>
      <point x="154" y="1050"/>
      <point x="90" y="1008" type="curve"/>
      <point x="258" y="944" type="line"/>
      <point x="279" y="955"/>
      <point x="313" y="966"/>
      <point x="386" y="961" type="curve" smooth="yes"/>
      <point x="558" y="949"/>
      <point x="582" y="812"/>
      <point x="582" y="565" type="curve" smooth="yes"/>
    </contour>
    <contour>
      <point x="895" y="484" type="curve" smooth="yes"/>
      <point x="962" y="484"/>
      <point x="1019" y="539"/>
      <point x="1019" y="607" type="curve" smooth="yes"/>
      <point x="1019" y="674"/>
      <point x="962" y="731"/>
      <point x="895" y="731" type="curve" smooth="yes"/>
      <point x="827" y="731"/>
      <point x="772" y="674"/>
      <point x="772" y="607" type="curve" smooth="yes"/>
      <point x="772" y="539"/>
      <point x="827" y="484"/>
    </contour>
    <contour>
      <point x="90" y="1008" type="line"/>
      <point x="259" y="1008" type="line"/>
      <point x="259" y="1372" type="line"/>
      <point x="90" y="1372" type="line"/>
    </contour>
    <component base="_smart.hat.left" xOffset="277" yOffset="1304"/>
  </outline>
</glyph>
<glyph name="aGlottal-ethiopic" format="2">
  <advance width="1251"/>
  <unicode hex="12A0"/>
  <outline>
    <contour>
      <point x="200" y="0" type="line"/>
      <point x="385" y="0" type="line"/>
      <point x="385" y="771" type="line"/>
      <point x="436" y="875"/>
      <point x="529" y="945"/>
      <point x="649" y="945" type="curve" smooth="yes"/>
      <point x="797" y="945"/>
      <point x="866" y="872"/>
      <point x="866" y="716" type="curve" smooth="yes"/>
      <point x="866" y="0" type="line"/>
      <point x="1051" y="0" type="line"/>
      <point x="1051" y="715" type="line" smooth="yes"/>
      <point x="1051" y="973"/>
      <point x="934" y="1102"/>
      <point x="705" y="1102" type="curve" smooth="yes"/>
      <point x="574" y="1102"/>
      <point x="467" y="1052"/>
      <point x="385" y="951" type="curve"/>
      <point x="385" y="1094" type="line"/>
      <point x="565" y="1536" type="line"/>
      <point x="380" y="1536" type="line"/>
      <point x="200" y="1091" type="line"/>
    </contour>
    <contour>
      <point x="308" y="1372" type="line"/>
      <point x="115" y="1666" type="line"/>
      <point x="-109" y="1666" type="line"/>
      <point x="159" y="1372" type="line"/>
    </contour>
  </outline>
</glyph>
<glyph name="uGlottal-ethiopic" format="2">
  <advance width="1251"/>
  <unicode hex="12A1"/>
  <outline>
    <contour>
      <point x="200" y="0" type="line"/>
      <point x="385" y="0" type="line"/>
      <point x="385" y="771" type="line"/>
      <point x="436" y="875"/>
      <point x="529" y="945"/>
      <point x="649" y="945" type="curve" smooth="yes"/>
      <point x="797" y="945"/>
      <point x="866" y="872"/>
      <point x="866" y="716" type="curve" smooth="yes"/>
      <point x="866" y="0" type="line"/>
      <point x="1051" y="0" type="line"/>
      <point x="1051" y="715" type="line" smooth="yes"/>
      <point x="1051" y="973"/>
      <point x="934" y="1102"/>
      <point x="705" y="1102" type="curve" smooth="yes"/>
      <point x="574" y="1102"/>
      <point x="467" y="1052"/>
      <point x="385" y="951" type="curve"/>
      <point x="385" y="1094" type="line"/>
      <point x="565" y="1536" type="line"/>
      <point x="380" y="1536" type="line"/>
      <point x="200" y="1091" type="line"/>
    </contour>
    <contour>
      <point x="308" y="1372" type="line"/>
      <point x="115" y="1666" type="line"/>
      <point x="-109" y="1666" type="line"/>
      <point x="159" y="1372" type="line"/>
    </contour>
    <contour>
      <point x="1182" y="513" type="curve" smooth="yes"/>
      <point x="1249" y="513"/>
      <point x="1306" y="568"/>
      <point x="1306" y="636" type="curve" smooth="yes"/>
      <point x="1306" y="703"/>
      <point x="1249" y="760"/>
      <point x="1182" y="760" type="curve" smooth="yes"/>
      <point x="1114" y="760"/>
      <point x="1059" y="703"/>
      <point x="1059" y="636" type="curve" smooth="yes"/>
      <point x="1059" y="568"/>
      <point x="1114" y="513"/>
    </contour>
  </outline>
</glyph>
<glyph name="eGlottal-ethiopic" format="2">
  <advance width="1251"/>
  <unicode hex="12A5"/>
  <outline>
    <contour>
      <point x="200" y="0" type="line"/>
      <point x="385" y="0" type="line"/>
      <point x="385" y="771" type="line"/>
      <point x="436" y="875"/>
      <point x="529" y="945"/>
      <point x="649" y="945" type="curve" smooth="yes"/>
      <point x="797" y="945"/>
      <point x="866" y="872"/>
      <point x="866" y="716" type="curve" smooth="yes"/>
      <point x="866" y="0" type="line"/>
      <point x="1051" y="0" type="line"/>
      <point x="1051" y="715" type="line" smooth="yes"/>
      <point x="1051" y="973"/>
      <point x="934" y="1102"/>
      <point x="705" y="1102" type="curve" smooth="yes"/>
      <point x="574" y="1102"/>
      <point x="467" y="1052"/>
      <point x="385" y="951" type="curve"/>
      <point x="385" y="1094" type="line"/>
      <point x="565" y="1536" type="line"/>
      <point x="380" y="1536" type="line"/>
      <point x="200" y="1091" type="line"/>
    </contour>
    <contour>
      <point x="308" y="1372" type="line"/>
      <point x="115" y="1666" type="line"/>
      <point x="-109" y="1666" type="line"/>
      <point x="159" y="1372" type="line"/>
    </contour>
    <contour>
      <point x="305" y="1584" type="curve" smooth="yes"/>
      <point x="377" y="1584"/>
      <point x="415" y="1629"/>
      <point x="415" y="1689" type="curve" smooth="yes"/>
      <point x="415" y="1749"/>
      <point x="377" y="1796"/>
      <point x="305" y="1796" type="curve" smooth="yes"/>
      <point x="233" y="1796"/>
      <point x="196" y="1749"/>
      <point x="196" y="1689" type="curve" smooth="yes"/>
      <point x="196" y="1629"/>
      <point x="233" y="1584"/>
    </contour>
  </outline>
</glyph>
<glyph name="ku-ethiopic" format="2">
  <advance width="1251"/>
  <unicode hex="12A9"/>
  <outline>
    <contour>
      <point x="200" y="0" type="line"/>
      <point x="385" y="0" type="line"/>
      <point x="385" y="716" type="line" smooth="yes"/>
      <point x="385" y="862"/>
      <point x="487" y="945"/>
      <point x="649" y="945" type="curve" smooth="yes"/>
      <point x="797" y="945"/>
      <point x="866" y="872"/>
      <point x="866" y="716" type="curve" smooth="yes"/>
      <point x="866" y="0" type="line"/>
      <point x="1051" y="0" type="line"/>
      <point x="1051" y="715" type="line" smooth="yes"/>
      <point x="1051" y="973"/>
      <point x="872" y="1102"/>
      <point x="643" y="1102" type="curve" smooth="yes"/>
      <point x="379" y="1102"/>
      <point x="200" y="957"/>
      <point x="200" y="748" type="curve" smooth="yes"/>
    </contour>
    <contour>
      <point x="1178" y="519" type="curve" smooth="yes"/>
      <point x="1245" y="519"/>
      <point x="1302" y="574"/>
      <point x="1302" y="642" type="curve" smooth="yes"/>
      <point x="1302" y="709"/>
      <point x="1245" y="766"/>
      <point x="1178" y="766" type="curve" smooth="yes"/>
      <point x="1110" y="766"/>
      <point x="1055" y="709"/>
      <point x="1055" y="642" type="curve" smooth="yes"/>
      <point x="1055" y="574"/>
      <point x="1110" y="519"/>
    </contour>
    <contour>
      <point x="181" y="1029" type="line"/>
      <point x="611" y="1029" type="line"/>
      <point x="611" y="1101" type="line"/>
      <point x="334" y="1101" type="line"/>
      <point x="334" y="1359" type="line"/>
      <point x="181" y="1359" type="line"/>
    </contour>
  </outline>
</glyph>
<glyph name="ke-ethiopic" format="2">
  <advance width="1251"/>
  <unicode hex="12AD"/>
  <outline>
    <contour>
      <point x="200" y="0" type="line"/>
      <point x="385" y="0" type="line"/>
      <point x="385" y="716" type="line" smooth="yes"/>
      <point x="385" y="862"/>
      <point x="487" y="945"/>
      <point x="649" y="945" type="curve" smooth="yes"/>
      <point x="797" y="945"/>
      <point x="866" y="872"/>
      <point x="866" y="716" type="curve" smooth="yes"/>
      <point x="866" y="0" type="line"/>
      <point x="1051" y="0" type="line"/>
      <point x="1051" y="715" type="line" smooth="yes"/>
      <point x="1051" y="973"/>
      <point x="872" y="1102"/>
      <point x="643" y="1102" type="curve" smooth="yes"/>
      <point x="379" y="1102"/>
      <point x="200" y="957"/>
      <point x="200" y="748" type="curve" smooth="yes"/>
    </contour>
    <contour>
      <point x="181" y="1029" type="line"/>
      <point x="611" y="1029" type="line"/>
      <point x="611" y="1101" type="line"/>
      <point x="334" y="1101" type="line"/>
      <point x="334" y="1359" type="line"/>
      <point x="181" y="1359" type="line"/>
    </contour>
    <contour>
      <point x="501" y="455" type="curve" smooth="yes"/>
      <point x="573" y="455"/>
      <point x="611" y="500"/>
      <point x="611" y="560" type="curve" smooth="yes"/>
      <point x="611" y="620"/>
      <point x="573" y="667"/>
      <point x="501" y="667" type="curve" smooth="yes"/>
      <point x="429" y="667"/>
      <point x="392" y="620"/>
      <point x="392" y="560" type="curve" smooth="yes"/>
      <point x="392" y="500"/>
      <point x="429" y="455"/>
    </contour>
  </outline>
</glyph>
<glyph name="kwi-ethiopic" format="2">
  <advance width="1251"/>
  <unicode hex="12B2"/>
  <outline>
    <contour>
      <point x="200" y="0" type="line"/>
      <point x="385" y="0" type="line"/>
      <point x="385" y="716" type="line" smooth="yes"/>
      <point x="385" y="862"/>
      <point x="487" y="945"/>
      <point x="649" y="945" type="curve" smooth="yes"/>
      <point x="797" y="945"/>
      <point x="866" y="872"/>
      <point x="866" y="716" type="curve" smooth="yes"/>
      <point x="866" y="0" type="line"/>
      <point x="1051" y="0" type="line"/>
      <point x="1051" y="715" type="line" smooth="yes"/>
      <point x="1051" y="973"/>
      <point x="872" y="1102"/>
      <point x="643" y="1102" type="curve" smooth="yes"/>
      <point x="379" y="1102"/>
      <point x="200" y="957"/>
      <point x="200" y="748" type="curve" smooth="yes"/>
    </contour>
    <contour>
      <point x="181" y="1029" type="line"/>
      <point x="611" y="1029" type="line"/>
      <point x="611" y="1101" type="line"/>
      <point x="334" y="1101" type="line"/>
      <point x="334" y="1359" type="line"/>
      <point x="181" y="1359" type="line"/>
    </contour>
    <contour>
      <point x="570" y="-347" type="line"/>
      <point x="1080" y="-347" type="line"/>
      <point x="1080" y="-464" type="line"/>
      <point x="1210" y="-464" type="line"/>
      <point x="1210" y="-216" type="line"/>
      <point x="1051" y="-216" type="line"/>
      <point x="1051" y="-23" type="line"/>
      <point x="866" y="-23" type="line"/>
      <point x="866" y="-216" type="line"/>
      <point x="570" y="-216" type="line"/>
    </contour>
  </outline>
</glyph>
<glyph name="kxi-ethiopic" format="2">
  <advance width="1251"/>
  <unicode hex="12BA"/>
  <outline>
    <contour>
      <point x="200" y="0" type="line"/>
      <point x="385" y="0" type="line"/>
      <point x="385" y="716" type="line" smooth="yes"/>
      <point x="385" y="862"/>
      <point x="487" y="945"/>
      <point x="649" y="945" type="curve" smooth="yes"/>
      <point x="797" y="945"/>
      <point x="866" y="872"/>
      <point x="866" y="716" type="curve" smooth="yes"/>
      <point x="866" y="0" type="line"/>
      <point x="1051" y="0" type="line"/>
      <point x="1051" y="715" type="line" smooth="yes"/>
      <point x="1051" y="973"/>
      <point x="872" y="1102"/>
      <point x="643" y="1102" type="curve" smooth="yes"/>
      <point x="379" y="1102"/>
      <point x="200" y="957"/>
      <point x="200" y="748" type="curve" smooth="yes"/>
    </contour>
    <contour>
      <point x="1174" y="-13" type="curve" smooth="yes"/>
      <point x="1241" y="-13"/>
      <point x="1298" y="42"/>
      <point x="1298" y="110" type="curve" smooth="yes"/>
      <point x="1298" y="177"/>
      <point x="1241" y="234"/>
      <point x="1174" y="234" type="curve" smooth="yes"/>
      <point x="1106" y="234"/>
      <point x="1051" y="177"/>
      <point x="1051" y="110" type="curve" smooth="yes"/>
      <point x="1051" y="42"/>
      <point x="1106" y="-13"/>
    </contour>
    <contour>
      <point x="181" y="1029" type="line"/>
      <point x="611" y="1029" type="line"/>
      <point x="611" y="1101" type="line"/>
      <point x="334" y="1101" type="line"/>
      <point x="334" y="1359" type="line"/>
      <point x="181" y="1359" type="line"/>
    </contour>
    <component base="_smart.hat.left" xOffset="289" yOffset="1310"/>
  </outline>
</glyph>
<glyph name="kxee-ethiopic" format="2">
  <advance width="1251"/>
  <unicode hex="12BC"/>
  <outline>
    <contour>
      <point x="200" y="0" type="line"/>
      <point x="385" y="0" type="line"/>
      <point x="385" y="716" type="line" smooth="yes"/>
      <point x="385" y="862"/>
      <point x="487" y="945"/>
      <point x="649" y="945" type="curve" smooth="yes"/>
      <point x="797" y="945"/>
      <point x="866" y="872"/>
      <point x="866" y="716" type="curve" smooth="yes"/>
      <point x="866" y="0" type="line"/>
      <point x="1051" y="0" type="line"/>
      <point x="1051" y="715" type="line" smooth="yes"/>
      <point x="1051" y="973"/>
      <point x="872" y="1102"/>
      <point x="643" y="1102" type="curve" smooth="yes"/>
      <point x="379" y="1102"/>
      <point x="200" y="957"/>
      <point x="200" y="748" type="curve" smooth="yes"/>
    </contour>
    <contour>
      <point x="808" y="-435" type="curve" smooth="yes"/>
      <point x="973" y="-435"/>
      <point x="1094" y="-316"/>
      <point x="1094" y="-159" type="curve" smooth="yes"/>
      <point x="1094" y="1"/>
      <point x="970" y="123"/>
      <point x="808" y="123" type="curve" smooth="yes"/>
      <point x="641" y="123"/>
      <point x="515" y="-2"/>
      <point x="515" y="-159" type="curve" smooth="yes"/>
      <point x="515" y="-314"/>
      <point x="637" y="-435"/>
    </contour>
    <contour>
      <point x="853" y="-405" type="curve" smooth="yes"/>
      <point x="755" y="-405"/>
      <point x="654" y="-341"/>
      <point x="654" y="-214" type="curve" smooth="yes"/>
      <point x="654" y="-108"/>
      <point x="742" y="-13"/>
      <point x="858" y="-13" type="curve" smooth="yes"/>
      <point x="968" y="-13"/>
      <point x="1052" y="-102"/>
      <point x="1052" y="-214" type="curve" smooth="yes"/>
      <point x="1052" y="-340"/>
      <point x="954" y="-404"/>
    </contour>
    <contour>
      <point x="181" y="1029" type="line"/>
      <point x="611" y="1029" type="line"/>
      <point x="611" y="1101" type="line"/>
      <point x="334" y="1101" type="line"/>
      <point x="334" y="1359" type="line"/>
      <point x="181" y="1359" type="line"/>
    </contour>
    <component base="_smart.hat.left" xOffset="289" yOffset="1310"/>
  </outline>
</glyph>
<glyph name="kxwe-ethiopic" format="2">
  <advance width="1251"/>
  <unicode hex="12C5"/>
  <outline>
    <contour>
      <point x="200" y="0" type="line"/>
      <point x="385" y="0" type="line"/>
      <point x="385" y="716" type="line" smooth="yes"/>
      <point x="385" y="862"/>
      <point x="487" y="945"/>
      <point x="649" y="945" type="curve" smooth="yes"/>
      <point x="797" y="945"/>
      <point x="866" y="872"/>
      <point x="866" y="716" type="curve" smooth="yes"/>
      <point x="866" y="0" type="line"/>
      <point x="1051" y="0" type="line"/>
      <point x="1051" y="715" type="line" smooth="yes"/>
      <point x="1051" y="973"/>
      <point x="872" y="1102"/>
      <point x="643" y="1102" type="curve" smooth="yes"/>
      <point x="379" y="1102"/>
      <point x="200" y="957"/>
      <point x="200" y="748" type="curve" smooth="yes"/>
    </contour>
    <contour>
      <point x="181" y="1029" type="line"/>
      <point x="611" y="1029" type="line"/>
      <point x="611" y="1101" type="line"/>
      <point x="334" y="1101" type="line"/>
      <point x="334" y="1359" type="line"/>
      <point x="181" y="1359" type="line"/>
    </contour>
    <contour>
      <point x="-26" y="1362" type="line"/>
      <point x="599" y="1362" type="line"/>
      <point x="599" y="1444" type="line"/>
      <point x="-26" y="1444" type="line"/>
    </contour>
    <component base="_smart.hwa" xOffset="961" yOffset="-387"/>
  </outline>
</glyph>
<glyph name="aPharyngeal-ethiopic" format="2">
  <advance width="1285"/>
  <unicode hex="12D0"/>
  <outline>
    <contour>
      <point x="643" y="-20" type="curve" smooth="yes"/>
      <point x="838" y="-20"/>
      <point x="994" y="78"/>
      <point x="1075" y="246" type="curve" smooth="yes"/>
      <point x="1115" y="329"/>
      <point x="1135" y="424"/>
      <point x="1135" y="529" type="curve" smooth="yes"/>
      <point x="1135" y="542" type="line" smooth="yes"/>
      <point x="1135" y="881"/>
      <point x="936" y="1102"/>
      <point x="641" y="1102" type="curve" smooth="yes"/>
      <point x="450" y="1102"/>
      <point x="296" y="1006"/>
      <point x="213" y="837" type="curve" smooth="yes"/>
      <point x="171" y="752"/>
      <point x="150" y="657"/>
      <point x="150" y="551" type="curve" smooth="yes"/>
      <point x="150" y="538" type="line" smooth="yes"/>
      <point x="150" y="202"/>
      <point x="350" y="-20"/>
    </contour>
    <contour>
      <point x="643" y="131" type="curve" smooth="yes"/>
      <point x="456" y="131"/>
      <point x="336" y="289"/>
      <point x="336" y="529" type="curve" smooth="yes"/>
      <point x="336" y="800"/>
      <point x="458" y="950"/>
      <point x="641" y="950" type="curve" smooth="yes"/>
      <point x="828" y="950"/>
      <point x="950" y="788"/>
      <point x="950" y="551" type="curve" smooth="yes"/>
      <point x="950" y="286"/>
      <point x="831" y="131"/>
    </contour>
  </outline>
</glyph>
<glyph name="uPharyngeal-ethiopic" format="2">
  <advance width="1285"/>
  <unicode hex="12D1"/>
  <outline>
    <contour>
      <point x="643" y="-20" type="curve" smooth="yes"/>
      <point x="838" y="-20"/>
      <point x="994" y="78"/>
      <point x="1075" y="246" type="curve" smooth="yes"/>
      <point x="1115" y="329"/>
      <point x="1135" y="424"/>
      <point x="1135" y="529" type="curve" smooth="yes"/>
      <point x="1135" y="542" type="line" smooth="yes"/>
      <point x="1135" y="881"/>
      <point x="936" y="1102"/>
      <point x="641" y="1102" type="curve" smooth="yes"/>
      <point x="450" y="1102"/>
      <point x="296" y="1006"/>
      <point x="213" y="837" type="curve" smooth="yes"/>
      <point x="171" y="752"/>
      <point x="150" y="657"/>
      <point x="150" y="551" type="curve" smooth="yes"/>
      <point x="150" y="538" type="line" smooth="yes"/>
      <point x="150" y="202"/>
      <point x="350" y="-20"/>
    </contour>
    <contour>
      <point x="643" y="131" type="curve" smooth="yes"/>
      <point x="456" y="131"/>
      <point x="336" y="289"/>
      <point x="336" y="529" type="curve" smooth="yes"/>
      <point x="336" y="800"/>
      <point x="458" y="950"/>
      <point x="641" y="950" type="curve" smooth="yes"/>
      <point x="828" y="950"/>
      <point x="950" y="788"/>
      <point x="950" y="551" type="curve" smooth="yes"/>
      <point x="950" y="286"/>
      <point x="831" y="131"/>
    </contour>
    <contour>
      <point x="1221" y="697" type="curve" smooth="yes"/>
      <point x="1288" y="697"/>
      <point x="1345" y="752"/>
      <point x="1345" y="820" type="curve" smooth="yes"/>
      <point x="1345" y="887"/>
      <point x="1288" y="944"/>
      <point x="1221" y="944" type="curve" smooth="yes"/>
      <point x="1153" y="944"/>
      <point x="1098" y="887"/>
      <point x="1098" y="820" type="curve" smooth="yes"/>
      <point x="1098" y="752"/>
      <point x="1153" y="697"/>
    </contour>
  </outline>
</glyph>
<glyph name="eePharyngeal-ethiopic" format="2">
  <advance width="1285"/>
  <unicode hex="12D4"/>
  <outline>
    <contour>
      <point x="643" y="-20" type="curve" smooth="yes"/>
      <point x="838" y="-20"/>
      <point x="994" y="78"/>
      <point x="1075" y="246" type="curve" smooth="yes"/>
      <point x="1115" y="329"/>
      <point x="1135" y="424"/>
      <point x="1135" y="529" type="curve" smooth="yes"/>
      <point x="1135" y="542" type="line" smooth="yes"/>
      <point x="1135" y="881"/>
      <point x="936" y="1102"/>
      <point x="641" y="1102" type="curve" smooth="yes"/>
      <point x="450" y="1102"/>
      <point x="296" y="1006"/>
      <point x="213" y="837" type="curve" smooth="yes"/>
      <point x="171" y="752"/>
      <point x="150" y="657"/>
      <point x="150" y="551" type="curve" smooth="yes"/>
      <point x="150" y="538" type="line" smooth="yes"/>
      <point x="150" y="202"/>
      <point x="350" y="-20"/>
    </contour>
    <contour>
      <point x="643" y="131" type="curve" smooth="yes"/>
      <point x="456" y="131"/>
      <point x="336" y="289"/>
      <point x="336" y="529" type="curve" smooth="yes"/>
      <point x="336" y="800"/>
      <point x="458" y="950"/>
      <point x="641" y="950" type="curve" smooth="yes"/>
      <point x="828" y="950"/>
      <point x="950" y="788"/>
      <point x="950" y="551" type="curve" smooth="yes"/>
      <point x="950" y="286"/>
      <point x="831" y="131"/>
    </contour>
    <contour>
      <point x="817" y="-534" type="curve" smooth="yes"/>
      <point x="982" y="-534"/>
      <point x="1103" y="-415"/>
      <point x="1103" y="-258" type="curve" smooth="yes"/>
      <point x="1103" y="-98"/>
      <point x="979" y="24"/>
      <point x="817" y="24" type="curve" smooth="yes"/>
      <point x="650" y="24"/>
      <point x="524" y="-101"/>
      <point x="524" y="-258" type="curve" smooth="yes"/>
      <point x="524" y="-413"/>
      <point x="646" y="-534"/>
    </contour>
    <contour>
      <point x="862" y="-504" type="curve" smooth="yes"/>
      <point x="764" y="-504"/>
      <point x="663" y="-440"/>
      <point x="663" y="-313" type="curve" smooth="yes"/>
      <point x="663" y="-207"/>
      <point x="751" y="-112"/>
      <point x="867" y="-112" type="curve" smooth="yes"/>
      <point x="977" y="-112"/>
      <point x="1061" y="-201"/>
      <point x="1061" y="-313" type="curve" smooth="yes"/>
      <point x="1061" y="-439"/>
      <point x="963" y="-503"/>
    </contour>
  </outline>
</glyph>
<glyph name="za-ethiopic" format="2">
  <advance width="1205"/>
  <unicode hex="12D8"/>
  <outline>
    <contour>
      <point x="200" y="0" type="line"/>
      <point x="385" y="0" type="line"/>
      <point x="385" y="521" type="line"/>
      <point x="820" y="521" type="line"/>
      <point x="820" y="0" type="line"/>
      <point x="1005" y="0" type="line"/>
      <point x="1005" y="1082" type="line"/>
      <point x="820" y="1082" type="line"/>
      <point x="820" y="672" type="line"/>
      <point x="385" y="672" type="line"/>
      <point x="385" y="1082" type="line"/>
      <point x="200" y="1082" type="line"/>
    </contour>
  </outline>
</glyph>
<glyph name="zu-ethiopic" format="2">
  <advance width="1205"/>
  <unicode hex="12D9"/>
  <outline>
    <contour>
      <point x="200" y="0" type="line"/>
      <point x="385" y="0" type="line"/>
      <point x="385" y="521" type="line"/>
      <point x="820" y="521" type="line"/>
      <point x="820" y="0" type="line"/>
      <point x="1005" y="0" type="line"/>
      <point x="1005" y="1082" type="line"/>
      <point x="820" y="1082" type="line"/>
      <point x="820" y="672" type="line"/>
      <point x="385" y="672" type="line"/>
      <point x="385" y="1082" type="line"/>
      <point x="200" y="1082" type="line"/>
    </contour>
    <contour>
      <point x="1149" y="527" type="curve" smooth="yes"/>
      <point x="1216" y="527"/>
      <point x="1273" y="582"/>
      <point x="1273" y="650" type="curve" smooth="yes"/>
      <point x="1273" y="717"/>
      <point x="1216" y="774"/>
      <point x="1149" y="774" type="curve" smooth="yes"/>
      <point x="1081" y="774"/>
      <point x="1026" y="717"/>
      <point x="1026" y="650" type="curve" smooth="yes"/>
      <point x="1026" y="582"/>
      <point x="1081" y="527"/>
    </contour>
  </outline>
</glyph>
<glyph name="zi-ethiopic" format="2">
  <advance width="1205"/>
  <unicode hex="12DA"/>
  <outline>
    <contour>
      <point x="200" y="0" type="line"/>
      <point x="385" y="0" type="line"/>
      <point x="385" y="521" type="line"/>
      <point x="820" y="521" type="line"/>
      <point x="820" y="0" type="line"/>
      <point x="1005" y="0" type="line"/>
      <point x="1005" y="1082" type="line"/>
      <point x="820" y="1082" type="line"/>
      <point x="820" y="672" type="line"/>
      <point x="385" y="672" type="line"/>
      <point x="385" y="1082" type="line"/>
      <point x="200" y="1082" type="line"/>
    </contour>
    <contour>
      <point x="1099" y="-6" type="curve" smooth="yes"/>
      <point x="1166" y="-6"/>
      <point x="1223" y="49"/>
      <point x="1223" y="117" type="curve" smooth="yes"/>
      <point x="1223" y="184"/>
      <point x="1166" y="241"/>
      <point x="1099" y="241" type="curve" smooth="yes"/>
      <point x="1031" y="241"/>
      <point x="976" y="184"/>
      <point x="976" y="117" type="curve" smooth="yes"/>
      <point x="976" y="49"/>
      <point x="1031" y="-6"/>
    </contour>
  </outline>
</glyph>
<glyph name="zee-ethiopic" format="2">
  <advance width="1205"/>
  <unicode hex="12DC"/>
  <outline>
    <contour>
      <point x="200" y="0" type="line"/>
      <point x="385" y="0" type="line"/>
      <point x="385" y="521" type="line"/>
      <point x="820" y="521" type="line"/>
      <point x="820" y="0" type="line"/>
      <point x="1005" y="0" type="line"/>
      <point x="1005" y="1082" type="line"/>
      <point x="820" y="1082" type="line"/>
      <point x="820" y="672" type="line"/>
      <point x="385" y="672" type="line"/>
      <point x="385" y="1082" type="line"/>
      <point x="200" y="1082" type="line"/>
    </contour>
    <contour>
      <point x="762" y="-427" type="curve" smooth="yes"/>
      <point x="927" y="-427"/>
      <point x="1048" y="-308"/>
      <point x="1048" y="-151" type="curve" smooth="yes"/>
      <point x="1048" y="9"/>
      <point x="924" y="131"/>
      <point x="762" y="131" type="curve" smooth="yes"/>
      <point x="595" y="131"/>
      <point x="469" y="6"/>
      <point x="469" y="-151" type="curve" smooth="yes"/>
      <point x="469" y="-306"/>
      <point x="591" y="-427"/>
    </contour>
    <contour>
      <point x="807" y="-397" type="curve" smooth="yes"/>
      <point x="709" y="-397"/>
      <point x="608" y="-333"/>
      <point x="608" y="-206" type="curve" smooth="yes"/>
      <point x="608" y="-100"/>
      <point x="696" y="-5"/>
      <point x="812" y="-5" type="curve" smooth="yes"/>
      <point x="922" y="-5"/>
      <point x="1006" y="-94"/>
      <point x="1006" y="-206" type="curve" smooth="yes"/>
      <point x="1006" y="-332"/>
      <point x="908" y="-396"/>
    </contour>
  </outline>
</glyph>
<glyph name="ze-ethiopic" format="2">
  <advance width="1205"/>
  <unicode hex="12DD"/>
  <outline>
    <contour>
      <point x="200" y="0" type="line"/>
      <point x="385" y="0" type="line"/>
      <point x="385" y="521" type="line"/>
      <point x="820" y="521" type="line"/>
      <point x="820" y="0" type="line"/>
      <point x="1005" y="0" type="line"/>
      <point x="1005" y="1082" type="line"/>
      <point x="820" y="1082" type="line"/>
      <point x="820" y="672" type="line"/>
      <point x="385" y="672" type="line"/>
      <point x="385" y="1082" type="line"/>
      <point x="200" y="1082" type="line"/>
    </contour>
    <contour>
      <point x="390" y="1168" type="line"/>
      <point x="197" y="1462" type="line"/>
      <point x="-27" y="1462" type="line"/>
      <point x="241" y="1168" type="line"/>
    </contour>
  </outline>
</glyph>
<glyph name="zo-ethiopic" format="2">
  <advance width="1205"/>
  <unicode hex="12DE"/>
  <outline>
    <contour>
      <point x="200" y="0" type="line"/>
      <point x="385" y="0" type="line"/>
      <point x="385" y="521" type="line"/>
      <point x="820" y="521" type="line"/>
      <point x="820" y="0" type="line"/>
      <point x="1005" y="0" type="line"/>
      <point x="1005" y="1082" type="line"/>
      <point x="820" y="1082" type="line"/>
      <point x="820" y="672" type="line"/>
      <point x="385" y="672" type="line"/>
      <point x="385" y="1082" type="line"/>
      <point x="200" y="1082" type="line"/>
    </contour>
    <contour>
      <point x="199" y="-364" type="line"/>
      <point x="384" y="-364" type="line"/>
      <point x="384" y="-10" type="line"/>
      <point x="199" y="-10" type="line"/>
    </contour>
  </outline>
</glyph>
<glyph name="zwa-ethiopic" format="2">
  <advance width="1205"/>
  <unicode hex="12DF"/>
  <outline>
    <contour>
      <point x="200" y="0" type="line"/>
      <point x="385" y="0" type="line"/>
      <point x="385" y="521" type="line"/>
      <point x="820" y="521" type="line"/>
      <point x="820" y="0" type="line"/>
      <point x="1005" y="0" type="line"/>
      <point x="1005" y="1082" type="line"/>
      <point x="820" y="1082" type="line"/>
      <point x="820" y="672" type="line"/>
      <point x="385" y="672" type="line"/>
      <point x="385" y="1082" type="line"/>
      <point x="200" y="1082" type="line"/>
    </contour>
    <contour>
      <point x="524" y="-358" type="line"/>
      <point x="1034" y="-358" type="line"/>
      <point x="1034" y="-475" type="line"/>
      <point x="1164" y="-475" type="line"/>
      <point x="1164" y="-227" type="line"/>
      <point x="1005" y="-227" type="line"/>
      <point x="1005" y="-34" type="line"/>
      <point x="820" y="-34" type="line"/>
      <point x="820" y="-227" type="line"/>
      <point x="524" y="-227" type="line"/>
    </contour>
  </outline>
</glyph>
<glyph name="yi-ethiopic" format="2">
  <advance width="1136"/>
  <unicode hex="12EA"/>
  <outline>
    <contour>
      <point x="310" y="0" type="line"/>
      <point x="498" y="0" type="line"/>
      <point x="378" y="488" type="line"/>
      <point x="952" y="488" type="line" smooth="yes"/>
      <point x="1003" y="488"/>
      <point x="1042" y="519"/>
      <point x="1048" y="565" type="curve" smooth="yes"/>
      <point x="1092" y="907"/>
      <point x="944" y="1102"/>
      <point x="663" y="1102" type="curve" smooth="yes"/>
      <point x="491" y="1102"/>
      <point x="334" y="1001"/>
      <point x="252" y="833" type="curve" smooth="yes"/>
      <point x="211" y="748"/>
      <point x="164" y="602"/>
      <point x="190" y="495" type="curve" smooth="yes"/>
    </contour>
    <contour>
      <point x="381" y="630" type="line"/>
      <point x="405" y="836"/>
      <point x="514" y="950"/>
      <point x="663" y="950" type="curve" smooth="yes"/>
      <point x="838" y="950"/>
      <point x="901" y="832"/>
      <point x="882" y="630" type="curve"/>
    </contour>
    <contour>
      <point x="300" y="236" type="line"/>
      <point x="735" y="236" type="line"/>
      <point x="735" y="387" type="line"/>
      <point x="300" y="387" type="line"/>
    </contour>
    <contour>
      <point x="822" y="117" type="curve" smooth="yes"/>
      <point x="894" y="117"/>
      <point x="932" y="162"/>
      <point x="932" y="222" type="curve" smooth="yes"/>
      <point x="932" y="282"/>
      <point x="894" y="329"/>
      <point x="822" y="329" type="curve" smooth="yes"/>
      <point x="750" y="329"/>
      <point x="713" y="282"/>
      <point x="713" y="222" type="curve" smooth="yes"/>
      <point x="713" y="162"/>
      <point x="750" y="117"/>
    </contour>
  </outline>
</glyph>
<glyph name="yee-ethiopic" format="2">
  <advance width="1136"/>
  <unicode hex="12EC"/>
  <outline>
    <contour>
      <point x="310" y="0" type="line"/>
      <point x="498" y="0" type="line"/>
      <point x="378" y="488" type="line"/>
      <point x="952" y="488" type="line" smooth="yes"/>
      <point x="1003" y="488"/>
      <point x="1042" y="519"/>
      <point x="1048" y="565" type="curve" smooth="yes"/>
      <point x="1092" y="907"/>
      <point x="944" y="1102"/>
      <point x="663" y="1102" type="curve" smooth="yes"/>
      <point x="491" y="1102"/>
      <point x="334" y="1001"/>
      <point x="252" y="833" type="curve" smooth="yes"/>
      <point x="211" y="748"/>
      <point x="164" y="602"/>
      <point x="190" y="495" type="curve" smooth="yes"/>
    </contour>
    <contour>
      <point x="381" y="630" type="line"/>
      <point x="405" y="836"/>
      <point x="514" y="950"/>
      <point x="663" y="950" type="curve" smooth="yes"/>
      <point x="838" y="950"/>
      <point x="901" y="832"/>
      <point x="882" y="630" type="curve"/>
    </contour>
    <contour>
      <point x="668" y="47" type="curve" smooth="yes"/>
      <point x="789" y="47"/>
      <point x="883" y="135"/>
      <point x="883" y="251" type="curve" smooth="yes"/>
      <point x="883" y="366"/>
      <point x="791" y="459"/>
      <point x="668" y="459" type="curve" smooth="yes"/>
      <point x="545" y="459"/>
      <point x="453" y="366"/>
      <point x="453" y="251" type="curve" smooth="yes"/>
      <point x="453" y="136"/>
      <point x="545" y="47"/>
    </contour>
    <contour>
      <point x="668" y="136" type="curve" smooth="yes"/>
      <point x="603" y="136"/>
      <point x="552" y="188"/>
      <point x="552" y="251" type="curve" smooth="yes"/>
      <point x="552" y="315"/>
      <point x="601" y="369"/>
      <point x="668" y="369" type="curve" smooth="yes"/>
      <point x="745" y="369"/>
      <point x="783" y="311"/>
      <point x="783" y="253" type="curve" smooth="yes"/>
      <point x="783" y="195"/>
      <point x="745" y="136"/>
    </contour>
  </outline>
</glyph>
<glyph name="ye-ethiopic" format="2">
  <advance width="1136"/>
  <unicode hex="12ED"/>
  <outline>
    <contour>
      <point x="310" y="0" type="line"/>
      <point x="498" y="0" type="line"/>
      <point x="378" y="488" type="line"/>
      <point x="952" y="488" type="line" smooth="yes"/>
      <point x="1003" y="488"/>
      <point x="1042" y="519"/>
      <point x="1048" y="565" type="curve" smooth="yes"/>
      <point x="1092" y="907"/>
      <point x="944" y="1102"/>
      <point x="663" y="1102" type="curve" smooth="yes"/>
      <point x="491" y="1102"/>
      <point x="334" y="1001"/>
      <point x="252" y="833" type="curve" smooth="yes"/>
      <point x="211" y="748"/>
      <point x="164" y="602"/>
      <point x="190" y="495" type="curve" smooth="yes"/>
    </contour>
    <contour>
      <point x="381" y="630" type="line"/>
      <point x="405" y="836"/>
      <point x="514" y="950"/>
      <point x="663" y="950" type="curve" smooth="yes"/>
      <point x="838" y="950"/>
      <point x="901" y="832"/>
      <point x="882" y="630" type="curve"/>
    </contour>
    <contour>
      <point x="123" y="-189" type="curve"/>
      <point x="247" y="-189" type="line"/>
      <point x="247" y="-124"/>
      <point x="274" y="-83"/>
      <point x="346" y="-83" type="curve" smooth="yes"/>
      <point x="472" y="-83"/>
      <point x="648" y="-83"/>
      <point x="795" y="-83" type="curve" smooth="yes"/>
      <point x="930" y="-83"/>
      <point x="951" y="266"/>
      <point x="951" y="322" type="curve"/>
      <point x="827" y="322" type="line"/>
      <point x="827" y="253"/>
      <point x="834" y="30"/>
      <point x="766" y="30" type="curve" smooth="yes"/>
      <point x="665" y="30"/>
      <point x="457" y="30"/>
      <point x="337" y="30" type="curve" smooth="yes"/>
      <point x="208" y="30"/>
      <point x="123" y="-39"/>
    </contour>
  </outline>
</glyph>
<glyph name="yoa-ethiopic" format="2">
  <advance width="1136"/>
  <unicode hex="12EF"/>
  <outline>
    <contour>
      <point x="310" y="0" type="line"/>
      <point x="498" y="0" type="line"/>
      <point x="378" y="488" type="line"/>
      <point x="952" y="488" type="line" smooth="yes"/>
      <point x="1003" y="488"/>
      <point x="1042" y="519"/>
      <point x="1048" y="565" type="curve" smooth="yes"/>
      <point x="1092" y="907"/>
      <point x="944" y="1102"/>
      <point x="663" y="1102" type="curve" smooth="yes"/>
      <point x="491" y="1102"/>
      <point x="334" y="1001"/>
      <point x="252" y="833" type="curve" smooth="yes"/>
      <point x="211" y="748"/>
      <point x="164" y="602"/>
      <point x="190" y="495" type="curve" smooth="yes"/>
    </contour>
    <contour>
      <point x="381" y="630" type="line"/>
      <point x="405" y="836"/>
      <point x="514" y="950"/>
      <point x="663" y="950" type="curve" smooth="yes"/>
      <point x="838" y="950"/>
      <point x="901" y="832"/>
      <point x="882" y="630" type="curve"/>
    </contour>
    <contour>
      <point x="1172" y="651" type="curve" smooth="yes"/>
      <point x="1244" y="651"/>
      <point x="1282" y="696"/>
      <point x="1282" y="756" type="curve" smooth="yes"/>
      <point x="1282" y="816"/>
      <point x="1244" y="863"/>
      <point x="1172" y="863" type="curve" smooth="yes"/>
      <point x="1100" y="863"/>
      <point x="1063" y="816"/>
      <point x="1063" y="756" type="curve" smooth="yes"/>
      <point x="1063" y="696"/>
      <point x="1100" y="651"/>
    </contour>
    <contour>
      <point x="197" y="865" type="curve" smooth="yes"/>
      <point x="269" y="865"/>
      <point x="307" y="910"/>
      <point x="307" y="970" type="curve" smooth="yes"/>
      <point x="307" y="1030"/>
      <point x="269" y="1077"/>
      <point x="197" y="1077" type="curve" smooth="yes"/>
      <point x="125" y="1077"/>
      <point x="88" y="1030"/>
      <point x="88" y="970" type="curve" smooth="yes"/>
      <point x="88" y="910"/>
      <point x="125" y="865"/>
    </contour>
  </outline>
</glyph>
<glyph name="ge-ethiopic" format="2">
  <advance width="907"/>
  <unicode hex="130D"/>
  <outline>
    <contour>
      <point x="582" y="0" type="line"/>
      <point x="768" y="0" type="line"/>
      <point x="768" y="558" type="line" smooth="yes"/>
      <point x="768" y="895"/>
      <point x="636" y="1083"/>
      <point x="386" y="1102" type="curve" smooth="yes"/>
      <point x="280" y="1110"/>
      <point x="154" y="1050"/>
      <point x="90" y="1008" type="curve"/>
      <point x="258" y="944" type="line"/>
      <point x="279" y="955"/>
      <point x="313" y="966"/>
      <point x="386" y="961" type="curve" smooth="yes"/>
      <point x="558" y="949"/>
      <point x="582" y="812"/>
      <point x="582" y="565" type="curve" smooth="yes"/>
    </contour>
    <contour>
      <point x="54" y="474" type="curve" smooth="yes"/>
      <point x="225" y="474"/>
      <point x="347" y="595"/>
      <point x="347" y="750" type="curve" smooth="yes"/>
      <point x="347" y="907"/>
      <point x="221" y="1032"/>
      <point x="54" y="1032" type="curve" smooth="yes"/>
      <point x="-108" y="1032"/>
      <point x="-232" y="910"/>
      <point x="-232" y="750" type="curve" smooth="yes"/>
      <point x="-232" y="593"/>
      <point x="-111" y="474"/>
    </contour>
    <contour>
      <point x="9" y="610" type="curve" smooth="yes"/>
      <point x="-92" y="611"/>
      <point x="-190" y="675"/>
      <point x="-190" y="801" type="curve" smooth="yes"/>
      <point x="-190" y="913"/>
      <point x="-106" y="1002"/>
      <point x="4" y="1002" type="curve" smooth="yes"/>
      <point x="120" y="1002"/>
      <point x="208" y="907"/>
      <point x="208" y="801" type="curve" smooth="yes"/>
      <point x="208" y="674"/>
      <point x="107" y="610"/>
    </contour>
  </outline>
</glyph>
<glyph name="gge-ethiopic" format="2">
  <advance width="907"/>
  <unicode hex="131D"/>
  <outline>
    <contour>
      <point x="582" y="0" type="line"/>
      <point x="768" y="0" type="line"/>
      <point x="768" y="558" type="line" smooth="yes"/>
      <point x="768" y="895"/>
      <point x="636" y="1083"/>
      <point x="386" y="1102" type="curve" smooth="yes"/>
      <point x="280" y="1110"/>
      <point x="154" y="1050"/>
      <point x="90" y="1008" type="curve"/>
      <point x="258" y="944" type="line"/>
      <point x="279" y="955"/>
      <point x="313" y="966"/>
      <point x="386" y="961" type="curve" smooth="yes"/>
      <point x="558" y="949"/>
      <point x="582" y="812"/>
      <point x="582" y="565" type="curve" smooth="yes"/>
    </contour>
    <contour>
      <point x="20" y="1407" type="line"/>
      <point x="645" y="1407" type="line"/>
      <point x="645" y="1489" type="line"/>
      <point x="20" y="1489" type="line"/>
    </contour>
    <contour>
      <point x="54" y="474" type="curve" smooth="yes"/>
      <point x="225" y="474"/>
      <point x="347" y="595"/>
      <point x="347" y="750" type="curve" smooth="yes"/>
      <point x="347" y="907"/>
      <point x="221" y="1032"/>
      <point x="54" y="1032" type="curve" smooth="yes"/>
      <point x="-108" y="1032"/>
      <point x="-232" y="910"/>
      <point x="-232" y="750" type="curve" smooth="yes"/>
      <point x="-232" y="593"/>
      <point x="-111" y="474"/>
    </contour>
    <contour>
      <point x="9" y="610" type="curve" smooth="yes"/>
      <point x="-92" y="611"/>
      <point x="-190" y="675"/>
      <point x="-190" y="801" type="curve" smooth="yes"/>
      <point x="-190" y="913"/>
      <point x="-106" y="1002"/>
      <point x="4" y="1002" type="curve" smooth="yes"/>
      <point x="120" y="1002"/>
      <point x="208" y="907"/>
      <point x="208" y="801" type="curve" smooth="yes"/>
      <point x="208" y="674"/>
      <point x="107" y="610"/>
    </contour>
    <component base="_smart.neck" xOffset="375" yOffset="1096"/>
  </outline>
</glyph>
<glyph name="ggo-ethiopic" format="2">
  <advance width="907"/>
  <unicode hex="131E"/>
  <outline>
    <contour>
      <point x="582" y="0" type="line"/>
      <point x="768" y="0" type="line"/>
      <point x="768" y="558" type="line" smooth="yes"/>
      <point x="768" y="895"/>
      <point x="636" y="1083"/>
      <point x="386" y="1102" type="curve" smooth="yes"/>
      <point x="280" y="1110"/>
      <point x="154" y="1050"/>
      <point x="90" y="1008" type="curve"/>
      <point x="258" y="944" type="line"/>
      <point x="279" y="955"/>
      <point x="313" y="966"/>
      <point x="386" y="961" type="curve" smooth="yes"/>
      <point x="558" y="949"/>
      <point x="582" y="812"/>
      <point x="582" y="565" type="curve" smooth="yes"/>
    </contour>
    <contour>
      <point x="20" y="1407" type="line"/>
      <point x="645" y="1407" type="line"/>
      <point x="645" y="1489" type="line"/>
      <point x="20" y="1489" type="line"/>
    </contour>
    <contour>
      <point x="345" y="1059" type="curve" smooth="yes"/>
      <point x="466" y="1059"/>
      <point x="560" y="1147"/>
      <point x="560" y="1263" type="curve" smooth="yes"/>
      <point x="560" y="1378"/>
      <point x="468" y="1471"/>
      <point x="345" y="1471" type="curve" smooth="yes"/>
      <point x="222" y="1471"/>
      <point x="130" y="1378"/>
      <point x="130" y="1263" type="curve" smooth="yes"/>
      <point x="130" y="1148"/>
      <point x="222" y="1059"/>
    </contour>
    <contour>
      <point x="345" y="1148" type="curve" smooth="yes"/>
      <point x="280" y="1148"/>
      <point x="229" y="1200"/>
      <point x="229" y="1263" type="curve" smooth="yes"/>
      <point x="229" y="1327"/>
      <point x="278" y="1381"/>
      <point x="345" y="1381" type="curve" smooth="yes"/>
      <point x="422" y="1381"/>
      <point x="460" y="1323"/>
      <point x="460" y="1265" type="curve" smooth="yes"/>
      <point x="460" y="1207"/>
      <point x="422" y="1148"/>
    </contour>
  </outline>
</glyph>
<glyph name="ggwaa-ethiopic" format="2">
  <advance width="907"/>
  <unicode hex="131F"/>
  <outline>
    <contour>
      <point x="582" y="0" type="line"/>
      <point x="768" y="0" type="line"/>
      <point x="768" y="558" type="line" smooth="yes"/>
      <point x="768" y="895"/>
      <point x="636" y="1083"/>
      <point x="386" y="1102" type="curve" smooth="yes"/>
      <point x="280" y="1110"/>
      <point x="154" y="1050"/>
      <point x="90" y="1008" type="curve"/>
      <point x="258" y="944" type="line"/>
      <point x="279" y="955"/>
      <point x="313" y="966"/>
      <point x="386" y="961" type="curve" smooth="yes"/>
      <point x="558" y="949"/>
      <point x="582" y="812"/>
      <point x="582" y="565" type="curve" smooth="yes"/>
    </contour>
    <contour>
      <point x="294" y="1072" type="line"/>
      <point x="463" y="1072" type="line"/>
      <point x="463" y="1436" type="line"/>
      <point x="294" y="1436" type="line"/>
    </contour>
    <contour>
      <point x="20" y="1407" type="line"/>
      <point x="645" y="1407" type="line"/>
      <point x="645" y="1489" type="line"/>
      <point x="20" y="1489" type="line"/>
    </contour>
    <component base="_smart.xwaa" xOffset="74" yOffset="-18"/>
  </outline>
</glyph>
<glyph name="thee-ethiopic" format="2">
  <advance width="1897"/>
  <unicode hex="1324"/>
  <outline>
    <contour>
      <point x="200" y="0" type="line"/>
      <point x="385" y="0" type="line"/>
      <point x="385" y="709" type="line" smooth="yes"/>
      <point x="385" y="893"/>
      <point x="497" y="945"/>
      <point x="614" y="945" type="curve" smooth="yes"/>
      <point x="768" y="945"/>
      <point x="845" y="866"/>
      <point x="845" y="709" type="curve" smooth="yes"/>
      <point x="845" y="0" type="line"/>
      <point x="1031" y="0" type="line"/>
      <point x="1031" y="718" type="line" smooth="yes"/>
      <point x="1031" y="858"/>
      <point x="1144" y="945"/>
      <point x="1281" y="945" type="curve" smooth="yes"/>
      <point x="1448" y="945"/>
      <point x="1512" y="869"/>
      <point x="1512" y="714" type="curve" smooth="yes"/>
      <point x="1512" y="0" type="line"/>
      <point x="1697" y="0" type="line"/>
      <point x="1697" y="725" type="line" smooth="yes"/>
      <point x="1697" y="976"/>
      <point x="1572" y="1102"/>
      <point x="1335" y="1102" type="curve" smooth="yes"/>
      <point x="1178" y="1102"/>
      <point x="1029" y="1010"/>
      <point x="946" y="927" type="curve"/>
      <point x="868" y="1010"/>
      <point x="808" y="1101"/>
      <point x="591" y="1102" type="curve" smooth="yes"/>
      <point x="414" y="1103"/>
      <point x="200" y="968"/>
      <point x="200" y="709" type="curve" smooth="yes"/>
    </contour>
    <contour>
      <point x="1485" y="-567" type="curve" smooth="yes"/>
      <point x="1650" y="-567"/>
      <point x="1771" y="-448"/>
      <point x="1771" y="-291" type="curve" smooth="yes"/>
      <point x="1771" y="-131"/>
      <point x="1647" y="-9"/>
      <point x="1485" y="-9" type="curve" smooth="yes"/>
      <point x="1318" y="-9"/>
      <point x="1192" y="-134"/>
      <point x="1192" y="-291" type="curve" smooth="yes"/>
      <point x="1192" y="-446"/>
      <point x="1314" y="-567"/>
    </contour>
    <contour>
      <point x="1530" y="-537" type="curve" smooth="yes"/>
      <point x="1432" y="-537"/>
      <point x="1331" y="-473"/>
      <point x="1331" y="-346" type="curve" smooth="yes"/>
      <point x="1331" y="-240"/>
      <point x="1419" y="-145"/>
      <point x="1535" y="-145" type="curve" smooth="yes"/>
      <point x="1645" y="-145"/>
      <point x="1729" y="-234"/>
      <point x="1729" y="-346" type="curve" smooth="yes"/>
      <point x="1729" y="-472"/>
      <point x="1631" y="-536"/>
    </contour>
  </outline>
</glyph>
<glyph name="cho-ethiopic" format="2">
  <advance width="1897"/>
  <unicode hex="132E"/>
  <outline>
    <contour>
      <point x="200" y="0" type="line"/>
      <point x="385" y="0" type="line"/>
      <point x="385" y="709" type="line" smooth="yes"/>
      <point x="385" y="893"/>
      <point x="497" y="945"/>
      <point x="614" y="945" type="curve" smooth="yes"/>
      <point x="768" y="945"/>
      <point x="845" y="866"/>
      <point x="845" y="709" type="curve" smooth="yes"/>
      <point x="845" y="0" type="line"/>
      <point x="1031" y="0" type="line"/>
      <point x="1031" y="718" type="line" smooth="yes"/>
      <point x="1031" y="858"/>
      <point x="1144" y="945"/>
      <point x="1281" y="945" type="curve" smooth="yes"/>
      <point x="1448" y="945"/>
      <point x="1512" y="869"/>
      <point x="1512" y="714" type="curve" smooth="yes"/>
      <point x="1512" y="0" type="line"/>
      <point x="1697" y="0" type="line"/>
      <point x="1697" y="725" type="line" smooth="yes"/>
      <point x="1697" y="976"/>
      <point x="1572" y="1102"/>
      <point x="1335" y="1102" type="curve" smooth="yes"/>
      <point x="1178" y="1102"/>
      <point x="1029" y="1010"/>
      <point x="946" y="927" type="curve"/>
      <point x="868" y="1010"/>
      <point x="808" y="1101"/>
      <point x="591" y="1102" type="curve" smooth="yes"/>
      <point x="414" y="1103"/>
      <point x="200" y="968"/>
      <point x="200" y="709" type="curve" smooth="yes"/>
    </contour>
    <contour>
      <point x="200" y="-364" type="line"/>
      <point x="385" y="-364" type="line"/>
      <point x="385" y="-10" type="line"/>
      <point x="200" y="-10" type="line"/>
    </contour>
    <contour>
      <point x="391" y="-45"/>
      <point x="610" y="-45"/>
      <point x="610" y="97" type="curve" smooth="yes"/>
      <point x="610" y="240"/>
      <point x="391" y="242"/>
      <point x="391" y="97" type="curve" smooth="yes"/>
    </contour>
    <contour>
      <point x="1288" y="-52"/>
      <point x="1507" y="-52"/>
      <point x="1507" y="90" type="curve" smooth="yes"/>
      <point x="1507" y="233"/>
      <point x="1288" y="235"/>
      <point x="1288" y="90" type="curve" smooth="yes"/>
    </contour>
  </outline>
</glyph>
<glyph name="phee-ethiopic" format="2">
  <advance width="1146"/>
  <unicode hex="1334"/>
  <outline>
    <contour>
      <point x="155" y="0" type="line"/>
      <point x="340" y="0" type="line"/>
      <point x="340" y="290" type="line" smooth="yes"/>
      <point x="340" y="385"/>
      <point x="395" y="508"/>
      <point x="565" y="508" type="curve" smooth="yes"/>
      <point x="741" y="508"/>
      <point x="801" y="384"/>
      <point x="801" y="287" type="curve" smooth="yes"/>
      <point x="801" y="0" type="line"/>
      <point x="986" y="0" type="line"/>
      <point x="986" y="300" type="line" smooth="yes"/>
      <point x="986" y="428"/>
      <point x="934" y="494"/>
      <point x="819" y="551" type="curve"/>
      <point x="928" y="608"/>
      <point x="978" y="683"/>
      <point x="978" y="788" type="curve" smooth="yes"/>
      <point x="978" y="965"/>
      <point x="811" y="1105"/>
      <point x="578" y="1105" type="curve" smooth="yes"/>
      <point x="373" y="1105"/>
      <point x="165" y="990"/>
      <point x="165" y="785" type="curve" smooth="yes"/>
      <point x="165" y="676"/>
      <point x="220" y="605"/>
      <point x="319" y="551" type="curve"/>
      <point x="208" y="494"/>
      <point x="155" y="417"/>
      <point x="155" y="303" type="curve" smooth="yes"/>
    </contour>
    <contour>
      <point x="565" y="632" type="curve" smooth="yes"/>
      <point x="431" y="632"/>
      <point x="351" y="693"/>
      <point x="351" y="772" type="curve" smooth="yes"/>
      <point x="351" y="872"/>
      <point x="451" y="950"/>
      <point x="565" y="950" type="curve" smooth="yes"/>
      <point x="692" y="950"/>
      <point x="792" y="870"/>
      <point x="792" y="774" type="curve" smooth="yes"/>
      <point x="792" y="698"/>
      <point x="727" y="632"/>
    </contour>
    <contour>
      <point x="753" y="-445" type="curve" smooth="yes"/>
      <point x="918" y="-445"/>
      <point x="1039" y="-326"/>
      <point x="1039" y="-169" type="curve" smooth="yes"/>
      <point x="1039" y="-9"/>
      <point x="915" y="113"/>
      <point x="753" y="113" type="curve" smooth="yes"/>
      <point x="586" y="113"/>
      <point x="460" y="-12"/>
      <point x="460" y="-169" type="curve" smooth="yes"/>
      <point x="460" y="-324"/>
      <point x="582" y="-445"/>
    </contour>
    <contour>
      <point x="798" y="-415" type="curve" smooth="yes"/>
      <point x="700" y="-415"/>
      <point x="599" y="-351"/>
      <point x="599" y="-224" type="curve" smooth="yes"/>
      <point x="599" y="-118"/>
      <point x="687" y="-23"/>
      <point x="803" y="-23" type="curve" smooth="yes"/>
      <point x="913" y="-23"/>
      <point x="997" y="-112"/>
      <point x="997" y="-224" type="curve" smooth="yes"/>
      <point x="997" y="-350"/>
      <point x="899" y="-414"/>
    </contour>
    <contour>
      <point x="496" y="1115" type="line"/>
      <point x="665" y="1115" type="line"/>
      <point x="665" y="1479" type="line"/>
      <point x="496" y="1479" type="line"/>
    </contour>
  </outline>
</glyph>
<glyph name="fe-ethiopic" format="2">
  <advance width="1152"/>
  <unicode hex="134D"/>
  <outline>
    <contour>
      <point x="582" y="-20" type="curve" smooth="yes"/>
      <point x="784" y="-20"/>
      <point x="985" y="127"/>
      <point x="1062" y="295" type="curve"/>
      <point x="954" y="295" type="line"/>
      <point x="904" y="205"/>
      <point x="714" y="131"/>
      <point x="582" y="131" type="curve" smooth="yes"/>
      <point x="431" y="131"/>
      <point x="385" y="255"/>
      <point x="385" y="517" type="curve" smooth="yes"/>
      <point x="385" y="1082" type="line"/>
      <point x="200" y="1082" type="line"/>
      <point x="200" y="524" type="line" smooth="yes"/>
      <point x="200" y="187"/>
      <point x="289" y="-20"/>
    </contour>
    <contour>
      <point x="727" y="598" type="line"/>
      <point x="482" y="598" type="line"/>
      <point x="482" y="507" type="line"/>
      <point x="571" y="507" type="line"/>
      <point x="571" y="102" type="line"/>
      <point x="727" y="102" type="line"/>
    </contour>
    <contour>
      <point x="307" y="1000" type="line"/>
      <point x="932" y="1000" type="line"/>
      <point x="932" y="1082" type="line"/>
      <point x="307" y="1082" type="line"/>
    </contour>
  </outline>
</glyph>
<glyph name="fo-ethiopic" format="2">
  <advance width="1152"/>
  <unicode hex="134E"/>
  <outline>
    <contour>
      <point x="582" y="-20" type="curve" smooth="yes"/>
      <point x="784" y="-20"/>
      <point x="985" y="127"/>
      <point x="1062" y="295" type="curve"/>
      <point x="954" y="295" type="line"/>
      <point x="904" y="205"/>
      <point x="714" y="131"/>
      <point x="582" y="131" type="curve" smooth="yes"/>
      <point x="431" y="131"/>
      <point x="385" y="255"/>
      <point x="385" y="517" type="curve" smooth="yes"/>
      <point x="385" y="1082" type="line"/>
      <point x="200" y="1082" type="line"/>
      <point x="200" y="524" type="line" smooth="yes"/>
      <point x="200" y="187"/>
      <point x="289" y="-20"/>
    </contour>
    <contour>
      <point x="727" y="598" type="line"/>
      <point x="482" y="598" type="line"/>
      <point x="482" y="507" type="line"/>
      <point x="571" y="507" type="line"/>
      <point x="571" y="102" type="line"/>
      <point x="727" y="102" type="line"/>
    </contour>
    <contour>
      <point x="780" y="723" type="curve" smooth="yes"/>
      <point x="951" y="723"/>
      <point x="1073" y="844"/>
      <point x="1073" y="999" type="curve" smooth="yes"/>
      <point x="1073" y="1156"/>
      <point x="947" y="1281"/>
      <point x="780" y="1281" type="curve" smooth="yes"/>
      <point x="618" y="1281"/>
      <point x="494" y="1159"/>
      <point x="494" y="999" type="curve" smooth="yes"/>
      <point x="494" y="842"/>
      <point x="615" y="723"/>
    </contour>
    <contour>
      <point x="735" y="859" type="curve" smooth="yes"/>
      <point x="634" y="860"/>
      <point x="536" y="924"/>
      <point x="536" y="1050" type="curve" smooth="yes"/>
      <point x="536" y="1162"/>
      <point x="620" y="1251"/>
      <point x="730" y="1251" type="curve" smooth="yes"/>
      <point x="846" y="1251"/>
      <point x="934" y="1156"/>
      <point x="934" y="1050" type="curve" smooth="yes"/>
      <point x="934" y="923"/>
      <point x="833" y="859"/>
    </contour>
  </outline>
</glyph>
<glyph name="pa-ethiopic" format="2">
  <advance width="784"/>
  <unicode hex="1350"/>
  <outline>
    <contour>
      <point x="267" y="0" type="line"/>
      <point x="452" y="0" type="line"/>
      <point x="452" y="939" type="line"/>
      <point x="654" y="939" type="line"/>
      <point x="654" y="1082" type="line"/>
      <point x="70" y="1082" type="line"/>
      <point x="70" y="939" type="line"/>
      <point x="267" y="939" type="line"/>
    </contour>
  </outline>
</glyph>
<glyph name="paa-ethiopic" format="2">
  <advance width="799"/>
  <unicode hex="1353"/>
  <outline>
    <contour>
      <point x="70" y="0" type="line"/>
      <point x="342" y="0" type="line"/>
      <point x="342" y="112" type="line"/>
      <point x="70" y="112" type="line"/>
    </contour>
    <contour>
      <point x="282" y="0" type="line"/>
      <point x="467" y="0" type="line"/>
      <point x="467" y="939" type="line"/>
      <point x="669" y="939" type="line"/>
      <point x="669" y="1082" type="line"/>
      <point x="85" y="1082" type="line"/>
      <point x="85" y="939" type="line"/>
      <point x="282" y="939" type="line"/>
    </contour>
  </outline>
</glyph>
<glyph name="pwa-ethiopic" format="2">
  <advance width="784"/>
  <unicode hex="1357"/>
  <outline>
    <contour>
      <point x="267" y="0" type="line"/>
      <point x="452" y="0" type="line"/>
      <point x="452" y="939" type="line"/>
      <point x="654" y="939" type="line"/>
      <point x="654" y="1082" type="line"/>
      <point x="70" y="1082" type="line"/>
      <point x="70" y="939" type="line"/>
      <point x="267" y="939" type="line"/>
    </contour>
    <contour>
      <point x="-29" y="-338" type="line"/>
      <point x="481" y="-338" type="line"/>
      <point x="481" y="-455" type="line"/>
      <point x="611" y="-455" type="line"/>
      <point x="611" y="-207" type="line"/>
      <point x="452" y="-207" type="line"/>
      <point x="452" y="-14" type="line"/>
      <point x="267" y="-14" type="line"/>
      <point x="267" y="-207" type="line"/>
      <point x="-29" y="-207" type="line"/>
    </contour>
  </outline>
</glyph>
<glyph name="semicolon-ethiopic" format="2">
  <advance width="556"/>
  <unicode hex="1364"/>
  <outline>
    <contour>
      <point x="98" y="1215" type="line"/>
      <point x="428" y="1215" type="line"/>
      <point x="428" y="1353" type="line"/>
      <point x="98" y="1353" type="line"/>
    </contour>
    <contour>
      <point x="150" y="-312" type="line"/>
      <point x="454" y="-312" type="line"/>
      <point x="454" y="-174" type="line"/>
      <point x="150" y="-174" type="line"/>
    </contour>
    <component base="period" xOffset="21" yOffset="883"/>
    <component base="period" xOffset="20"/>
  </outline>
</glyph>
<glyph name="thirty-ethiopic" format="2">
  <advance width="1355"/>
  <unicode hex="1374"/>
  <outline>
    <contour>
      <point x="149" y="-31" type="line"/>
      <point x="334" y="-31" type="line"/>
      <point x="334" y="838" type="line" smooth="yes"/>
      <point x="334" y="1143"/>
      <point x="375" y="1274"/>
      <point x="458" y="1274" type="curve" smooth="yes"/>
      <point x="547" y="1274"/>
      <point x="593" y="1231"/>
      <point x="593" y="630" type="curve" smooth="yes"/>
      <point x="593" y="59"/>
      <point x="708" y="-30"/>
      <point x="939" y="-31" type="curve" smooth="yes"/>
      <point x="1135" y="-32"/>
      <point x="1222" y="85"/>
      <point x="1222" y="602" type="curve" smooth="yes"/>
      <point x="1222" y="1426" type="line"/>
      <point x="1037" y="1426" type="line"/>
      <point x="1037" y="557" type="line" smooth="yes"/>
      <point x="1037" y="251"/>
      <point x="1020" y="121"/>
      <point x="913" y="121" type="curve" smooth="yes"/>
      <point x="835" y="121"/>
      <point x="778" y="177"/>
      <point x="778" y="811" type="curve" smooth="yes"/>
      <point x="778" y="1290"/>
      <point x="690" y="1426"/>
      <point x="437" y="1426" type="curve" smooth="yes"/>
      <point x="238" y="1426"/>
      <point x="149" y="1231"/>
      <point x="149" y="793" type="curve" smooth="yes"/>
    </contour>
    <component base="_num.bar" xOffset="94"/>
  </outline>
</glyph>
<glyph name="seventy-ethiopic" format="2">
  <advance width="1150"/>
  <unicode hex="1378"/>
  <outline>
    <contour>
      <point x="576" y="-50" type="curve" smooth="yes"/>
      <point x="732" y="-50"/>
      <point x="845" y="1"/>
      <point x="921" y="105" type="curve"/>
      <point x="748" y="166" type="line"/>
      <point x="705" y="122"/>
      <point x="648" y="101"/>
      <point x="576" y="101" type="curve" smooth="yes"/>
      <point x="391" y="101"/>
      <point x="300" y="247"/>
      <point x="300" y="562" type="curve" smooth="yes"/>
      <point x="300" y="858" type="line" smooth="yes"/>
      <point x="300" y="1154"/>
      <point x="385" y="1294"/>
      <point x="574" y="1294" type="curve" smooth="yes"/>
      <point x="649" y="1294"/>
      <point x="708" y="1273"/>
      <point x="751" y="1228" type="curve"/>
      <point x="911" y="1307" type="line"/>
      <point x="836" y="1401"/>
      <point x="725" y="1446"/>
      <point x="574" y="1446" type="curve" smooth="yes"/>
      <point x="258" y="1446"/>
      <point x="115" y="1241"/>
      <point x="115" y="813" type="curve" smooth="yes"/>
      <point x="115" y="566" type="line" smooth="yes"/>
      <point x="115" y="157"/>
      <point x="265" y="-50"/>
    </contour>
    <component base="_num.bar"/>
    <component base="ring" xOffset="542" yOffset="-304"/>
  </outline>
</glyph>
<glyph name="quoteleft" format="2">
  <advance width="409"/>
  <unicode hex="2018"/>
  <note>
uni2018
</note>
  <outline>
    <contour>
      <point x="96" y="1073" type="line"/>
      <point x="280" y="1073" type="line"/>
      <point x="280" y="1209" type="line" smooth="yes"/>
      <point x="282" y="1307"/>
      <point x="314" y="1398.333"/>
      <point x="376" y="1483" type="curve"/>
      <point x="270" y="1555" type="line"/>
      <point x="167.333" y="1469.667"/>
      <point x="96" y="1325"/>
      <point x="96" y="1189" type="curve" smooth="yes"/>
    </contour>
  </outline>
</glyph>
<glyph name="euro" format="2">
  <advance width="1150"/>
  <unicode hex="20AC"/>
  <note>
uni20AC
</note>
  <outline>
    <contour>
      <point x="812" y="-20" type="curve" smooth="yes"/>
      <point x="892" y="-20"/>
      <point x="972" y="-10"/>
      <point x="1052" y="10" type="curve"/>
      <point x="1032" y="170" type="line"/>
      <point x="964" y="147.333"/>
      <point x="891.333" y="136"/>
      <point x="814" y="136" type="curve" smooth="yes"/>
      <point x="594" y="136"/>
      <point x="470.333" y="281"/>
      <point x="465" y="541" type="curve"/>
      <point x="849" y="541" type="line"/>
      <point x="849" y="665" type="line"/>
      <point x="465" y="665" type="line"/>
      <point x="465" y="802" type="line"/>
      <point x="849" y="802" type="line"/>
      <point x="849" y="927" type="line"/>
      <point x="466" y="927" type="line"/>
      <point x="474" y="1177.667"/>
      <point x="594.333" y="1318"/>
      <point x="813" y="1318" type="curve" smooth="yes"/>
      <point x="886.333" y="1318"/>
      <point x="959.333" y="1306.333"/>
      <point x="1032" y="1283" type="curve"/>
      <point x="1052" y="1445" type="line"/>
      <point x="962" y="1465.667"/>
      <point x="881.667" y="1476"/>
      <point x="811" y="1476" type="curve" smooth="yes"/>
      <point x="487" y="1476"/>
      <point x="286.333" y="1276.333"/>
      <point x="273" y="927" type="curve"/>
      <point x="95" y="927" type="line"/>
      <point x="95" y="802" type="line"/>
      <point x="273" y="802" type="line"/>
      <point x="273" y="665" type="line"/>
      <point x="95" y="665" type="line"/>
      <point x="95" y="541" type="line"/>
      <point x="273" y="541" type="line"/>
      <point x="281" y="183.667"/>
      <point x="481.333" y="-20"/>
    </contour>
  </outline>
</glyph>
<glyph name="infinity" format="2">
  <advance width="2106"/>
  <unicode hex="221E"/>
  <note>
uni221E
</note>
  <outline>
    <contour>
      <point x="585" y="-21" type="curve" smooth="yes"/>
      <point x="777" y="-21"/>
      <point x="938" y="101.333"/>
      <point x="1046" y="340" type="curve"/>
      <point x="1152.667" y="104"/>
      <point x="1315.667" y="-21"/>
      <point x="1509" y="-21" type="curve" smooth="yes"/>
      <point x="1691.667" y="-21"/>
      <point x="1848" y="81.333"/>
      <point x="1932" y="252" type="curve" smooth="yes"/>
      <point x="1974" y="337.333"/>
      <point x="1995" y="429"/>
      <point x="1995" y="527" type="curve" smooth="yes"/>
      <point x="1995" y="700"/>
      <point x="1944" y="840"/>
      <point x="1859" y="940" type="curve" smooth="yes"/>
      <point x="1772" y="1041"/>
      <point x="1650" y="1102"/>
      <point x="1511" y="1102" type="curve" smooth="yes"/>
      <point x="1316.333" y="1102"/>
      <point x="1152.667" y="976"/>
      <point x="1046" y="740" type="curve"/>
      <point x="938" y="978.667"/>
      <point x="776.333" y="1102"/>
      <point x="583" y="1102" type="curve" smooth="yes"/>
      <point x="479" y="1102"/>
      <point x="389" y="1071"/>
      <point x="316" y="1018" type="curve" smooth="yes"/>
      <point x="177" y="916"/>
      <point x="98" y="732"/>
      <point x="98" y="529" type="curve" smooth="yes"/>
      <point x="98" y="327.667"/>
      <point x="189" y="145.833"/>
      <point x="337" y="50.5" type="curve" smooth="yes"/>
      <point x="411" y="2.833"/>
      <point x="493.667" y="-21"/>
    </contour>
    <contour>
      <point x="585" y="130" type="curve" smooth="yes"/>
      <point x="403.667" y="130"/>
      <point x="283" y="291"/>
      <point x="283" y="545" type="curve" smooth="yes"/>
      <point x="283" y="791.667"/>
      <point x="404.333" y="950"/>
      <point x="583" y="950" type="curve" smooth="yes"/>
      <point x="742.726" y="950"/>
      <point x="884" y="799"/>
      <point x="947" y="562" type="curve"/>
      <point x="947" y="520" type="line"/>
      <point x="866.667" y="263.667"/>
      <point x="737" y="130"/>
    </contour>
    <contour>
      <point x="1509" y="130" type="curve" smooth="yes"/>
      <point x="1313" y="130"/>
      <point x="1184" y="355"/>
      <point x="1146" y="520" type="curve"/>
      <point x="1146" y="562" type="line"/>
      <point x="1225.667" y="817"/>
      <point x="1357.667" y="950"/>
      <point x="1511" y="950" type="curve" smooth="yes"/>
      <point x="1688.333" y="950"/>
      <point x="1810" y="785"/>
      <point x="1810" y="553" type="curve" smooth="yes"/>
      <point x="1810" y="290.667"/>
      <point x="1690.333" y="130"/>
    </contour>
  </outline>
</glyph>
<glyph name="approxequal" format="2">
  <advance width="1154"/>
  <unicode hex="2248"/>
  <note>
uni2248
</note>
  <outline>
    <contour>
      <point x="799" y="697" type="curve" smooth="yes"/>
      <point x="887.667" y="697"/>
      <point x="966.333" y="733.333"/>
      <point x="1033" y="806" type="curve"/>
      <point x="1033" y="996" type="line"/>
      <point x="967" y="910.667"/>
      <point x="888.333" y="868"/>
      <point x="799" y="868" type="curve" smooth="yes"/>
      <point x="747" y="868"/>
      <point x="699" y="878.333"/>
      <point x="655" y="899" type="curve" smooth="yes"/>
      <point x="503" y="977" type="line" smooth="yes"/>
      <point x="453.667" y="1000.333"/>
      <point x="401.667" y="1011.333"/>
      <point x="347" y="1010" type="curve" smooth="yes"/>
      <point x="259" y="1010"/>
      <point x="166" y="969"/>
      <point x="101" y="901" type="curve"/>
      <point x="101" y="712" type="line"/>
      <point x="166" y="792"/>
      <point x="259" y="840"/>
      <point x="347" y="840" type="curve" smooth="yes"/>
      <point x="399.667" y="841.333"/>
      <point x="450" y="834"/>
      <point x="494" y="811" type="curve" smooth="yes"/>
      <point x="655" y="728" type="line" smooth="yes"/>
      <point x="699" y="707.333"/>
      <point x="747" y="697"/>
    </contour>
    <contour>
      <point x="798" y="280" type="curve" smooth="yes"/>
      <point x="886.667" y="280"/>
      <point x="965.333" y="316.333"/>
      <point x="1033" y="389" type="curve"/>
      <point x="1033" y="578" type="line"/>
      <point x="965" y="492.667"/>
      <point x="886.667" y="450"/>
      <point x="798" y="450" type="curve" smooth="yes"/>
      <point x="744.667" y="450"/>
      <point x="695.333" y="461"/>
      <point x="650" y="483" type="curve" smooth="yes"/>
      <point x="501" y="560" type="line" smooth="yes"/>
      <point x="451.667" y="583.333"/>
      <point x="399.667" y="594.333"/>
      <point x="345" y="593" type="curve" smooth="yes"/>
      <point x="257" y="593"/>
      <point x="165" y="551"/>
      <point x="101" y="483" type="curve"/>
      <point x="101" y="294" type="line"/>
      <point x="165" y="374"/>
      <point x="258" y="422"/>
      <point x="346" y="422" type="curve" smooth="yes"/>
      <point x="400.667" y="423.333"/>
      <point x="452.667" y="412.333"/>
      <point x="502" y="389" type="curve" smooth="yes"/>
      <point x="654" y="311" type="line" smooth="yes"/>
      <point x="698" y="290.333"/>
      <point x="746" y="280"/>
    </contour>
  </outline>
</glyph>
<glyph name="_smart.aGlhat" format="2">
  <anchor x="198" y="1242" name="_aGlhat"/>
  <outline>
    <contour>
      <point x="260" y="1242" type="line"/>
      <point x="67" y="1536" type="line"/>
      <point x="-157" y="1536" type="line"/>
      <point x="111" y="1242" type="line"/>
    </contour>
  </outline>
</glyph>
<glyph name="_smart.cha.caps" format="2">
  <anchor x="-20" y="95" name="_cha.caps"/>
  <outline>
    <contour>
      <point x="-413" y="12" type="curve" smooth="yes"/>
      <point x="-341" y="12"/>
      <point x="-303" y="57"/>
      <point x="-303" y="117" type="curve" smooth="yes"/>
      <point x="-303" y="177"/>
      <point x="-341" y="224"/>
      <point x="-413" y="224" type="curve" smooth="yes"/>
      <point x="-485" y="224"/>
      <point x="-522" y="177"/>
      <point x="-522" y="117" type="curve" smooth="yes"/>
      <point x="-522" y="57"/>
      <point x="-485" y="12"/>
    </contour>
    <contour>
      <point x="428" y="12" type="curve" smooth="yes"/>
      <point x="500" y="12"/>
      <point x="538" y="57"/>
      <point x="538" y="117" type="curve" smooth="yes"/>
      <point x="538" y="177"/>
      <point x="500" y="224"/>
      <point x="428" y="224" type="curve" smooth="yes"/>
      <point x="356" y="224"/>
      <point x="319" y="177"/>
      <point x="319" y="117" type="curve" smooth="yes"/>
      <point x="319" y="57"/>
      <point x="356" y="12"/>
    </contour>
  </outline>
</glyph>
<glyph name="_smart.di" format="2">
  <anchor x="-173" y="224" name="_di"/>
  <outline>
    <contour>
      <point x="-58" y="366" type="line"/>
      <point x="-58" y="87" type="line"/>
      <point x="73" y="87" type="line"/>
      <point x="73" y="366" type="line"/>
    </contour>
    <contour>
      <point x="200" y="74" type="curve" smooth="yes"/>
      <point x="272" y="74"/>
      <point x="310" y="119"/>
      <point x="310" y="179" type="curve" smooth="yes"/>
      <point x="310" y="239"/>
      <point x="272" y="286"/>
      <point x="200" y="286" type="curve" smooth="yes"/>
      <point x="128" y="286"/>
      <point x="91" y="239"/>
      <point x="91" y="179" type="curve" smooth="yes"/>
      <point x="91" y="119"/>
      <point x="128" y="74"/>
    </contour>
  </outline>
</glyph>
<glyph name="_smart.du" format="2">
  <anchor x="-173" y="224" name="_du"/>
  <outline>
    <contour>
      <point x="30" y="-77" type="line"/>
      <point x="30" y="280" type="line"/>
      <point x="-154" y="280" type="line"/>
      <point x="-154" y="-77" type="line"/>
    </contour>
    <contour>
      <point x="181" y="112" type="curve" smooth="yes"/>
      <point x="253" y="112"/>
      <point x="291" y="157"/>
      <point x="291" y="217" type="curve" smooth="yes"/>
      <point x="291" y="277"/>
      <point x="253" y="324"/>
      <point x="181" y="324" type="curve" smooth="yes"/>
      <point x="109" y="324"/>
      <point x="72" y="277"/>
      <point x="72" y="217" type="curve" smooth="yes"/>
      <point x="72" y="157"/>
      <point x="109" y="112"/>
    </contour>
  </outline>
</glyph>
<glyph name="_smart.hat" format="2">
  <anchor x="5" y="12" name="_hat"/>
  <outline>
    <contour>
      <point x="-315" y="52" type="line"/>
      <point x="310" y="52" type="line"/>
      <point x="310" y="134" type="line"/>
      <point x="-315" y="134" type="line"/>
    </contour>
  </outline>
</glyph>
<glyph name="_smart.he.left.outer" format="2">
  <anchor x="0" y="-41" name="_he.left.outer"/>
  <outline>
    <contour>
      <point x="-110" y="-146" type="curve" smooth="yes"/>
      <point x="-38" y="-146"/>
      <point x="0" y="-101"/>
      <point x="0" y="-41" type="curve" smooth="yes"/>
      <point x="0" y="19"/>
      <point x="-38" y="66"/>
      <point x="-110" y="66" type="curve" smooth="yes"/>
      <point x="-182" y="66"/>
      <point x="-219" y="19"/>
      <point x="-219" y="-41" type="curve" smooth="yes"/>
      <point x="-219" y="-101"/>
      <point x="-182" y="-146"/>
    </contour>
  </outline>
</glyph>
<glyph name="_smart.hi" format="2">
  <anchor x="0" y="115" name="_hi"/>
  <outline>
    <contour>
      <point x="123" y="-8" type="curve" smooth="yes"/>
      <point x="190" y="-8"/>
      <point x="247" y="47"/>
      <point x="247" y="115" type="curve" smooth="yes"/>
      <point x="247" y="182"/>
      <point x="190" y="239"/>
      <point x="123" y="239" type="curve" smooth="yes"/>
      <point x="55" y="239"/>
      <point x="0" y="182"/>
      <point x="0" y="115" type="curve" smooth="yes"/>
      <point x="0" y="47"/>
      <point x="55" y="-8"/>
    </contour>
  </outline>
</glyph>
<glyph name="_smart.ho" format="2">
  <anchor x="4" y="350" name="_ho"/>
  <outline>
    <contour>
      <point x="-78" y="-5" type="line"/>
      <point x="107" y="-5" type="line"/>
      <point x="107" y="349" type="line"/>
      <point x="-78" y="349" type="line"/>
    </contour>
  </outline>
</glyph>
<glyph name="_smart.ho.ring" format="2">
  <anchor x="-3" y="1111" name="_ho.ring"/>
  <outline>
    <contour>
      <point x="-284" y="894" type="curve" smooth="yes"/>
      <point x="-113" y="894"/>
      <point x="9" y="1015"/>
      <point x="9" y="1170" type="curve" smooth="yes"/>
      <point x="9" y="1327"/>
      <point x="-117" y="1452"/>
      <point x="-284" y="1452" type="curve" smooth="yes"/>
      <point x="-446" y="1452"/>
      <point x="-570" y="1330"/>
      <point x="-570" y="1170" type="curve" smooth="yes"/>
      <point x="-570" y="1013"/>
      <point x="-449" y="894"/>
    </contour>
    <contour>
      <point x="-329" y="1030" type="curve" smooth="yes"/>
      <point x="-430" y="1031"/>
      <point x="-528" y="1095"/>
      <point x="-528" y="1221" type="curve" smooth="yes"/>
      <point x="-528" y="1333"/>
      <point x="-444" y="1422"/>
      <point x="-334" y="1422" type="curve" smooth="yes"/>
      <point x="-218" y="1422"/>
      <point x="-130" y="1327"/>
      <point x="-130" y="1221" type="curve" smooth="yes"/>
      <point x="-130" y="1094"/>
      <point x="-231" y="1030"/>
    </contour>
  </outline>
</glyph>
<glyph name="_smart.ka.caps" format="2">
  <anchor x="-1031" y="1459" name="_ka.caps"/>
  <outline>
    <contour>
      <point x="-1254" y="1367" type="line"/>
      <point x="-689" y="1387" type="line"/>
      <point x="-689" y="1479" type="line" name="❌"/>
      <point x="-1021" y="1469" type="line" name="❌"/>
      <point x="-1021" y="1807" type="line"/>
      <point x="-1254" y="1807" type="line"/>
    </contour>
  </outline>
</glyph>
<glyph name="_smart.ring" format="2">
  <anchor x="443" y="1025" name="_ring"/>
  <outline>
    <contour>
      <point x="376" y="1054" type="curve" smooth="yes"/>
      <point x="497" y="1054"/>
      <point x="591" y="1142"/>
      <point x="591" y="1258" type="curve" smooth="yes"/>
      <point x="591" y="1373"/>
      <point x="499" y="1466"/>
      <point x="376" y="1466" type="curve" smooth="yes"/>
      <point x="253" y="1466"/>
      <point x="161" y="1373"/>
      <point x="161" y="1258" type="curve" smooth="yes"/>
      <point x="161" y="1143"/>
      <point x="253" y="1054"/>
    </contour>
    <contour>
      <point x="376" y="1143" type="curve" smooth="yes"/>
      <point x="311" y="1143"/>
      <point x="260" y="1195"/>
      <point x="260" y="1258" type="curve" smooth="yes"/>
      <point x="260" y="1322"/>
      <point x="309" y="1376"/>
      <point x="376" y="1376" type="curve" smooth="yes"/>
      <point x="453" y="1376"/>
      <point x="491" y="1318"/>
      <point x="491" y="1260" type="curve" smooth="yes"/>
      <point x="491" y="1202"/>
      <point x="453" y="1143"/>
    </contour>
  </outline>
</glyph>
<glyph name="_smart.yu" format="2">
  <anchor x="149" y="726" name="_yu"/>
  <outline>
    <contour>
      <point x="168" y="651" type="line"/>
      <point x="603" y="651" type="line"/>
      <point x="603" y="802" type="line"/>
      <point x="168" y="802" type="line"/>
    </contour>
  </outline>
</glyph>
<glyph name="aaGlottal-ethiopic.liga" format="2">
  <advance width="1304"/>
  <outline>
    <contour>
      <point x="28" y="0" type="line"/>
      <point x="238" y="0" type="line"/>
      <point x="654" y="1037" type="line"/>
      <point x="1068" y="0" type="line"/>
      <point x="1277" y="0" type="line"/>
      <point x="737" y="1290" type="line"/>
      <point x="737" y="1442" type="line"/>
      <point x="315" y="1442" type="line"/>
      <point x="315" y="1669" type="line"/>
      <point x="155" y="1669" type="line"/>
      <point x="155" y="1290" type="line"/>
      <point x="566" y="1290" type="line"/>
    </contour>
    <contour>
      <point x="1089" y="-397" type="line" name="❌"/>
      <point x="1274" y="-397" type="line" name="❌"/>
      <point x="1274" y="-42" type="line"/>
      <point x="1089" y="-42" type="line"/>
    </contour>
  </outline>
</glyph>
<glyph name="caa-ethiopic.liga" format="2">
  <advance width="1222"/>
  <outline>
    <contour>
      <point x="516" y="0" type="line"/>
      <point x="707" y="0" type="line"/>
      <point x="707" y="1298" type="line"/>
      <point x="1175" y="1298" type="line"/>
      <point x="1175" y="1456" type="line"/>
      <point x="49" y="1456" type="line"/>
      <point x="49" y="1298" type="line"/>
      <point x="516" y="1298" type="line"/>
    </contour>
    <contour>
      <point x="293" y="-278" type="line"/>
      <point x="442" y="-278" type="line"/>
      <point x="710" y="16" type="line" name="❌"/>
      <point x="486" y="16" type="line" name="❌"/>
    </contour>
    <contour>
      <point x="535" y="1526" type="line"/>
      <point x="682" y="1526" type="line"/>
      <point x="682" y="1783" type="line"/>
      <point x="535" y="1783" type="line"/>
    </contour>
    <component base="_smart.hat.caps" xOffset="579" yOffset="-1"/>
  </outline>
</glyph>
<glyph name="ce-ethiopic.liga" format="2">
  <advance width="1222"/>
  <outline>
    <contour>
      <point x="516" y="0" type="line"/>
      <point x="707" y="0" type="line"/>
      <point x="707" y="1298" type="line"/>
      <point x="1175" y="1298" type="line"/>
      <point x="1175" y="1456" type="line"/>
      <point x="49" y="1456" type="line"/>
      <point x="49" y="1298" type="line"/>
      <point x="516" y="1298" type="line"/>
    </contour>
    <contour>
      <point x="245" y="1641" type="line"/>
      <point x="919" y="1641" type="line"/>
      <point x="919" y="1784" type="line"/>
      <point x="245" y="1784" type="line"/>
    </contour>
    <contour>
      <point x="679" y="1507" type="line"/>
      <point x="486" y="1801" type="line"/>
      <point x="262" y="1801" type="line"/>
      <point x="530" y="1507" type="line"/>
    </contour>
  </outline>
</glyph>
<glyph name="cha-ethiopic.liga" format="2">
  <advance width="1788"/>
  <outline>
    <contour>
      <point x="169" y="0" type="line"/>
      <point x="361" y="0" type="line"/>
      <point x="342" y="1176" type="line"/>
      <point x="819" y="0" type="line"/>
      <point x="966" y="0" type="line"/>
      <point x="1444" y="1179" type="line"/>
      <point x="1426" y="0" type="line"/>
      <point x="1618" y="0" type="line"/>
      <point x="1618" y="1456" type="line"/>
      <point x="1369" y="1456" type="line"/>
      <point x="893" y="268" type="line"/>
      <point x="417" y="1456" type="line"/>
      <point x="169" y="1456" type="line"/>
    </contour>
    <contour>
      <point x="473" y="2" type="curve" smooth="yes"/>
      <point x="545" y="2"/>
      <point x="583" y="47"/>
      <point x="583" y="107" type="curve" smooth="yes"/>
      <point x="583" y="167"/>
      <point x="545" y="214"/>
      <point x="473" y="214" type="curve" smooth="yes"/>
      <point x="401" y="214"/>
      <point x="364" y="167"/>
      <point x="364" y="107" type="curve" smooth="yes"/>
      <point x="364" y="47"/>
      <point x="401" y="2"/>
    </contour>
    <contour>
      <point x="1314" y="2" type="curve" smooth="yes"/>
      <point x="1386" y="2"/>
      <point x="1424" y="47"/>
      <point x="1424" y="107" type="curve" smooth="yes"/>
      <point x="1424" y="167"/>
      <point x="1386" y="214"/>
      <point x="1314" y="214" type="curve" smooth="yes"/>
      <point x="1242" y="214"/>
      <point x="1205" y="167"/>
      <point x="1205" y="107" type="curve" smooth="yes"/>
      <point x="1205" y="47"/>
      <point x="1242" y="2"/>
    </contour>
  </outline>
</glyph>
<glyph name="che-ethiopic.liga" format="2">
  <advance width="1788"/>
  <outline>
    <contour>
      <point x="169" y="0" type="line"/>
      <point x="361" y="0" type="line"/>
      <point x="342" y="1176" type="line"/>
      <point x="819" y="0" type="line"/>
      <point x="966" y="0" type="line"/>
      <point x="1444" y="1179" type="line"/>
      <point x="1426" y="0" type="line"/>
      <point x="1618" y="0" type="line"/>
      <point x="1618" y="1456" type="line"/>
      <point x="1369" y="1456" type="line"/>
      <point x="893" y="268" type="line"/>
      <point x="417" y="1456" type="line"/>
      <point x="169" y="1456" type="line"/>
    </contour>
    <contour>
      <point x="473" y="2" type="curve" smooth="yes"/>
      <point x="545" y="2"/>
      <point x="583" y="47"/>
      <point x="583" y="107" type="curve" smooth="yes"/>
      <point x="583" y="167"/>
      <point x="545" y="214"/>
      <point x="473" y="214" type="curve" smooth="yes"/>
      <point x="401" y="214"/>
      <point x="364" y="167"/>
      <point x="364" y="107" type="curve" smooth="yes"/>
      <point x="364" y="47"/>
      <point x="401" y="2"/>
    </contour>
    <contour>
      <point x="1314" y="2" type="curve" smooth="yes"/>
      <point x="1386" y="2"/>
      <point x="1424" y="47"/>
      <point x="1424" y="107" type="curve" smooth="yes"/>
      <point x="1424" y="167"/>
      <point x="1386" y="214"/>
      <point x="1314" y="214" type="curve" smooth="yes"/>
      <point x="1242" y="214"/>
      <point x="1205" y="167"/>
      <point x="1205" y="107" type="curve" smooth="yes"/>
      <point x="1205" y="47"/>
      <point x="1242" y="2"/>
    </contour>
    <contour>
      <point x="789" y="-288" type="line"/>
      <point x="938" y="-288" type="line"/>
      <point x="1206" y="6" type="line" name="❌"/>
      <point x="982" y="6" type="line" name="❌"/>
    </contour>
  </outline>
</glyph>
<glyph name="chee-ethiopic.liga" format="2">
  <advance width="1809"/>
  <outline>
    <contour>
      <point x="169" y="0" type="line"/>
      <point x="361" y="0" type="line"/>
      <point x="342" y="1176" type="line"/>
      <point x="819" y="0" type="line"/>
      <point x="966" y="0" type="line"/>
      <point x="1444" y="1179" type="line"/>
      <point x="1426" y="0" type="line"/>
      <point x="1618" y="0" type="line"/>
      <point x="1618" y="1456" type="line"/>
      <point x="1369" y="1456" type="line"/>
      <point x="893" y="268" type="line"/>
      <point x="417" y="1456" type="line"/>
      <point x="169" y="1456" type="line"/>
    </contour>
    <contour>
      <point x="1395" y="-478" type="curve" smooth="yes"/>
      <point x="1536" y="-478"/>
      <point x="1639" y="-376"/>
      <point x="1639" y="-243" type="curve" smooth="yes"/>
      <point x="1639" y="-107"/>
      <point x="1533" y="-3"/>
      <point x="1395" y="-3" type="curve" smooth="yes"/>
      <point x="1253" y="-3"/>
      <point x="1146" y="-109"/>
      <point x="1146" y="-243" type="curve" smooth="yes"/>
      <point x="1146" y="-375"/>
      <point x="1250" y="-478"/>
    </contour>
    <contour>
      <point x="1434" y="-452" type="curve" smooth="yes"/>
      <point x="1350" y="-452"/>
      <point x="1264" y="-398"/>
      <point x="1264" y="-290" type="curve" smooth="yes"/>
      <point x="1264" y="-200"/>
      <point x="1339" y="-119"/>
      <point x="1438" y="-119" type="curve" smooth="yes"/>
      <point x="1532" y="-119"/>
      <point x="1603" y="-194"/>
      <point x="1603" y="-290" type="curve" smooth="yes"/>
      <point x="1603" y="-397"/>
      <point x="1520" y="-451"/>
    </contour>
    <contour>
      <point x="473" y="2" type="curve" smooth="yes"/>
      <point x="545" y="2"/>
      <point x="583" y="47"/>
      <point x="583" y="107" type="curve" smooth="yes"/>
      <point x="583" y="167"/>
      <point x="545" y="214"/>
      <point x="473" y="214" type="curve" smooth="yes"/>
      <point x="401" y="214"/>
      <point x="364" y="167"/>
      <point x="364" y="107" type="curve" smooth="yes"/>
      <point x="364" y="47"/>
      <point x="401" y="2"/>
    </contour>
    <contour>
      <point x="1314" y="2" type="curve" smooth="yes"/>
      <point x="1386" y="2"/>
      <point x="1424" y="47"/>
      <point x="1424" y="107" type="curve" smooth="yes"/>
      <point x="1424" y="167"/>
      <point x="1386" y="214"/>
      <point x="1314" y="214" type="curve" smooth="yes"/>
      <point x="1242" y="214"/>
      <point x="1205" y="167"/>
      <point x="1205" y="107" type="curve" smooth="yes"/>
      <point x="1205" y="47"/>
      <point x="1242" y="2"/>
    </contour>
  </outline>
</glyph>
<glyph name="chu-ethiopic.liga" format="2">
  <advance width="1788"/>
  <outline>
    <contour>
      <point x="169" y="0" type="line"/>
      <point x="361" y="0" type="line"/>
      <point x="342" y="1176" type="line"/>
      <point x="819" y="0" type="line"/>
      <point x="966" y="0" type="line"/>
      <point x="1444" y="1179" type="line"/>
      <point x="1426" y="0" type="line"/>
      <point x="1618" y="0" type="line"/>
      <point x="1618" y="1456" type="line"/>
      <point x="1369" y="1456" type="line"/>
      <point x="893" y="268" type="line"/>
      <point x="417" y="1456" type="line"/>
      <point x="169" y="1456" type="line"/>
    </contour>
    <contour>
      <point x="1744" y="927" type="curve" smooth="yes"/>
      <point x="1811" y="927"/>
      <point x="1868" y="982"/>
      <point x="1868" y="1050" type="curve" smooth="yes"/>
      <point x="1868" y="1117"/>
      <point x="1811" y="1174"/>
      <point x="1744" y="1174" type="curve" smooth="yes"/>
      <point x="1676" y="1174"/>
      <point x="1621" y="1117"/>
      <point x="1621" y="1050" type="curve" smooth="yes"/>
      <point x="1621" y="982"/>
      <point x="1676" y="927"/>
    </contour>
    <contour>
      <point x="473" y="2" type="curve" smooth="yes"/>
      <point x="545" y="2"/>
      <point x="583" y="47"/>
      <point x="583" y="107" type="curve" smooth="yes"/>
      <point x="583" y="167"/>
      <point x="545" y="214"/>
      <point x="473" y="214" type="curve" smooth="yes"/>
      <point x="401" y="214"/>
      <point x="364" y="167"/>
      <point x="364" y="107" type="curve" smooth="yes"/>
      <point x="364" y="47"/>
      <point x="401" y="2"/>
    </contour>
    <contour>
      <point x="1314" y="2" type="curve" smooth="yes"/>
      <point x="1386" y="2"/>
      <point x="1424" y="47"/>
      <point x="1424" y="107" type="curve" smooth="yes"/>
      <point x="1424" y="167"/>
      <point x="1386" y="214"/>
      <point x="1314" y="214" type="curve" smooth="yes"/>
      <point x="1242" y="214"/>
      <point x="1205" y="167"/>
      <point x="1205" y="107" type="curve" smooth="yes"/>
      <point x="1205" y="47"/>
      <point x="1242" y="2"/>
    </contour>
  </outline>
</glyph>
<glyph name="chwa-ethiopic.liga" format="2">
  <advance width="1788"/>
  <outline>
    <contour>
      <point x="169" y="0" type="line"/>
      <point x="361" y="0" type="line"/>
      <point x="342" y="1176" type="line"/>
      <point x="819" y="0" type="line"/>
      <point x="966" y="0" type="line"/>
      <point x="1444" y="1179" type="line"/>
      <point x="1426" y="0" type="line"/>
      <point x="1618" y="0" type="line"/>
      <point x="1618" y="1456" type="line"/>
      <point x="1369" y="1456" type="line"/>
      <point x="893" y="268" type="line"/>
      <point x="417" y="1456" type="line"/>
      <point x="169" y="1456" type="line"/>
    </contour>
    <contour>
      <point x="1133" y="-376" type="line"/>
      <point x="1643" y="-376" type="line"/>
      <point x="1643" y="-493" type="line"/>
      <point x="1773" y="-493" type="line"/>
      <point x="1773" y="-245" type="line"/>
      <point x="1614" y="-245" type="line"/>
      <point x="1614" y="-52" type="line"/>
      <point x="1429" y="-52" type="line"/>
      <point x="1429" y="-245" type="line"/>
      <point x="1133" y="-245" type="line"/>
    </contour>
    <contour>
      <point x="473" y="2" type="curve" smooth="yes"/>
      <point x="545" y="2"/>
      <point x="583" y="47"/>
      <point x="583" y="107" type="curve" smooth="yes"/>
      <point x="583" y="167"/>
      <point x="545" y="214"/>
      <point x="473" y="214" type="curve" smooth="yes"/>
      <point x="401" y="214"/>
      <point x="364" y="167"/>
      <point x="364" y="107" type="curve" smooth="yes"/>
      <point x="364" y="47"/>
      <point x="401" y="2"/>
    </contour>
    <contour>
      <point x="1314" y="2" type="curve" smooth="yes"/>
      <point x="1386" y="2"/>
      <point x="1424" y="47"/>
      <point x="1424" y="107" type="curve" smooth="yes"/>
      <point x="1424" y="167"/>
      <point x="1386" y="214"/>
      <point x="1314" y="214" type="curve" smooth="yes"/>
      <point x="1242" y="214"/>
      <point x="1205" y="167"/>
      <point x="1205" y="107" type="curve" smooth="yes"/>
      <point x="1205" y="47"/>
      <point x="1242" y="2"/>
    </contour>
  </outline>
</glyph>
<glyph name="co-ethiopic.liga" format="2">
  <advance width="1222"/>
  <outline>
    <contour>
      <point x="516" y="0" type="line"/>
      <point x="707" y="0" type="line"/>
      <point x="707" y="1298" type="line"/>
      <point x="1175" y="1298" type="line"/>
      <point x="1175" y="1456" type="line"/>
      <point x="49" y="1456" type="line"/>
      <point x="49" y="1298" type="line"/>
      <point x="516" y="1298" type="line"/>
    </contour>
    <contour>
      <point x="587" y="1344" type="curve" smooth="yes"/>
      <point x="758" y="1344"/>
      <point x="880" y="1465"/>
      <point x="880" y="1620" type="curve" smooth="yes"/>
      <point x="880" y="1777"/>
      <point x="754" y="1902"/>
      <point x="587" y="1902" type="curve" smooth="yes"/>
      <point x="425" y="1902"/>
      <point x="301" y="1780"/>
      <point x="301" y="1620" type="curve" smooth="yes"/>
      <point x="301" y="1463"/>
      <point x="422" y="1344"/>
    </contour>
    <contour>
      <point x="542" y="1480" type="curve" smooth="yes"/>
      <point x="441" y="1481"/>
      <point x="343" y="1545"/>
      <point x="343" y="1671" type="curve" smooth="yes"/>
      <point x="343" y="1783"/>
      <point x="427" y="1872"/>
      <point x="537" y="1872" type="curve" smooth="yes"/>
      <point x="653" y="1872"/>
      <point x="741" y="1777"/>
      <point x="741" y="1671" type="curve" smooth="yes"/>
      <point x="741" y="1544"/>
      <point x="640" y="1480"/>
    </contour>
    <contour>
      <point x="245" y="1641" type="line"/>
      <point x="919" y="1641" type="line"/>
      <point x="919" y="1784" type="line"/>
      <point x="245" y="1784" type="line"/>
    </contour>
  </outline>
</glyph>
<glyph name="cu-ethiopic.liga" format="2">
  <advance width="1222"/>
  <outline>
    <contour>
      <point x="516" y="0" type="line"/>
      <point x="707" y="0" type="line"/>
      <point x="707" y="1298" type="line"/>
      <point x="1175" y="1298" type="line"/>
      <point x="1175" y="1456" type="line"/>
      <point x="49" y="1456" type="line"/>
      <point x="49" y="1298" type="line"/>
      <point x="516" y="1298" type="line"/>
    </contour>
    <contour>
      <point x="831" y="829" type="curve" smooth="yes"/>
      <point x="898" y="829"/>
      <point x="955" y="884"/>
      <point x="955" y="952" type="curve" smooth="yes"/>
      <point x="955" y="1019"/>
      <point x="898" y="1076"/>
      <point x="831" y="1076" type="curve" smooth="yes"/>
      <point x="763" y="1076"/>
      <point x="708" y="1019"/>
      <point x="708" y="952" type="curve" smooth="yes"/>
      <point x="708" y="884"/>
      <point x="763" y="829"/>
    </contour>
    <contour>
      <point x="535" y="1526" type="line"/>
      <point x="682" y="1526" type="line"/>
      <point x="682" y="1783" type="line"/>
      <point x="535" y="1783" type="line"/>
    </contour>
    <component base="_smart.hat.caps" xOffset="579" yOffset="-1"/>
  </outline>
</glyph>
